<svg xmlns="http://www.w3.org/2000/svg" width="18" height="18" viewBox="0 0 18 18">
  <g id="vuesax_bold_direct" data-name="vuesax/bold/direct" transform="translate(-428 -188)">
    <g id="direct" transform="translate(428 188)">
      <path id="Vector" d="M14.475,0h-2.61a1.9,1.9,0,0,0-1.717,1.065L9.517,2.31a.872.872,0,0,1-.78.487H6.277A.8.8,0,0,1,5.5,2.31l-.63-1.238A1.925,1.925,0,0,0,3.15.008H.525A.522.522,0,0,0,0,.533V2.978a4.006,4.006,0,0,0,4.365,4.35H10.65A3.954,3.954,0,0,0,15,3.413V.525A.527.527,0,0,0,14.475,0Z" transform="translate(1.5 9.172)" fill="#4d5a66"/>
      <path id="Vector-2" data-name="Vector" d="M10.642,0H4.358A4,4,0,0,0,0,4.358v2.28a1.545,1.545,0,0,1,.525-.09H3.15A3.02,3.02,0,0,1,5.872,8.235l.563,1.1H8.58l.563-1.11a3.026,3.026,0,0,1,2.722-1.68h2.61a1.545,1.545,0,0,1,.525.09V4.358A4,4,0,0,0,10.642,0ZM6.337,2.557H8.662a.521.521,0,1,1,0,1.043H6.337a.521.521,0,1,1,0-1.043Zm2.91,3.135H5.752a.521.521,0,0,1,0-1.043H9.247a.521.521,0,0,1,0,1.043Z" transform="translate(1.5 1.5)" fill="#4d5a66"/>
      <path id="Vector-3" data-name="Vector" d="M0,0H18V18H0Z" fill="none" opacity="0"/>
      <path id="Vector-4" data-name="Vector" d="M0,0H18V18H0Z" transform="translate(18 18) rotate(180)" fill="none" opacity="0"/>
    </g>
  </g>
</svg>
