<svg id="Layer_1" data-name="Layer 1" xmlns="http://www.w3.org/2000/svg" viewBox="0 0 651 608"><defs><style>.cls-1{fill:#00ab55;}.cls-2{fill:#e8e8e8;}</style></defs><circle class="cls-1" cx="325.79" cy="308.27" r="298.66"/><path class="cls-2" d="M474,460.1c0,6.93-2.8,12.4-10.12,15.28s-13.54,1.05-19.22-3.5c-7.57-6.06-15.33-11.94-22.86-18.05-2.35-1.9-3.89-1.74-6.16.1-9.62,7.82-19.26,15.62-29.17,23.14-3.74,2.85-8.21,4.95-12.34,7.39h-7c-4.25-2.67-8.78-5-12.7-8-9.57-7.3-18.93-14.82-28.22-22.41-2.43-2-4-2-6.46,0-9.4,7.66-18.86,15.26-28.52,22.64-3.83,2.93-8.26,5.23-12.42,7.82h-7c-3.94-2.29-8.21-4.23-11.76-6.93-10.1-7.69-20-15.63-29.75-23.6-2.29-1.85-3.82-2-6.16-.08-7.52,6.11-15.28,12-22.85,18.06-5.69,4.55-12,6.31-19.23,3.48C174.79,472.5,172,467,172,460.1q0-151.91,0-303.8c0-6.81,2.87-12.18,10-15S195.5,140,201.2,144.6c7.3,5.83,14.82,11.44,22,17.39,2.93,2.45,4.84,2.67,7.94.1,9.91-8.22,20.12-16.14,30.24-24.15,9.92-7.84,17.76-7.8,27.55,0,10.27,8.21,20.64,16.32,30.83,24.6,2.41,2,4,2,6.48,0,10.47-8.52,21.11-16.88,31.69-25.29,8.71-6.93,17-7,25.8-.07C394.33,145.6,405,154,415.43,162.5c2.59,2.11,4.25,2,6.74-.05,7.41-6,15-11.89,22.57-17.82A19.82,19.82,0,0,1,456.09,140c10.32-.59,17.88,6.39,17.88,16.69Q474,308.37,474,460.1Z"/><path class="cls-1" d="M420,268.53l-13.06,98.13a1.82,1.82,0,0,1-.29.72l-.23,1.24a2.92,2.92,0,0,1-1.84,2.22l-4.08,1.54a2.91,2.91,0,0,1-2.74-.37l-73-52.91a2.9,2.9,0,0,0-2.87-.32l-22.79,9.81a2.92,2.92,0,0,0-.6,5l66.21,49.6a2.93,2.93,0,0,1-.7,5.08l-5.79,2.24a3,3,0,0,1-2.79-.38l-72.18-53.44a2.91,2.91,0,0,0-2.92-.32l-23.17,10.22a2.93,2.93,0,0,0-.58,5l66.53,49.83a2.94,2.94,0,0,1-.55,5l-8.74,3.94a2.92,2.92,0,0,1-3-.33l-74.57-55.86-2.8-2.1-1.19-1s0,0-.05-.05a2.94,2.94,0,0,1-.6-1.18s0,0,0,0a2.76,2.76,0,0,1-.07-.86l.36-5.64a2.92,2.92,0,0,1,1.76-2.5l40.69-17.36L316.32,304a1.8,1.8,0,0,0,1.05-1.47l2.78-27.2a1.84,1.84,0,0,0-2.58-1.86l-79.12,35.12a1.83,1.83,0,0,1-2.58-1.75l.42-9.32a1.8,1.8,0,0,1,1.1-1.6l83.71-36.77a1.79,1.79,0,0,0,1.1-1.5l2.56-27.7a1.84,1.84,0,0,0-2.57-1.85L242.9,263.55a1.84,1.84,0,0,1-2.58-1.83l1-12a1.84,1.84,0,0,1,1.09-1.52l90.26-40.3.06,0a1.66,1.66,0,0,1,.69-.45l4.24-1.46a1.73,1.73,0,0,1,1.65.31l4.36,3.67a1.69,1.69,0,0,1,.6,1.5l-10.66,90.87a1.7,1.7,0,0,0,.66,1.55l21.92,16.8a1.7,1.7,0,0,0,2.72-1.13l11.5-86.4a1.71,1.71,0,0,1,2.74-1.11l7.55,5.89a1.71,1.71,0,0,1,.65,1.56l-12.08,90.44a1.68,1.68,0,0,0,.65,1.58l22.49,16.91a1.71,1.71,0,0,0,2.72-1.13l11.51-86.52a1.7,1.7,0,0,1,2.7-1.14l10,7.35A1.69,1.69,0,0,1,420,268.53Z"/></svg>