<?xml version="1.0" encoding="utf-8"?>
<!-- Generator: Adobe Illustrator 25.0.0, SVG Export Plug-In . SVG Version: 6.00 Build 0)  -->
<svg version="1.1"
	 id="Layer_1" shape-rendering="geometricPrecision" text-rendering="geometricPrecision" image-rendering="optimizeQuality" xmlns:xodm="http://www.corel.com/coreldraw/odm/2003"
	 xmlns="http://www.w3.org/2000/svg" xmlns:xlink="http://www.w3.org/1999/xlink" x="0px" y="0px" viewBox="0 0 46.7 43"
	 style="enable-background:new 0 0 46.7 43;" xml:space="preserve">
<style type="text/css">
	.st0{fill:#040504;}
	.st1{fill:#080505;}
	.st2{fill:#070404;}
	.st3{fill:#080A09;}
	.st4{fill:#090707;}
	.st5{fill:#0A0706;}
	.st6{fill:#020309;}
	.st7{fill:#010101;}
	.st8{fill:#060303;}
	.st9{fill:#080606;}
	.st10{fill:#100B09;}
	.st11{fill:#050505;}
	.st12{fill:#060606;}
	.st13{fill:#030303;}
	.st14{fill:#0A0A09;}
	.st15{fill:#050303;}
	.st16{fill:#030202;}
	.st17{fill:#060605;}
	.st18{fill:#0A0A0A;}
	.st19{fill:#080807;}
	.st20{fill:#020202;}
	.st21{fill:#EFF0EA;}
	.st22{fill:#01060B;}
	.st23{fill:#EFBB81;}
	.st24{fill:#ECBA82;}
	.st25{fill:#130A06;}
	.st26{fill:#6C4E38;}
	.st27{fill:#E7BA89;}
	.st28{fill:#ECBC87;}
	.st29{fill:#100402;}
	.st30{fill:#F0BE89;}
	.st31{fill:#EBBA83;}
	.st32{fill:#E6C090;}
	.st33{fill:#F1BA7C;}
	.st34{fill:#E9C091;}
	.st35{fill:#E8BC8B;}
	.st36{fill:#EBB982;}
	.st37{fill:#0D0704;}
	.st38{fill:#88522B;}
	.st39{fill:#EAB986;}
	.st40{fill:#E5BE92;}
	.st41{fill:#6E5749;}
	.st42{fill:#6B4B37;}
	.st43{fill:#E7BB8F;}
	.st44{fill:#E7BA87;}
	.st45{fill:#E7B580;}
	.st46{fill:#DEBD9C;}
	.st47{fill:#BA9D80;}
	.st48{fill:#EDEEE8;}
	.st49{fill:#E1E2DE;}
	.st50{fill:#040501;}
	.st51{fill:#F4F5F2;}
	.st52{fill:#CDCDCC;}
	.st53{fill:#DCDDD9;}
	.st54{fill:#5C5C5C;}
	.st55{fill:#825533;}
	.st56{fill:#84532F;}
	.st57{fill:#7D563C;}
	.st58{fill:#7E5334;}
	.st59{fill:#835432;}
	.st60{fill:#EEEFE9;}
	.st61{fill:#79543C;}
	.st62{fill:#110A08;}
	.st63{fill:#080100;}
	.st64{fill:#E4E6E1;}
	.st65{fill:#734D33;}
	.st66{fill:#F5F6EC;}
	.st67{fill:#010000;}
	.st68{fill:#392214;}
	.st69{fill:#0C0C0B;}
	.st70{fill:#F4F5F0;}
	.st71{fill:#EFBB82;}
	.st72{fill:#0D0D09;}
	.st73{fill:#E9BB87;}
	.st74{fill:#EEBC84;}
	.st75{fill:#070707;}
	.st76{fill:#060202;}
	.st77{fill:#140B06;}
	.st78{fill:#F2F3EE;}
	.st79{fill:#070705;}
	.st80{fill:#E1BE9A;}
	.st81{fill:#F4EEE3;}
	.st82{fill:#030405;}
	.st83{fill:#020201;}
	.st84{fill:#1D0F08;}
	.st85{fill:#01040E;}
	.st86{fill:#110907;}
	.st87{fill:#F3BA7F;}
	.st88{fill:#150A08;}
	.st89{fill:#E9BD89;}
	.st90{fill:#EFBB7D;}
	.st91{fill:#7E5232;}
	.st92{fill:#0A0605;}
	.st93{fill:#EBB885;}
	.st94{fill:#F2BB7D;}
	.st95{fill:#110703;}
	.st96{fill:#F1BA7A;}
	.st97{fill:#E0B589;}
	.st98{fill:#EEBB7C;}
	.st99{fill:#F3B789;}
	.st100{fill:#F2B986;}
	.st101{fill:#331307;}
	.st102{fill:#160901;}
	.st103{fill:#F2BB81;}
	.st104{fill:#F3BC7F;}
	.st105{fill:#1C0C06;}
	.st106{fill:#040100;}
	.st107{fill:#F6BA80;}
	.st108{fill:#EFB97C;}
	.st109{fill:#E3B98C;}
	.st110{fill:#EFBC79;}
	.st111{fill:#F3BB7E;}
	.st112{fill:#1E120B;}
	.st113{fill:#EFBC7C;}
	.st114{fill:#EABD88;}
	.st115{fill:#2B1408;}
	.st116{fill:#E8BE8A;}
	.st117{fill:#351C0C;}
	.st118{fill:#EABF8A;}
	.st119{fill:#321506;}
	.st120{fill:#EFB879;}
	.st121{fill:#0C0603;}
	.st122{fill:#0C0707;}
	.st123{fill:#F0BB81;}
	.st124{fill:#EDBA81;}
	.st125{fill:#EBBD88;}
	.st126{fill:#EEBA85;}
	.st127{fill:#ECBC86;}
	.st128{fill:#EEB778;}
	.st129{fill:#060B0F;}
	.st130{fill:#F3B97D;}
	.st131{fill:#1B110B;}
	.st132{fill:#EFB779;}
	.st133{fill:#EDB97F;}
	.st134{fill:#F2B97F;}
	.st135{fill:#1F1109;}
	.st136{fill:#EDB97D;}
	.st137{fill:#EBBC88;}
	.st138{fill:#F1BB7F;}
	.st139{fill:#EABB84;}
	.st140{fill:#F0BB7E;}
	.st141{fill:#E1B789;}
	.st142{fill:#EFBB87;}
	.st143{fill:#EABA88;}
	.st144{fill:#392011;}
	.st145{fill:#F0BA7B;}
	.st146{fill:#EBBB8F;}
	.st147{fill:#4B3628;}
	.st148{fill:#F4B885;}
	.st149{fill:#EFBD90;}
	.st150{fill:#EEBE8A;}
	.st151{fill:#EBC192;}
	.st152{fill:#ECBF8D;}
	.st153{fill:#321C0F;}
	.st154{fill:#F4BA7B;}
	.st155{fill:#EBE7E3;}
	.st156{fill:#764F35;}
	.st157{fill:#6D4B34;}
	.st158{fill:#1A0B05;}
	.st159{fill:#8B6042;}
	.st160{fill:#210C00;}
	.st161{fill:#110E0D;}
	.st162{fill:#734B2D;}
	.st163{fill:#0B0908;}
	.st164{fill:#845C3E;}
	.st165{fill:#070405;}
	.st166{fill:#050405;}
	.st167{fill:#0A0201;}
	.st168{fill:#0A0403;}
	.st169{fill:#775238;}
	.st170{fill:#855431;}
	.st171{fill:#78553B;}
	.st172{fill:#100201;}
	.st173{fill:#331E0E;}
	.st174{fill:#74513A;}
	.st175{fill:#190300;}
	.st176{fill:#735138;}
	.st177{fill:#110402;}
	.st178{fill:#271006;}
	.st179{fill:#1E0F07;}
	.st180{fill:#070302;}
	.st181{fill:#0B0808;}
	.st182{fill:#07070A;}
	.st183{fill:#03040D;}
	.st184{fill:#77543C;}
	.st185{fill:#200F0A;}
	.st186{fill:#29150C;}
	.st187{fill:#805539;}
	.st188{fill:#0E0100;}
	.st189{fill:#7F593D;}
	.st190{fill:#7C563B;}
	.st191{fill:#F3F4EE;}
	.st192{fill:#795133;}
	.st193{fill:#170702;}
	.st194{fill:#0F0704;}
	.st195{fill:#DEDFDA;}
	.st196{fill:#E8B782;}
	.st197{fill:#EEBC87;}
	.st198{fill:#332318;}
	.st199{fill:#150604;}
	.st200{fill:#E6BC92;}
	.st201{fill:#F4B97A;}
	.st202{fill:#F8BA82;}
	.st203{fill:#ECB986;}
	.st204{fill:#090301;}
	.st205{fill:#180803;}
	.st206{fill:#774C27;}
	.st207{fill:#190000;}
	.st208{fill:#1A100A;}
	.st209{fill:#F3BA7D;}
	.st210{fill:#DBB693;}
	.st211{fill:#1C0903;}
	.st212{fill:#714F3B;}
	.st213{fill:#0B0705;}
	.st214{fill:#765844;}
	.st215{fill:#110A07;}
	.st216{fill:#704F37;}
	.st217{fill:#020209;}
	.st218{fill:#02030B;}
	.st219{fill:#E8BE90;}
	.st220{fill:#E4C09C;}
	.st221{fill:#745137;}
	.st222{fill:#785847;}
	.st223{fill:#82522E;}
	.st224{fill:#7B5335;}
	.st225{fill:#231B15;}
	.st226{fill:#06080B;}
	.st227{fill:#724B30;}
	.st228{fill:#76543D;}
	.st229{fill:#150000;}
	.st230{fill:#110906;}
	.st231{fill:#0F0400;}
	.st232{fill:#1A0400;}
	.st233{fill:#103F68;}
	.st234{fill:#FDFDFD;}
	.st235{fill:#FEFEFE;}
	.st236{fill:#F5AC37;}
	.st237{fill:#FEFEFD;}
	.st238{opacity:0.42;fill:#7C541A;}
	.st239{fill:#00AB55;}
	.st240{fill:#FFFFFF;}
</style>
<g>
	<path class="st233" d="M23.1,0.5c0.2,0,0.4,0,0.6,0c0,0,0.1,0,0.1,0c0.1,0,0.3,0,0.4,0c0,0,0.1,0,0.1,0c0.9,0,1.8,0.1,2.7,0.3
		c1.7,0.3,3.3,0.8,4.9,1.5c2.9,1.3,5.4,3.2,7.5,5.6c2,2.4,3.4,5.1,4.2,8.2c0.3,1.1,0.5,2.1,0.6,3.2c0,0.4,0.1,0.9,0.1,1.3
		c0,0.1,0,0.2,0,0.3c0,0.1,0,0.2,0,0.3c0,0.2,0,0.4,0,0.6c0,0,0,0.1,0,0.1c0,0.1,0,0.3,0,0.4c0,0,0,0,0,0.1c0,0.7-0.1,1.4-0.2,2.1
		c-0.2,1.2-0.5,2.4-0.8,3.6c-1.2,3.6-3.2,6.7-6.1,9.2c-3.6,3.1-7.9,4.8-12.7,5.1c-1.4,0.1-2.7,0-4-0.2c-1.2-0.2-2.5-0.5-3.7-0.9
		c-2-0.7-3.8-1.6-5.5-2.8c-2-1.4-3.7-3.1-5.1-5.2C3.9,30,2.7,26.4,2.4,22.5c-0.1-2,0.1-3.9,0.5-5.8c0.6-2.5,1.6-4.9,3.1-7
		c1.4-2.1,3.2-3.9,5.3-5.4C13.6,2.7,16,1.6,18.7,1c0.8-0.2,1.7-0.3,2.5-0.4c0.4,0,0.8-0.1,1.3-0.1c0.1,0,0.2,0,0.3,0
		C22.9,0.5,23,0.5,23.1,0.5z M35.8,21.4c0-2.4,0-4.7,0-7.1c0-0.1,0-0.1-0.1-0.2c-4.1-2.4-8.2-4.7-12.3-7.1c-0.1-0.1-0.2-0.1-0.3,0
		c-4,2.4-8.1,4.7-12.1,7.1c-0.1,0-0.1,0.1-0.1,0.2c0,4.7,0,9.4,0,14.1c0,0.1,0,0.2,0.1,0.2c4,2.3,8.1,4.7,12.1,7.1
		c0.1,0.1,0.2,0.1,0.3,0c4.1-2.4,8.1-4.7,12.2-7.1c0.1,0,0.1-0.1,0.1-0.2C35.8,26.1,35.8,23.8,35.8,21.4z"/>
	<path class="st233" d="M22.5,0.5C22.5,0.5,22.5,0.5,22.5,0.5c0.2,0,0.4,0,0.6,0c-0.1,0-0.2,0-0.3,0C22.7,0.5,22.6,0.5,22.5,0.5z"/>
	<path class="st233" d="M24.2,0.5C24.2,0.5,24.2,0.5,24.2,0.5c-0.2,0-0.3,0-0.5,0c0,0-0.1,0-0.1,0C23.8,0.5,24,0.5,24.2,0.5z"/>
	<path class="st233" d="M44.3,20.6C44.3,20.6,44.3,20.6,44.3,20.6c0,0.2,0,0.4,0,0.6c0-0.1,0-0.2,0-0.3
		C44.3,20.7,44.3,20.6,44.3,20.6z"/>
	<path class="st233" d="M44.3,22.3C44.3,22.2,44.3,22.2,44.3,22.3c0-0.2,0-0.3,0-0.5c0,0,0-0.1,0-0.1C44.3,21.9,44.3,22.1,44.3,22.3
		z"/>
	<path class="st234" d="M35.8,21.4c0,2.4,0,4.7,0,7.1c0,0.1,0,0.1-0.1,0.2c-4.1,2.4-8.1,4.7-12.2,7.1c-0.1,0.1-0.2,0.1-0.3,0
		c-4-2.4-8.1-4.7-12.1-7.1c-0.1-0.1-0.1-0.1-0.1-0.2c0-4.7,0-9.4,0-14.1c0-0.1,0-0.1,0.1-0.2c4-2.4,8.1-4.7,12.1-7.1
		c0.1-0.1,0.2-0.1,0.3,0c4.1,2.4,8.2,4.7,12.3,7.1c0.1,0,0.1,0.1,0.1,0.2C35.8,16.7,35.8,19,35.8,21.4z M12.2,21.4
		c0,2.1,0,4.2,0,6.3c0,0.1,0,0.1,0.1,0.2c3.6,2.1,7.2,4.2,10.9,6.3c0.1,0,0.1,0,0.2,0c3.7-2.1,7.3-4.2,11-6.3c0.1,0,0.1-0.1,0.1-0.1
		c0-4.2,0-8.5,0-12.7c0-0.1,0-0.1-0.1-0.2c-1.2-0.7-2.3-1.3-3.5-2c-2.5-1.4-5-2.9-7.5-4.3c-0.1,0-0.1,0-0.2,0
		c-3.6,2.1-7.2,4.2-10.9,6.3c-0.1,0-0.1,0.1-0.1,0.2C12.2,17.2,12.2,19.3,12.2,21.4z"/>
	<path class="st233" d="M12.2,21.4c0-2.1,0-4.2,0-6.3c0-0.1,0-0.1,0.1-0.2c3.6-2.1,7.2-4.2,10.9-6.3c0.1,0,0.1,0,0.2,0
		c2.5,1.4,5,2.9,7.5,4.3c1.2,0.7,2.3,1.3,3.5,2c0.1,0,0.1,0.1,0.1,0.2c0,4.2,0,8.5,0,12.7c0,0.1,0,0.1-0.1,0.1
		c-3.7,2.1-7.3,4.2-11,6.3c-0.1,0-0.1,0-0.2,0c-3.6-2.1-7.2-4.2-10.9-6.3c-0.1,0-0.1-0.1-0.1-0.2C12.2,25.6,12.2,23.5,12.2,21.4z
		 M23.3,18.3C23.3,18.3,23.3,18.3,23.3,18.3c2,0,3.9,0,5.9,0c0.1,0,0.1,0,0.1-0.1c-0.4-1.6-0.8-3.2-1.1-4.8c0-0.1-0.1-0.1-0.1-0.1
		c-1.5,0-2.9,0-4.4,0c-1.7,0-3.5,0-5.2,0c-0.1,0-0.1,0-0.1,0.1c-0.4,1.6-0.7,3.2-1.1,4.8c0,0.1,0,0.1,0.1,0.1
		C19.3,18.3,21.3,18.3,23.3,18.3z M20.1,23.5c0-0.5,0-1,0-1.5c0-0.1,0-0.1-0.1-0.2c-0.9-0.6-1.8-1.2-2.7-1.7c-0.1,0-0.1,0-0.2,0
		c-1,0.8-2.1,1.5-3.1,2.3c-0.1,0.1-0.1,0.1,0,0.2c0.9,1.5,1.7,3,2.6,4.5c0.6,1,1.2,2.1,1.8,3.1c0,0.1,0.1,0.1,0.1,0.1
		c0.5,0,1.1,0,1.6,0c0,0,0.1,0,0.1,0c0.7-0.6,1.3-1.3,2-1.9c0,0,0.1-0.1,0.1-0.1c0-0.3,0-0.5,0-0.8c0-0.1,0-0.1-0.1-0.2
		c-0.7-0.7-1.4-1.3-2.1-2c0,0-0.1-0.1-0.1-0.2C20.1,24.5,20.1,24,20.1,23.5z M26.5,23.5c0,0.5,0,1,0,1.5c0,0.1,0,0.1-0.1,0.2
		c-0.7,0.7-1.4,1.3-2,2c-0.1,0-0.1,0.1-0.1,0.2c0,0.3,0,0.5,0,0.8c0,0.1,0,0.1,0.1,0.2c0.7,0.6,1.3,1.2,2,1.8c0,0,0.1,0.1,0.1,0.1
		c0.5,0,1.1,0,1.6,0c0.1,0,0.1,0,0.1-0.1c1.4-2.5,2.9-5.1,4.3-7.6c0-0.1,0-0.1,0-0.1c-1-0.8-2.1-1.6-3.1-2.4c-0.1,0-0.1,0-0.1,0
		c-0.9,0.6-1.8,1.2-2.7,1.8c-0.1,0-0.1,0.1-0.1,0.2C26.5,22.4,26.5,23,26.5,23.5z M20.1,19c0,0,0,0.1,0,0.1c0.3,0.9,0.7,1.7,1,2.6
		c0,0.1,0,0.2,0,0.2c-0.1,1-0.2,1.9-0.3,2.9c0,0.1,0,0.1,0.1,0.1c0.8,0,1.5,0,2.3,0c0.8,0,1.6,0,2.3,0c0.1,0,0.1,0,0.1-0.1
		c0-0.4-0.1-0.7-0.1-1.1c-0.1-0.6-0.1-1.2-0.2-1.8c0-0.1,0-0.1,0-0.2c0.3-0.9,0.6-1.7,1-2.6c0-0.1,0-0.1-0.1-0.1c-2,0-4,0-6.1,0
		C20.2,19,20.2,19,20.1,19z"/>
	<path class="st235" d="M23.3,18.3c-2,0-3.9,0-5.9,0c-0.1,0-0.1,0-0.1-0.1c0.4-1.6,0.7-3.2,1.1-4.8c0-0.1,0.1-0.1,0.1-0.1
		c1.7,0,3.5,0,5.2,0c1.5,0,2.9,0,4.4,0c0.1,0,0.1,0,0.1,0.1c0.4,1.6,0.7,3.2,1.1,4.8c0,0.1,0,0.1-0.1,0.1
		C27.2,18.3,25.3,18.3,23.3,18.3C23.3,18.3,23.3,18.3,23.3,18.3z"/>
	<path class="st235" d="M20.1,23.5c0,0.5,0,1,0,1.6c0,0.1,0,0.1,0.1,0.2c0.7,0.7,1.4,1.3,2.1,2c0.1,0.1,0.1,0.1,0.1,0.2
		c0,0.3,0,0.5,0,0.8c0,0.1,0,0.1-0.1,0.1c-0.7,0.6-1.3,1.3-2,1.9c0,0-0.1,0-0.1,0c-0.5,0-1.1,0-1.6,0c-0.1,0-0.1,0-0.1-0.1
		c-0.6-1-1.2-2.1-1.8-3.1c-0.9-1.5-1.7-3-2.6-4.5c0-0.1,0-0.1,0-0.2c1-0.8,2.1-1.5,3.1-2.3c0.1,0,0.1,0,0.2,0
		c0.9,0.6,1.8,1.2,2.7,1.7c0.1,0,0.1,0.1,0.1,0.2C20.1,22.4,20.1,23,20.1,23.5z"/>
	<path class="st235" d="M26.5,23.5c0-0.5,0-1,0-1.5c0-0.1,0-0.1,0.1-0.2c0.9-0.6,1.8-1.2,2.7-1.8c0.1,0,0.1,0,0.1,0
		c1,0.8,2.1,1.6,3.1,2.4c0.1,0,0.1,0.1,0,0.1c-1.4,2.5-2.9,5.1-4.3,7.6c0,0.1-0.1,0.1-0.1,0.1c-0.5,0-1.1,0-1.6,0
		c-0.1,0-0.1,0-0.1-0.1c-0.7-0.6-1.3-1.2-2-1.8c-0.1-0.1-0.1-0.1-0.1-0.2c0-0.3,0-0.5,0-0.8c0-0.1,0-0.1,0.1-0.2
		c0.7-0.7,1.4-1.3,2-2c0.1-0.1,0.1-0.1,0.1-0.2C26.5,24.5,26.5,24,26.5,23.5z"/>
	<path class="st235" d="M20.1,19c0,0,0.1,0,0.1,0c2,0,4,0,6.1,0c0.1,0,0.1,0,0.1,0.1c-0.3,0.9-0.6,1.7-1,2.6c0,0.1,0,0.1,0,0.2
		c0.1,0.6,0.1,1.2,0.2,1.8c0,0.4,0.1,0.7,0.1,1.1c0,0.1,0,0.1-0.1,0.1c-0.8,0-1.6,0-2.3,0c-0.8,0-1.5,0-2.3,0c-0.1,0-0.1,0-0.1-0.1
		c0.1-1,0.2-1.9,0.3-2.9c0-0.1,0-0.2,0-0.2c-0.3-0.9-0.7-1.7-1-2.6C20.1,19.1,20.1,19.1,20.1,19z"/>
</g>
</svg>
