<?xml version="1.0" encoding="utf-8"?>
<!-- Generator: Adobe Illustrator 25.0.0, SVG Export Plug-In . SVG Version: 6.00 Build 0)  -->
<svg version="1.1"
	 id="Layer_1" shape-rendering="geometricPrecision" text-rendering="geometricPrecision" image-rendering="optimizeQuality" xmlns:xodm="http://www.corel.com/coreldraw/odm/2003"
	 xmlns="http://www.w3.org/2000/svg" xmlns:xlink="http://www.w3.org/1999/xlink" x="0px" y="0px" viewBox="0 0 48 43"
	 style="enable-background:new 0 0 48 43;" xml:space="preserve">
<style type="text/css">
	.st0{fill:#040504;}
	.st1{fill:#080505;}
	.st2{fill:#070404;}
	.st3{fill:#080A09;}
	.st4{fill:#090707;}
	.st5{fill:#0A0706;}
	.st6{fill:#020309;}
	.st7{fill:#010101;}
	.st8{fill:#060303;}
	.st9{fill:#080606;}
	.st10{fill:#100B09;}
	.st11{fill:#050505;}
	.st12{fill:#060606;}
	.st13{fill:#030303;}
	.st14{fill:#0A0A09;}
	.st15{fill:#050303;}
	.st16{fill:#030202;}
	.st17{fill:#060605;}
	.st18{fill:#0A0A0A;}
	.st19{fill:#080807;}
	.st20{fill:#020202;}
	.st21{fill:#EFF0EA;}
	.st22{fill:#01060B;}
	.st23{fill:#EFBB81;}
	.st24{fill:#ECBA82;}
	.st25{fill:#130A06;}
	.st26{fill:#6C4E38;}
	.st27{fill:#E7BA89;}
	.st28{fill:#ECBC87;}
	.st29{fill:#100402;}
	.st30{fill:#F0BE89;}
	.st31{fill:#EBBA83;}
	.st32{fill:#E6C090;}
	.st33{fill:#F1BA7C;}
	.st34{fill:#E9C091;}
	.st35{fill:#E8BC8B;}
	.st36{fill:#EBB982;}
	.st37{fill:#0D0704;}
	.st38{fill:#88522B;}
	.st39{fill:#EAB986;}
	.st40{fill:#E5BE92;}
	.st41{fill:#6E5749;}
	.st42{fill:#6B4B37;}
	.st43{fill:#E7BB8F;}
	.st44{fill:#E7BA87;}
	.st45{fill:#E7B580;}
	.st46{fill:#DEBD9C;}
	.st47{fill:#BA9D80;}
	.st48{fill:#EDEEE8;}
	.st49{fill:#E1E2DE;}
	.st50{fill:#040501;}
	.st51{fill:#F4F5F2;}
	.st52{fill:#CDCDCC;}
	.st53{fill:#DCDDD9;}
	.st54{fill:#5C5C5C;}
	.st55{fill:#825533;}
	.st56{fill:#84532F;}
	.st57{fill:#7D563C;}
	.st58{fill:#7E5334;}
	.st59{fill:#835432;}
	.st60{fill:#EEEFE9;}
	.st61{fill:#79543C;}
	.st62{fill:#110A08;}
	.st63{fill:#080100;}
	.st64{fill:#E4E6E1;}
	.st65{fill:#734D33;}
	.st66{fill:#F5F6EC;}
	.st67{fill:#010000;}
	.st68{fill:#392214;}
	.st69{fill:#0C0C0B;}
	.st70{fill:#F4F5F0;}
	.st71{fill:#EFBB82;}
	.st72{fill:#0D0D09;}
	.st73{fill:#E9BB87;}
	.st74{fill:#EEBC84;}
	.st75{fill:#070707;}
	.st76{fill:#060202;}
	.st77{fill:#140B06;}
	.st78{fill:#F2F3EE;}
	.st79{fill:#070705;}
	.st80{fill:#E1BE9A;}
	.st81{fill:#F4EEE3;}
	.st82{fill:#030405;}
	.st83{fill:#020201;}
	.st84{fill:#1D0F08;}
	.st85{fill:#01040E;}
	.st86{fill:#110907;}
	.st87{fill:#F3BA7F;}
	.st88{fill:#150A08;}
	.st89{fill:#E9BD89;}
	.st90{fill:#EFBB7D;}
	.st91{fill:#7E5232;}
	.st92{fill:#0A0605;}
	.st93{fill:#EBB885;}
	.st94{fill:#F2BB7D;}
	.st95{fill:#110703;}
	.st96{fill:#F1BA7A;}
	.st97{fill:#E0B589;}
	.st98{fill:#EEBB7C;}
	.st99{fill:#F3B789;}
	.st100{fill:#F2B986;}
	.st101{fill:#331307;}
	.st102{fill:#160901;}
	.st103{fill:#F2BB81;}
	.st104{fill:#F3BC7F;}
	.st105{fill:#1C0C06;}
	.st106{fill:#040100;}
	.st107{fill:#F6BA80;}
	.st108{fill:#EFB97C;}
	.st109{fill:#E3B98C;}
	.st110{fill:#EFBC79;}
	.st111{fill:#F3BB7E;}
	.st112{fill:#1E120B;}
	.st113{fill:#EFBC7C;}
	.st114{fill:#EABD88;}
	.st115{fill:#2B1408;}
	.st116{fill:#E8BE8A;}
	.st117{fill:#351C0C;}
	.st118{fill:#EABF8A;}
	.st119{fill:#321506;}
	.st120{fill:#EFB879;}
	.st121{fill:#0C0603;}
	.st122{fill:#0C0707;}
	.st123{fill:#F0BB81;}
	.st124{fill:#EDBA81;}
	.st125{fill:#EBBD88;}
	.st126{fill:#EEBA85;}
	.st127{fill:#ECBC86;}
	.st128{fill:#EEB778;}
	.st129{fill:#060B0F;}
	.st130{fill:#F3B97D;}
	.st131{fill:#1B110B;}
	.st132{fill:#EFB779;}
	.st133{fill:#EDB97F;}
	.st134{fill:#F2B97F;}
	.st135{fill:#1F1109;}
	.st136{fill:#EDB97D;}
	.st137{fill:#EBBC88;}
	.st138{fill:#F1BB7F;}
	.st139{fill:#EABB84;}
	.st140{fill:#F0BB7E;}
	.st141{fill:#E1B789;}
	.st142{fill:#EFBB87;}
	.st143{fill:#EABA88;}
	.st144{fill:#392011;}
	.st145{fill:#F0BA7B;}
	.st146{fill:#EBBB8F;}
	.st147{fill:#4B3628;}
	.st148{fill:#F4B885;}
	.st149{fill:#EFBD90;}
	.st150{fill:#EEBE8A;}
	.st151{fill:#EBC192;}
	.st152{fill:#ECBF8D;}
	.st153{fill:#321C0F;}
	.st154{fill:#F4BA7B;}
	.st155{fill:#EBE7E3;}
	.st156{fill:#764F35;}
	.st157{fill:#6D4B34;}
	.st158{fill:#1A0B05;}
	.st159{fill:#8B6042;}
	.st160{fill:#210C00;}
	.st161{fill:#110E0D;}
	.st162{fill:#734B2D;}
	.st163{fill:#0B0908;}
	.st164{fill:#845C3E;}
	.st165{fill:#070405;}
	.st166{fill:#050405;}
	.st167{fill:#0A0201;}
	.st168{fill:#0A0403;}
	.st169{fill:#775238;}
	.st170{fill:#855431;}
	.st171{fill:#78553B;}
	.st172{fill:#100201;}
	.st173{fill:#331E0E;}
	.st174{fill:#74513A;}
	.st175{fill:#190300;}
	.st176{fill:#735138;}
	.st177{fill:#110402;}
	.st178{fill:#271006;}
	.st179{fill:#1E0F07;}
	.st180{fill:#070302;}
	.st181{fill:#0B0808;}
	.st182{fill:#07070A;}
	.st183{fill:#03040D;}
	.st184{fill:#77543C;}
	.st185{fill:#200F0A;}
	.st186{fill:#29150C;}
	.st187{fill:#805539;}
	.st188{fill:#0E0100;}
	.st189{fill:#7F593D;}
	.st190{fill:#7C563B;}
	.st191{fill:#F3F4EE;}
	.st192{fill:#795133;}
	.st193{fill:#170702;}
	.st194{fill:#0F0704;}
	.st195{fill:#DEDFDA;}
	.st196{fill:#E8B782;}
	.st197{fill:#EEBC87;}
	.st198{fill:#332318;}
	.st199{fill:#150604;}
	.st200{fill:#E6BC92;}
	.st201{fill:#F4B97A;}
	.st202{fill:#F8BA82;}
	.st203{fill:#ECB986;}
	.st204{fill:#090301;}
	.st205{fill:#180803;}
	.st206{fill:#774C27;}
	.st207{fill:#190000;}
	.st208{fill:#1A100A;}
	.st209{fill:#F3BA7D;}
	.st210{fill:#DBB693;}
	.st211{fill:#1C0903;}
	.st212{fill:#714F3B;}
	.st213{fill:#0B0705;}
	.st214{fill:#765844;}
	.st215{fill:#110A07;}
	.st216{fill:#704F37;}
	.st217{fill:#020209;}
	.st218{fill:#02030B;}
	.st219{fill:#E8BE90;}
	.st220{fill:#E4C09C;}
	.st221{fill:#745137;}
	.st222{fill:#785847;}
	.st223{fill:#82522E;}
	.st224{fill:#7B5335;}
	.st225{fill:#231B15;}
	.st226{fill:#06080B;}
	.st227{fill:#724B30;}
	.st228{fill:#76543D;}
	.st229{fill:#150000;}
	.st230{fill:#110906;}
	.st231{fill:#0F0400;}
	.st232{fill:#1A0400;}
	.st233{fill:#103F68;}
	.st234{fill:#FDFDFD;}
	.st235{fill:#FEFEFE;}
	.st236{fill:#F5AC37;}
	.st237{fill:#FEFEFD;}
	.st238{opacity:0.42;fill:#7C541A;}
	.st239{fill:#00AB55;}
	.st240{fill:#FFFFFF;}
</style>
<g>
	<path class="st0" d="M21.1,0.8c0.5-0.4,1-0.2,1.5-0.3c0.1-0.1,0.3-0.1,0.4-0.1c0.1,0,0.2,0,0.3,0c0.2,0,0.5,0,0.7,0
		c0.1,0,0.2,0,0.3,0c0.1,0,0.3,0,0.4,0c0.1,0,0.2,0,0.2,0c0.1,0,0.2,0,0.3-0.1c0.3,0,0.6,0,0.9,0c1,0.4,2.2,0.3,3.2,0.6
		c0.2,0.1,0.5,0.2,0.7,0.2c0,0.4-0.3,0.6-0.6,0.8c-1,0-1.9-0.2-2.8-0.3c-1.4-0.2-2.7-0.2-4.1,0c-0.4,0.1-0.7,0.1-1.1-0.1
		C20.9,1.4,20.6,1.2,21.1,0.8z"/>
	<path class="st1" d="M45.4,23.6c0.2,0.5-0.3,1-0.1,1.5c-0.4,1.2-0.4,2.6-1.1,3.7c-0.3,0.3-0.3,0.7-0.4,1.1
		c-0.4,1.3-1.1,2.4-1.9,3.5c-0.2,0-0.4,0.1-0.6-0.2c0-0.1,0-0.3,0-0.4c0.5-0.9,0.9-1.9,1.4-2.8c0.2-0.3,0.4-0.6,0.1-1
		c-0.2-0.2-0.4-0.3-0.7-0.3c-0.4,0.1-0.5,0.5-0.6,0.8c-0.1,0.4-0.1,0.9-0.6,1c-0.2-0.1-0.3-0.3-0.4-0.5c-0.1-0.4,0-0.8,0.1-1.1
		c0.2-0.5-0.1-0.8-0.6-0.9c-0.4-0.2-1,0-1.1-0.7c0.5-0.8,1.4-0.6,2.1-0.7c0.2,0,0.3,0,0.5,0c0.2,0,0.5,0,0.7,0c0.5,0,1,0.5,1.4,0.1
		c0.4-0.5,0.5-1.2,0.4-1.8c0-0.1,0-0.2,0-0.3c0-0.1,0-0.2,0-0.3c0.1-0.2,0.3-0.3,0.4-0.4C44.8,24.1,44.9,23.4,45.4,23.6z"/>
	<path class="st2" d="M27.3,42.6c-2.1,0.2-4.2,0.2-6.2,0c-0.9-0.2-1.7-0.5-2.6-0.7c0-0.3-0.4-0.5-0.2-0.9c0.1-0.1,0.3-0.1,0.4-0.1
		c0.3,0.1,0.6,0.1,0.9,0.1c0.1,0,0.2,0,0.3,0.1c1.2,0.3,2.5,0.5,3.7,0.5c0.8,0,1.6,0,2.3,0c0.8-0.2,1.7-0.1,2.6-0.4
		c0.1,0,0.2,0,0.3,0c0.8-0.3,1.6-0.5,2.4-0.9c0.5-0.2,1-0.5,1.6-0.1c0.1,0.2,0.1,0.4,0,0.6C31.1,41.6,29.3,42.2,27.3,42.6z"/>
	<path class="st3" d="M38.3,37.4c-0.9,0.7-1.7,1.6-2.8,2c-0.2,0.2-0.4,0.1-0.5-0.1c-0.1-0.4,0.2-0.7,0.5-0.9c0.9-0.6,1.6-1.3,2.4-2
		c0.3-0.1,0.5-0.3,0.8-0.4c0.1,0,0.3-0.1,0.4,0c0.1,0,0.2,0.1,0.2,0.2c-0.2,0.4-0.4,0.9-0.9,1.1C38.5,37.3,38.4,37.4,38.3,37.4z"/>
	<path class="st4" d="M32.9,40.8c0-0.2,0-0.5,0-0.7c0.5-0.6,1.1-1.3,2.1-0.9c0.1,0.2,0.1,0.4-0.1,0.6C34.3,40.3,33.7,40.7,32.9,40.8
		z"/>
	<path class="st5" d="M39.2,36.1c-0.1,0-0.3,0-0.4,0c-0.4-0.6,0.2-0.8,0.4-1.2c0.3-0.3,0.6-0.6,1.1-0.6c0.2,0.2,0.3,0.4,0.2,0.7
		c0,0.3-0.2,0.5-0.4,0.7C39.7,35.7,39.5,36,39.2,36.1z"/>
	<path class="st1" d="M40.5,35.1c-0.1-0.2-0.2-0.5-0.2-0.7c-0.1-0.3,0.1-0.6,0.3-0.7c0.3-0.1,0.5-0.3,0.8-0.3c0.1,0,0.3-0.2,0.4,0
		C41.4,33.9,41.1,34.6,40.5,35.1z"/>
	<path class="st1" d="M43.7,29.8c-0.1-0.5-0.4-1,0.4-1.1C44.2,29.2,44,29.6,43.7,29.8z"/>
	<path class="st6" d="M39.2,36.1c0.3-0.1,0.2-1,0.9-0.4c-0.1,0.3-0.3,0.4-0.6,0.4C39.3,36.1,39.3,36.1,39.2,36.1z"/>
	<path class="st7" d="M34.9,39.8c0-0.2,0-0.4,0-0.7c0.1-0.1,0.1-0.1,0.2-0.1c0.1,0.2,0.3,0.2,0.5,0.3C35.4,39.6,35.2,39.8,34.9,39.8
		z"/>
	<path class="st8" d="M3.6,26c0-1.3-0.5-2.6-0.4-3.9c0.1-0.1,0.2-0.3,0.3-0.5c0.2-0.3,0.1-0.6,0.1-0.9c0-0.3,0-0.7,0.3-0.7
		c0.4-0.1,0.5,0.3,0.6,0.6c0.1,0.4,0.3,0.8,0.2,1.2c-0.1,0.2-0.2,0.5-0.3,0.7c-0.1,0.7,0,1.4,0.3,2.1c0,0.2,0.1,0.3,0.1,0.5
		c0,0.5,0,0.9,0.2,1.3c0.4,0.4,0.8,0.1,1.2,0.1c0.4,0,0.8,0,1.1,0.2c0.2,0.3,0,0.5-0.1,0.7c-0.2,0.2-0.5,0.2-0.7,0.2
		c-0.5,0.1-0.9,0.3-1,0.9c-0.2,0.7-0.5,0.7-0.9,0.1C4.2,27.9,3.6,27,3.6,26z"/>
	<path class="st1" d="M4.5,28.8c0.4,0.3,0.7,0.5,0.6-0.2c0.5,0,0.5,0.5,0.6,0.7c0.6,1.2,1.1,2.4,1.9,3.4C7.9,32.8,7.9,32.9,8,33
		c0,0.4,0.2,0.6,0.5,0.7c0.2,0.2,0.4,0.4,0.5,0.7c0.2,0.4,0.5,0.7,0.8,0.9c0.3,0.4,0.6,0.8,0.9,1.2c0,0.1,0.1,0.2,0.1,0.3
		c0,0.2,0,0.4-0.2,0.6c-1.2-0.6-2-1.8-2.8-2.8C6.4,32.9,5.1,31,4.5,28.8z"/>
	<path class="st9" d="M10.5,37.4c0-0.2,0-0.5,0-0.7c0.2,0,0.3,0,0.4,0.1c0.2,0.3,0.5,0.5,0.8,0.5c0.5,0.1,0.8,0.5,1.3,0.8
		c0.3,0.5,1.1,0.5,1.3,1.2c-0.1,0.3-0.2,0.5-0.6,0.4C12.5,39.2,11.5,38.4,10.5,37.4z"/>
	<path d="M18.3,41.1c0,0.3,0.8,0.3,0.2,0.8c-1.4-0.4-2.7-0.9-4-1.7c0-0.3,0.2-0.5,0.5-0.6c0.7,0.1,1.3,0.6,2,0.7
		C17.5,40.6,18,40.7,18.3,41.1z"/>
	<path class="st10" d="M15,39.8c-0.2,0.2-0.3,0.3-0.5,0.5c-0.3-0.1-0.6-0.2-0.8-0.5c0.2-0.1,0.4-0.3,0.5-0.5
		C14.7,39.2,15,39.2,15,39.8z"/>
	<path class="st11" d="M40.7,8.5c1.1,0.8,1.7,2,2.3,3.1c0.6,1.1,1,2.3,1.5,3.4c0.1,0.3,0.1,0.5-0.1,0.7C44.5,16,44.2,16,44,16
		c-0.4-0.1-0.5-0.4-0.6-0.7c-0.3-1.1-0.8-2.1-1.3-3c-0.1-0.2-0.2-0.4-0.3-0.7c-0.1-0.2-0.2-0.4-0.4-0.5c-0.1-0.1-0.2-0.2-0.3-0.3
		c-0.2-0.3-0.4-0.7-0.6-1c-0.1-0.1-0.2-0.3-0.2-0.4C40.4,9,40.4,8.7,40.7,8.5z"/>
	<path class="st12" d="M29.5,1.8c0-0.3,0.3-0.4,0.4-0.6c2,0.5,3.9,1.3,5.6,2.5c-0.2,0.3-0.2,0.7-0.6,0.7c-1.5-0.8-3-1.6-4.6-2.1
		C30,2.3,29.7,2.2,29.5,1.8z"/>
	<path class="st13" d="M40.7,8.5c-0.1,0.3-0.2,0.6-0.2,1c0.2,0.3,0.3,0.6,0.3,0.9c0,0.3,0,0.7-0.3,0.9c0.3,0,0.4-0.7,0.8-0.3
		c0.1,0.3,0.1,0.5,0,0.8c-0.3,0.4-0.7,0.7-1.1,1c-0.2,0.2-0.5,0.3-0.8,0.1c-0.3-0.2-0.2-0.5-0.1-0.8c0.3-0.7,0.5-1.5,0.5-2.3
		c0-0.7-0.2-1.3-0.5-1.8c-0.1-0.5,0-0.9,0.6-0.9C40.3,7.6,40.7,7.9,40.7,8.5z"/>
	<path class="st11" d="M39.8,7.2c-0.4,0.2-0.5,0.5-0.4,0.8c0,0.3-0.2,0.4-0.5,0.4c-0.2,0-0.4-0.1-0.5-0.3c-0.1-0.8-0.4-1.5-1.2-2
		c-0.3-0.2-0.5-0.5-0.7-0.8c0-0.3,0-0.5,0.3-0.7C38,5.3,39,6.2,39.8,7.2z"/>
	<path class="st14" d="M36.8,4.6c-0.1,0.2-0.1,0.4-0.2,0.7c-0.8,0.2-1.1-0.4-1.5-0.9c0.2-0.2,0-0.6,0.5-0.6
		C36.2,3.8,36.3,4.5,36.8,4.6z"/>
	<path class="st15" d="M43.9,15.9c0.2,0,0.3-0.1,0.4-0.3c0.5,0.5,0.4,1.2,0.6,1.8c0,0.5-0.3,0.4-0.6,0.4c-0.2-0.1-0.4-0.2-0.5-0.4
		c0-0.1-0.1-0.2-0.1-0.3c0-0.3-0.1-0.5-0.1-0.8C43.8,16.1,43.8,16,43.9,15.9z"/>
	<path class="st9" d="M45.2,17.6c0,0.1,0,0.1-0.1,0.2c-0.1,0.3-0.2,0.5-0.6,0.5c-0.1,0-0.2,0-0.3-0.1c-0.1-0.2-0.1-0.4,0-0.6
		c0.2,0,0.5,0,0.7-0.2C45.1,17.4,45.1,17.5,45.2,17.6z"/>
	<path class="st16" d="M4.3,20.6c-0.1-0.2-0.2-0.3-0.3-0.6c-0.4,0.6,0.4,1.4-0.3,1.8c-0.1,0-0.3-0.1-0.4-0.2c-0.2-1,0.3-2,0.1-3
		c0.3-2.9,1.4-5.5,2.9-8c0.4-0.1,0.6,0.1,0.7,0.4c-0.1,0.4,0,0.7,0.5,0.9c0.7,0.3,1.4,0.5,1.8,1.3c0,0.3-0.2,0.3-0.4,0.4
		c-0.5,0-0.9-0.4-1.4-0.5c-0.2-0.1-0.4-0.3-0.6-0.4c-1-0.2-0.8,0.6-1,1.2c0,0.2,0.1,0.5,0.2,0.7c0,0.8-0.9,1.2-0.6,2.1
		c0,0.1,0,0.2-0.1,0.3c-0.2,0.2-0.3,0.4-0.2,0.6c0,0.1,0,0.2,0,0.3c0.6,0.4,1.3,0.1,1.9,0.6c0.3,0.2,0,0.5,0.1,0.8
		c0.3,0.7-0.5,0.5-0.8,0.6c-0.7,0-1.5-0.3-1.7,0.9C4.6,20.7,4.4,20.7,4.3,20.6z"/>
	<path class="st11" d="M6.9,11.1c-0.2-0.1-0.4-0.3-0.6-0.4c0.9-1.7,2.2-3,3.5-4.5l0-0.1l0,0.1c0.7-0.3,1.1-1.1,1.8-1.4
		C12,4.8,12,5.1,12,5.3c-0.1,0.3-0.4,0.6,0.2,0.8c0.4,0.1,0.7,0.3,1,0.6c0.2,0.2,0.4,0.4,0.5,0.8c0,0.1-0.1,0.2-0.2,0.3
		c-0.5,0.1-0.8-0.3-1.1-0.5c-0.9-0.5-1.4-0.5-2.2,0.2c-1,0.9-1.8,2.1-2.7,3.2C7.4,10.9,7.3,11.2,6.9,11.1z"/>
	<path class="st17" d="M14.2,3.1c1.5-0.9,3-1.6,4.8-1.9c0.5,0,0.4,0.3,0.3,0.6c-1.4,0.9-2.9,1.5-4.5,1.9C14.4,3.6,14.2,3.4,14.2,3.1
		z"/>
	<path class="st18" d="M19.2,1.9c0-0.2,0-0.5-0.2-0.6c0.7-0.3,1.4-0.5,2.2-0.4C21,1,21,1.2,21.1,1.4C20.6,2.1,19.9,2.2,19.2,1.9z"/>
	<path class="st19" d="M11.8,5.5c0-0.2,0-0.5-0.3-0.6c0.3-0.4,0.7-0.6,1.1-0.8c0.3-0.1,0.5,0,0.7,0.2C13.2,5.1,12.7,5.5,11.8,5.5z"
		/>
	<path class="st20" d="M13.4,4.2c-0.2-0.1-0.5-0.2-0.7-0.2c0.5-0.3,0.9-0.7,1.5-0.9c0.2,0.1,0.4,0.3,0.5,0.5
		C14.4,4.2,14,4.5,13.4,4.2z"/>
	<path class="st21" d="M13.4,4.2c0.5-0.1,0.9-0.3,1.3-0.6c1.5-0.6,2.9-1.4,4.5-1.8c0.6-0.1,1.3-0.1,1.9-0.4c0.9,0.2,1.7-0.2,2.5-0.2
		c2-0.1,3.9,0.3,5.9,0.6c1.6,0.5,3.2,1.1,4.6,1.9c0.3,0.2,0.6,0.5,1,0.6c0.6,0.1,0.8,0.9,1.5,0.9c0.3,0.2,0.6,0.5,0.9,0.7
		c0.8,0.5,1.2,1.1,1.1,2.1c-0.2,1.1-1,1.3-1.8,1.6c-1.1,0.4-2.4,0.3-3.5,0.5c-1.1,0.2-2,0.8-2.9,1.5c-0.1,0.1-0.2,0.2-0.4,0.2
		c-0.1,0-0.2,0-0.3,0c-0.6-0.4-1-1-1.8-1.2c-0.5-0.2-0.9-0.4-1.4-0.7c-0.9-0.4-1.8-0.3-2.8-0.3c-0.3,0-0.7,0-1-0.1
		c-0.5-0.5-0.4-1.2-0.8-1.7c-0.1,0,0-0.1-0.1-0.1C21.9,8,21.9,8.1,22,8.2c0.2,0.5,0.6,1,0.3,1.7c-0.3,0.4-0.8,0.6-1.3,0.7
		c-0.2,0-0.3,0-0.5-0.1c-0.1-0.1-0.2-0.1-0.2-0.2c-0.1-0.1-0.1-0.2-0.1-0.3c-0.1-0.4-0.4-0.4-0.7-0.3c-0.5,0.3-1.1,0.3-1.6,0.2
		c-1.5-0.5-2.9-1.2-4-2.2c-0.1-0.3-0.1-0.8-0.6-0.8c-0.4-0.2-0.8-0.6-1.2-0.6c-1-0.1-0.4-0.4-0.1-0.7C12.4,5.2,13,4.8,13.4,4.2z"/>
	<path class="st22" d="M3.3,21.7c0.3-0.1,0.4-0.1,0.4,0.2c-0.1,0.2-0.2,0.2-0.4,0.2C3.3,22,3.3,21.8,3.3,21.7z"/>
	<path class="st15" d="M44.5,18.3c0.2-0.1,0.4-0.3,0.6-0.4c0.1,0.5,0.2,1,0.3,1.5c0,0.2,0,0.4,0,0.6c0,1.2-0.1,2.4-0.1,3.7
		c-0.4,0-0.2,0.8-0.8,0.6c-0.6-0.7,0.1-1.4-0.1-2.1c0-0.7,0-1.3-0.2-2C44.3,19.5,44.1,18.8,44.5,18.3z"/>
	<path class="st23" d="M38.9,27.5c0.2,0.5,0.9,0,1.1,0.4c0.2,0.1,0.3,0.2,0.2,0.5c-0.3,0.3-0.6,0.6,0.1,0.8c0.2,0.3,0.2,0.6,0.2,0.9
		c0.2,1.8-0.9,3-1.8,4.3c-0.5,0.7-1.1,1.2-1.8,1.6c-0.8,0.4-1.5,1-2.4,1c-0.5-0.2-0.9-0.2-1.4-0.2c0.2,0.2,0.6-0.2,0.7,0.3
		c-0.3,0.4-0.7,0.3-1.1,0.3c-0.5,0-1,0-1.4,0c-0.6,0-1.3-0.1-1.9-0.3c-0.9-0.3-1.6-0.7-2.3-1.4c-0.1-0.1,0.1-0.5-0.3-0.3
		c-0.2,0-0.3-0.1-0.5-0.3c-0.6-0.8-1.2-1.5-1.6-2.5c-0.1-0.6-0.4-1.3-0.2-1.9c0.2-0.4,0.4-0.7,0.4-1.1c0.2-0.4,0.1-0.9,0.3-1.3
		c0,0,0,0,0-0.1c-0.2,0,0,0.2-0.1,0.2c-0.6,0.4-0.6-0.1-0.7-0.5c-0.1-0.6,0.2-1.2,0-1.8c0-0.4,0-0.7,0.3-1c0.5-0.1,0.3-0.6,0.5-0.9
		c0.1-0.1,0.3-0.1,0.4,0c-0.1-0.1-0.2-0.1-0.3-0.1c-0.1,0.1-0.2,0.1-0.4,0.1c-0.1-0.1-0.1-0.1-0.1-0.2c0,0,0-0.1,0-0.1
		c0.2-0.3,0.6-0.5,0.9-0.8c0.4-0.4,0.9-0.5,1.3-0.6c0.5-0.2,1.3,0,1.1-1c-0.1-0.2-0.2-0.3-0.3-0.5c-0.6-0.7-1.4-0.9-2.1-1.4
		c-0.3-0.5,0-2.6,0.3-3c0.2-0.3,0.4-0.1,0.6,0c0.3,0.2,0.1,0.7,0.6,0.8c0.5-0.1,0.8,0.2,1.2,0.3c0.4,0.2,0.9,0,1.4,0.1
		c0.9,0.3,1.1,1,0.9,1.9c-0.1,0.4,0,0.7,0.2,1c0.1,0.2,0.1,0.4,0.1,0.6c-0.1,0.4-0.1,0.8,0,1.2c-0.2,0.6,0.2,0.9,0.5,1.3
		c0.3,0.4,0.7,0.4,1.1,0.5c0.1,0,0.2,0,0.3,0.1c0.7,0.1,1.4,0.3,2.1,0.1c0.2-0.1,0.4-0.2,0.6-0.3c0.7-0.3,1.4-0.4,2.1-0.6
		c0.9-0.1,1.9-0.1,2.8,0c0.1,0,0.2,0.1,0.2,0.1c-0.1,0.5,0.1,0.4,0.4,0.3c0.2-0.1,0.4-0.1,0.6-0.2c0.5-0.1,0.9,0.1,1.3,0.2
		c0.4,0.1,0.8,0.3,1,0.7c0.6,0.9-0.1,1.8-0.3,2.6c0,0.2-0.3,0.1-0.6,0.1c-0.6-0.2-1.1-0.3-1.7-0.5c-0.1-0.3-0.4,0-0.6-0.1
		c-0.8,0-1.5,0.5-2.4,0.4c0,0-0.1-0.1-0.1,0c0.1,0.1,0.1,0.2,0.1,0.3c0,0-0.1,0.1,0,0.1C38.7,27.5,38.8,27.5,38.9,27.5z"/>
	<path class="st24" d="M40.7,33.7c-0.3,0.1-0.3,0.4-0.4,0.6c-0.3,0.2-0.6,0.4-0.9,0.7c-0.3,0.2-0.5,0-0.7-0.2c0-0.4,0.3-0.7,0.5-1
		c0.8-1,1.1-2.2,1.7-3.3c0.4-0.4,0.2-0.9,0.4-1.4c0.2-0.7,0.5-0.9,1.1-0.7c0.6,0.3,1,0.7,0.6,1.4c-0.6,1-1.1,2-1.6,3
		C41.1,33.2,41,33.5,40.7,33.7z"/>
	<path class="st25" d="M40.9,30.5c0,1.6-1.1,2.8-2,4c-0.1,0.1-0.1,0.2-0.1,0.3c-0.1,0.7-0.8,0.9-1.1,1.4c-0.1,0.1-0.2,0.2-0.4,0.2
		c-0.3-0.1-0.4-0.2-0.5-0.5c1.7-1.3,3-2.9,3.6-5c0.1-0.2,0.1-0.5,0.1-0.7c0-0.1,0.1-0.1,0.2-0.1C40.7,30.2,40.7,30.4,40.9,30.5z"/>
	<path class="st26" d="M44.7,22.1c-0.1,0.7-0.1,1.4-0.2,2.2c-0.1,0.1-0.3,0.1-0.4,0.2c-0.3-0.1-0.4-0.3-0.5-0.6c0-0.2,0-0.4,0.1-0.6
		C44,22.8,44.2,22.2,44.7,22.1z"/>
	<path class="st27" d="M38.5,27.5c-0.1-0.1-0.1-0.1-0.2-0.2c-0.1-0.2,0-0.3,0.2-0.2c0.7,0,1.4,0,1.9-0.6c0.2-0.2,0.5,0.1,0.7,0.1
		c0.1,0.1,0.1,0.2,0,0.4c-0.8,0.1-1.6,0-2.2,0.5c-0.1,0.1-0.1,0.1-0.2,0.2C38.5,27.8,38.5,27.7,38.5,27.5z"/>
	<path class="st28" d="M40.7,30.1c-0.1,0-0.1,0.1-0.2,0.1c-0.1-0.3-0.2-0.6-0.2-0.9c-0.2-0.3,0.4-0.6,0-0.9
		c-0.1-0.1-0.1-0.3-0.2-0.4c0.8-0.1,1.1,0.2,0.8,0.9C40.7,29.3,40.7,29.7,40.7,30.1z"/>
	<path class="st29" d="M43.9,23.8c0.1,0.2,0.2,0.4,0.3,0.6c0,0.1,0,0.2,0,0.3c-0.4-0.2-0.7-0.3-1.1-0.5
		C43.2,23.7,43.4,23.6,43.9,23.8z"/>
	<path class="st30" d="M41.1,27c0-0.1,0-0.2,0-0.4c0.2,0,0.3-0.1,0.5-0.1c0.2-0.1,0.4,0,0.4,0.1c0,0.3-0.3,0.1-0.4,0.3
		C41.4,27,41.3,27,41.1,27z"/>
	<path class="st5" d="M40.7,33.7c0.3-0.3,0.2-0.7,0.6-0.9c0,0.2,0,0.3,0,0.5C41.2,33.6,41,33.7,40.7,33.7z"/>
	<path class="st23" d="M37.2,36.3c0.2,0,0.2-0.1,0.3-0.2c0.4-0.2,0.6,0,0.6,0.4c-1,0.9-2,1.7-3,2.6c-0.1,0-0.1,0-0.2,0.1
		c-0.7,0.2-1.3,0.6-2,0.9c-1.3,0.4-2.6,0.9-3.8,1.3c-0.1-0.1-0.1-0.4-0.3-0.5c-0.1-0.1-0.1,0.1-0.1,0.1c0.3,0,0.3,0.2,0.2,0.4
		c-0.9,0.1-1.7,0.3-2.6,0.4c-0.8-0.1-1.7,0-2.5,0c-1.2,0-2.4-0.2-3.5-0.8c-0.5-0.5-1.1-0.6-1.8-0.5c-0.4,0-0.9,0.3-1.1-0.3
		c-0.1,0.1-0.2,0.3-0.3,0.3c-0.8,0-1.3-0.5-2-0.8c-0.1-0.4-0.5-0.4-0.8-0.5c-0.5-0.3-1.1-0.4-1.3-1c-0.2-0.3,0-0.5,0.1-0.8
		c0.1-0.1,0.1-0.3,0.3-0.4c0.1,0,0.2-0.1,0.3-0.1c0.4,0.2,0.9,0.3,1.4,0.2c0.3,0,0.6,0.1,0.9,0.2c0.5,0.2,1.1,0,1.6,0.3
		c0.1,0.4,0.3,0.3,0.5,0.2c-0.1-0.1-0.2-0.3-0.1-0.5c0.7-0.5,1.6-0.4,2.3-0.9c1.1-0.3,1.7-1.1,2.4-1.9c0.4-0.3,0.7-0.7,0.9-1.2
		c0.2-0.4,0.4-0.8,1-0.4c0.1,0.2,0.2,0.3,0.3,0.5c0.4,0.6,0.6,1.3,1.2,1.8c0.3,0.2,0.6,0.4,0.9,0.6c0.2,0.2,0.4,0.2,0.6,0.3
		c0.1,0.1,0.2,0.2,0.3,0.3c0.2,0.2,0.4,0.4,0.3,0.7c-0.1,0-0.1,0.1-0.2,0.1c0,0.1,0.1,0.1,0.1,0.1c0,0,0-0.1,0-0.2
		c0.1-0.1,0.2-0.3,0.4-0.3c0.2,0,0.5,0.1,0.7,0.1c0.1,0,0.2,0.1,0.2,0.1c0.2,0.3,0.4,0.2,0.7,0.1c0.2,0,0.4,0,0.6,0
		c0.6,0.6,1.5,0.2,2.2,0.6c0.3,0-0.4,0.8,0.3,0.4c0.2-0.1,0.5-0.1,0.8-0.2c0.4-0.1-0.1-0.3,0-0.4c0.1-0.3,0.2-0.5,0.5-0.6
		C35.4,37,36.2,36.2,37.2,36.3z"/>
	<path class="st31" d="M17,40.6c0.6-0.5,1.4-0.4,2.1-0.3c0.4,0,1-0.1,1.1,0.6c0,0-0.1,0.1-0.1,0.1c-0.2,0.1-0.4,0.1-0.6,0.1
		c-0.3,0-0.6,0-0.8,0c-0.1,0-0.3,0-0.4,0C17.8,41.1,17.5,40.7,17,40.6z"/>
	<path class="st31" d="M20.2,40.8c1.1,0.4,2.2,0.8,3.4,0.9c0.1,0,0.1,0.1,0.1,0.1c0,0,0,0.1-0.1,0.1c-1.3,0-2.7-0.1-3.9-0.6
		C19.8,41.1,20.1,41,20.2,40.8L20.2,40.8z"/>
	<path class="st32" d="M23.7,41.9c0-0.1,0-0.1,0-0.2c0.9,0.1,1.7-0.2,2.6,0.1C25.4,42,24.5,41.9,23.7,41.9z"/>
	<path class="st33" d="M28.8,41.4c-0.1-0.6-0.7-0.2-1-0.5c0.7-0.4,0.8-0.3,1.2,0.5c0,0-0.1,0-0.1,0L28.8,41.4z"/>
	<path class="st34" d="M18.7,41.1c0.2-0.3,0.6-0.2,0.9-0.2c0.1,0.1,0.1,0.3,0,0.4C19.3,41.2,18.9,41.4,18.7,41.1z"/>
	<path class="st23" d="M19.6,41.3c0-0.1,0-0.3,0-0.4c0.2,0,0.4,0,0.6,0c0,0.3-0.2,0.4-0.5,0.5C19.7,41.3,19.6,41.3,19.6,41.3
		L19.6,41.3z"/>
	<path class="st35" d="M38.1,36.5c-0.1-0.2-0.3-0.4-0.6-0.4c0.3-0.6,0.9-0.8,1.3-1.3c0.2,0.1,0.4,0.1,0.6,0.2c0,0.4-0.7,0.5-0.6,1.1
		C38.6,36.4,38.3,36.4,38.1,36.5z"/>
	<path class="st23" d="M4.8,26.6c-0.3-0.5-0.3-1-0.2-1.5c0.4-0.6,1.2-0.8,1.7-1.4c0.2-0.1,0.4-0.1,0.6-0.1c0.4,0.1,0.8,0.4,1.3,0.2
		c0.1,0,0.2-0.1,0.3-0.1c0.5,0,1-0.2,1.6-0.1c0.1,0,0.2,0.1,0.2,0.2c0.4,0.2,0.8,0.6,0.8-0.3c0-0.5,0.4-0.6,0.8-0.7
		c1-0.1,1.8,0.5,2.7,0.7c0.4,0.1,0.7,0.3,1,0.5c0.2,0.1,0.3,0.3,0.3,0.5c0,0.3-0.3,0.5-0.1,0.8c0.1,0.3,0.3,0.5,0.5,0
		c0-0.1,0-0.3,0-0.4c0.1-0.4-0.1-0.8-0.3-1.2c0-0.5,0.5-0.8,0.6-1.2c0.1-0.1,0.1-0.2,0.2-0.2c0.1,0,0.2-0.1,0.3-0.1
		c0.3,0,0.6,0.1,0.6,0.4c0,0.5,0.4,0,0.5,0.2c0.1,0.1,0.3,0.2,0.4,0c0.4-0.5,0.4-1.2,0.8-1.7c0.1-0.1,0.2-0.1,0.3-0.1
		c0.3,0.1,0.4,0.4,0.3,0.7c0,0.4,0.2,0.6,0.6,0.6c0.5,0.3,1.1,0.3,1.7,0.5c0.4,0.3,0.7,0.5,1.1,0.7c0.7,0.4,0.6,1.2,0.8,1.9
		c0.2,1.4,0.5,2.7,0.1,4.1c-0.4,0.6-0.3,1.2-0.2,1.9c0,1.3-0.6,2.3-1.5,3.2c-0.7,0.8-1.6,1.3-2.5,1.8c-0.5,0.2-0.9,0.4-1.5,0.4
		c-0.4,0-0.8-0.1-1.1,0.2c-0.1,0.1-0.2,0.1-0.3,0.1c-1.5,0.2-3,0-4.4-0.6c-0.8-0.5-1.6-0.8-2.4-1.3c-0.9-0.7-1.7-1.5-1.9-2.7
		C8.4,32.3,8.4,32,7.9,32c-0.7-1.1-0.6-2.3-0.2-3.5c0.2-0.7,0.2-1.2-0.4-1.7C6.5,26.5,5.6,27,4.8,26.6z"/>
	<path class="st36" d="M7.7,32.8c-0.6,0-0.6-0.5-0.8-0.9c-0.8-1.1-1.1-2.3-1.8-3.5c0-0.7,0.6-0.8,1.1-1c1-0.1,0.9,0.7,1.1,1.3
		C7.4,30.2,7.9,31.5,7.7,32.8z"/>
	<path class="st37" d="M7.7,32.8c-0.2-1.4-0.4-2.7-0.7-4.1c-0.1-0.4-0.2-0.9,0-1.3c0.1-0.2,0.1-0.4,0.2-0.6c0.1-0.1,0.1-0.1,0.2,0
		C7.7,27.2,8,27,8.3,27.1c0.2,0.1,0.5,0.3,0.2,0.6C7.4,29,7.6,30.5,8.2,32c0.2,0.1,0.2,0.3,0.2,0.4c0.3,1.1,1.1,1.9,2,2.6
		c0.1,0.2,0,0.4-0.2,0.5c-0.2,0-0.3-0.2-0.5-0.3c-0.2-0.2-0.5-0.5-0.8-0.6c0-0.3-0.1-0.5-0.4-0.7C8.2,33.7,8,33.5,8,33.1
		C7.9,33,7.8,32.9,7.7,32.8z"/>
	<path class="st38" d="M4.1,22.3c0-0.2,0.2-0.4,0.4-0.4c0,0,0.1,0,0.1,0c0.2,0.1,0.2,0.3,0.3,0.5C5,22.6,5.1,22.8,5.1,23
		c0,0.2,0,0.5,0.1,0.7c0.1,0.2,0.1,0.4,0.1,0.6c-0.1,0.1-0.2,0.2-0.4,0.2c-0.5-0.2-0.6-0.6-0.6-1.1C4.2,23,4.3,22.7,4.1,22.3z"/>
	<path class="st39" d="M5,24.3c0.1-0.1,0.1-0.1,0.2-0.2c0-0.1,0.1-0.2,0.2-0.2c0.3-0.1,0.5-0.2,0.8-0.1c0,0,0.1,0.1,0.1,0.1
		c-0.1,1-1.1,0.9-1.7,1.3c0-0.1,0-0.3,0-0.4C4.6,24.4,4.8,24.4,5,24.3z"/>
	<path class="st40" d="M7.5,26.9l-0.1,0c0,0-0.1,0-0.1,0c-0.7,0-1.4-0.2-2.1,0.1c-0.3,0.2-0.6,0-0.5-0.4C5.7,26.8,6.6,26.3,7.5,26.9
		z"/>
	<path class="st41" d="M5,24.3c-0.1,0.2-0.3,0.4-0.5,0.4c-0.6-0.7-0.4-1.5-0.4-2.4c0.3,0.3,0.1,0.7,0.2,1.1
		C4.4,23.8,4.5,24.2,5,24.3z"/>
	<path class="st42" d="M4.3,20.6c0.1,0,0.3,0,0.4,0C4.9,20.7,5,20.8,5.1,21c0,0.2,0,0.3,0,0.5C5.1,21.7,5,21.8,4.8,22
		c-0.1,0-0.2,0-0.3-0.1c0,0,0,0,0,0C4.4,21.5,4.4,21,4.3,20.6z"/>
	<path class="st43" d="M7.1,27.5c0,0.4,0,0.9,0,1.3c-0.3-0.4-0.1-1.1-0.8-1.2C6.5,27.5,6.8,27.5,7.1,27.5z"/>
	<path class="st44" d="M13.3,37.6c-0.1,0.2-0.5,0.3-0.4,0.7c-0.4-0.2-0.8-0.5-1.2-0.7c-0.4-0.1-0.6-0.4-0.9-0.7
		c-0.1-0.1-0.1-0.1-0.2-0.2c0-0.1,0-0.1,0-0.2c0-0.3,0-0.5,0.2-0.7c0.4-0.1,0.7,0.2,1.1,0.4c0.3,0.3,0.5,0.7,0.8,0.9
		C12.9,37.2,13.2,37.4,13.3,37.6z"/>
	<path class="st45" d="M10.8,35.9c0,0.2,0,0.5-0.2,0.6c-0.4-0.2-0.6-0.7-0.9-1c-0.1-0.1-0.1-0.2,0-0.3c0.1,0.1,0.3,0.2,0.4,0.3
		C10.4,35.5,10.7,35.6,10.8,35.9z"/>
	<path class="st46" d="M9.7,35.2c0,0.1,0,0.2,0,0.3C9.3,35.2,9,35,8.8,34.6C9.3,34.5,9.5,34.9,9.7,35.2z"/>
	<path class="st47" d="M8,33.1c0.2,0.2,0.4,0.5,0.4,0.8C8.1,33.8,7.6,33.7,8,33.1z"/>
	<path class="st1" d="M10.8,36.9c0.4,0,0.7,0.3,0.9,0.7C11.2,37.6,10.9,37.3,10.8,36.9z"/>
	<path class="st48" d="M43.9,15.9c0,0.1,0,0.3,0,0.4c-0.4,0.1-0.6-0.2-0.8-0.4c-0.4-0.3-0.8-0.7-1.2-1c-0.7-0.3-1-0.8-0.6-1.6
		c0.1-0.3,0.1-0.6,0.1-0.8c0-0.1,0.1-0.2,0.1-0.3c0.2-0.2,0.5-0.2,0.8-0.3C43.1,13.1,43.4,14.6,43.9,15.9z"/>
	<path class="st49" d="M41.1,10.9c-0.3,0.2-0.3,0.7-0.8,0.8c-0.2-0.5,0.3-0.8,0.2-1.2c0.2-0.3,0-0.6,0.2-0.9
		c0.4,0.2,0.6,0.6,0.6,1.1C41.3,10.8,41.2,10.9,41.1,10.9z"/>
	<path class="st50" d="M41.1,10.9c0.1-0.1,0.1-0.1,0.2-0.2c0.1,0.1,0.1,0.1,0.2,0.2c0.2,0.3,0.3,0.7,0.2,1c0,0.1-0.1,0.2-0.2,0.3
		l0,0l-0.1,0c-0.3,0.1-0.3-0.1-0.4-0.3c0,0,0-0.1,0-0.1C41.1,11.5,41.1,11.2,41.1,10.9z"/>
	<path class="st51" d="M41.6,12.2c0-0.1,0-0.2,0-0.2c0.2-0.2-0.1-0.6,0.3-0.6c0.1,0.2,0.3,0.3,0.3,0.6
		C42.1,12.2,41.9,12.4,41.6,12.2z"/>
	<path class="st52" d="M41.9,11.4c-0.2,0.2,0,0.5-0.3,0.6c0-0.4,0-0.7-0.1-1.1C41.8,10.9,41.9,11.2,41.9,11.4z"/>
	<path class="st53" d="M40.7,9.6c0,0.3,0.1,0.6-0.2,0.9c0-0.3,0-0.7,0-1C40.6,9.4,40.7,9.5,40.7,9.6z"/>
	<path class="st54" d="M39,8.3c0.1-0.1,0.3-0.2,0.4-0.3c1.1,0.8,0.7,1.9,0.5,2.9c-0.1,0.6-0.4,1.2-0.7,1.8c0.9,0.1,1.1-1,1.8-1
		c0,0,0,0,0,0c0.5,1.1,0,2.1-0.5,3c-0.4,0.7-1,1.3-1.5,2c-0.1,0.1-0.2,0.1-0.3,0.2c-1.7,1.1-3.4,1.9-5.4,1.9
		c-1.3-0.3-2.5-0.8-3.6-1.6c-1-1-1.3-2.2-0.8-3.5c0-0.1,0.1-0.2,0.1-0.3c0.2-0.4,0.5-0.7,0.7-1.1c0.2-0.2,0.4-0.4,0.5-0.5
		c0.8-0.8,1.7-1.2,2.7-1.5c0.7-0.3,1.5-0.2,2.3-0.2C36.8,9.9,37.9,9.2,39,8.3z"/>
	<path class="st17" d="M39,8.3c-0.8,1.3-2.2,1.8-3.6,1.9c-0.8,0.1-1.6,0.1-2.4,0.2c-0.1,0-0.2,0.1-0.2,0c-0.1-0.2,0.1-0.3,0.2-0.4
		c0.9-0.4,1.9-0.2,2.9-0.4c1.1-0.2,2.1-0.6,2.7-1.6C38.7,8.2,38.8,8.3,39,8.3z"/>
	<path class="st55" d="M44.7,22.1c-0.3,0.4-0.6,0.7-0.8,1.1c-0.1,0.2-0.3,0.4-0.6,0.3c-0.1-0.1-0.2-0.3-0.1-0.4
		c0-0.2,0.1-0.4,0.2-0.5c0.2-0.3,0.1-0.3-0.2-0.3c-0.1-0.1-0.2-0.2-0.2-0.3c-0.1-0.4,0.2-0.8,0-1.3c-0.1-0.3-0.4-0.4-0.7-0.5
		c-1.2-0.1-2.4,0-3.6-0.1c-0.4,0-0.7,0-1.1-0.1c-0.5-0.2-1-0.1-1.5-0.3c-0.1-0.1-0.2-0.1-0.2-0.2c0-0.3,0.2-0.5,0.3-0.7
		c0.8-0.9,2-1.1,2.8-2l0,0c0.7-0.5,1.1-1.3,1.8-1.8c1.1,0.4,1.3,1.5,1.6,2.5c-0.2,0.4,0.1,0.7,0.3,0.9c0.1,0.1,0.1,0.1,0.2,0.2
		c0.3,0.1,0.2-0.2,0.3-0.3c0.2-0.4,0.3-1,1-1c0,0.2,0,0.3,0.2,0.4c0,0.2,0,0.4,0,0.6c0.1,0.6-0.1,1.3,0.2,1.9
		C44.9,20.8,44.8,21.5,44.7,22.1z"/>
	<path class="st56" d="M44.1,17.2c-0.5,0.2-0.5,0.7-0.8,1.1c-0.1,0.1-0.3,0.1-0.4,0.1c-0.2-0.2-0.3-0.4-0.4-0.7c0-0.4-0.2-0.7-0.2-1
		c0.2-0.3-0.1-0.9,0.6-1c0.5,0.4,0.9,0.8,1.3,1.4C44.1,17,44.1,17.1,44.1,17.2z"/>
	<path class="st57" d="M44.1,16.9c-0.6-0.3-0.9-0.8-1.3-1.3c0.1-0.1,0.2-0.1,0.4,0c0.2,0.2,0.5,0.4,0.7,0.6
		C44.2,16.4,44.1,16.7,44.1,16.9z"/>
	<path class="st58" d="M44.6,20.2c-0.4-0.6-0.5-1.3-0.2-1.9c0.1,0,0.1,0,0.2,0C44.5,18.9,44.5,19.5,44.6,20.2z"/>
	<path class="st54" d="M20.4,9.8c0,0.1,0,0.2,0,0.3c0.1,0.8,0.1,1.5,0.1,2.3c0,0.3,0,0.6-0.1,0.9c-0.2,0.8-0.6,1.6-1.2,2.2
		c-2.3,2.5-4.8,2.1-7.9,0.1c-0.6-0.8-1.7-1.2-2.1-2.1c-0.6-0.5-1.3-1-2-1.2c-0.8-0.2-0.6-0.6-0.3-1c0.9-1.4,1.9-2.7,3.1-3.9
		c0.9-0.9,1.7-1,2.7-0.2c0.3,0.2,0.6,0.4,0.9,0.6c1.4,0.5,2.5,1.6,3.9,2c0.2,0,0.3,0.1,0.5,0.1c0.5,0,1,0.1,1.5-0.2
		C19.9,9.3,20.1,9.6,20.4,9.8z"/>
	<path class="st59" d="M7.5,13.1c0.6-0.2,0.9,0.3,1.3,0.4c1,0.3,1.6,1.4,2.5,1.8c1,0.8,2.1,1.3,3.3,1.6c0.2,0.1,0.5,0.1,0.6,0.3
		c0.2,0.3,0.3,0.6-0.1,0.8c-0.2-0.2-0.5-0.1-0.8-0.2c-0.1,0,0,0.1,0,0.1c0.3-0.1,0.5-0.1,0.8,0.1c0.1,0.2,0,0.3-0.1,0.4
		c-0.7,0.4-1.3,0.1-2,0c-0.2,0-0.3-0.1-0.5-0.2c-0.2-0.2-0.1-0.4,0-0.5c0-0.2,0.3,0.1,0.2-0.2c-0.4,0-0.9-0.6-1.3,0
		c-0.8,0.2-1.5-0.2-2.2-0.1c-1.3-0.1-2.6,0-3.8-0.8c-0.4-0.5-0.1-0.9,0.2-1.3C5.7,15.1,6.1,15,6,14.6c0-0.3,0.2-0.4,0.4-0.6
		c0.3-0.3,0.6-0.7,1-0.9C7.4,13.1,7.4,13.1,7.5,13.1z"/>
	<path class="st60" d="M4.9,20.9c0.1-0.2-0.1-0.2-0.2-0.3c-0.5-1,0-1.2,0.9-1.1c0.2,0,0.5,0,0.7,0c0.3,0.1,0.6,0.1,0.8,0.1
		c0.3,0.1,0.6,0.2,0.9,0c0.1,0,0.2-0.1,0.3-0.1c0.6-0.1,1.1,0,1.5,0.4c0.1,0.1,0.2,0.3,0.2,0.5c0.1,0.5,0.3,0.9,0.6,1.4
		c0.4,0.8,0.3,1-0.6,1.1c-0.4,0-0.7,0-1.1,0C7.2,23.3,6,22.2,4.9,20.9z"/>
	<path class="st61" d="M7.1,18.5c-0.7-0.1-1.4-0.2-2.1-0.2c-0.2,0-0.4,0-0.4-0.2c0-0.3,0.3-0.2,0.5-0.2c0.3-0.2,0.7-0.1,1-0.1
		c0.5,0,1,0.2,1.5,0.2c1-0.1,2,0.2,3,0.2c0.4,0,0.7,0,1.1,0.1c0.2,0.1,0.3,0.2,0.4,0.4c0,0.1,0,0.2-0.1,0.3
		c-0.4,0.2-0.8,0.2-1.2,0.2c-0.2,0-0.5,0-0.7-0.1C9.1,18.8,8,19.1,7.1,18.5z"/>
	<path class="st15" d="M7.1,18.5c1,0.1,2,0.1,3,0.4c-0.4,0.4-0.8,0.2-1.3,0.3c-0.4,0-0.7,0.1-0.7,0.6l0,0.1c-0.3,0.1-0.6,0.1-0.9,0
		c-0.3-0.1-0.6-0.1-0.9-0.2c0.5-0.1,0.5,0,0.4-0.5C6.8,18.9,7,18.7,7.1,18.5z"/>
	<path class="st62" d="M11.1,15.5c-1-0.4-1.6-1.3-2.3-2c0.1-0.1,0.3-0.1,0.4-0.2c0.8,0.5,1.5,1.2,2.2,1.9
		C11.5,15.4,11.4,15.5,11.1,15.5z"/>
	<path class="st63" d="M5.4,16.7c1.3,0.2,2.5,0.5,3.8,0.5c0.1,0.2,0.1,0.3,0,0.5c-0.9,0.1-1.9,0-2.8-0.2c-0.4-0.1-0.9,0.1-1-0.5
		C5.4,16.9,5.4,16.8,5.4,16.7z"/>
	<path class="st64" d="M5.8,14c-0.4-0.7,0.2-1.1,0.5-1.6c0.1-0.3,0.6,0,0.8,0.2c0,0.2-0.2,0.4-0.2,0.7c-0.1,0.2-0.2,0.3-0.3,0.5
		C6.5,13.9,6.3,14,6.1,14C6,14,6,13.8,5.8,14C5.9,13.9,5.8,14,5.8,14z"/>
	<path class="st65" d="M5.4,16.9c0.3,0.3,0.7,0.1,1.1,0.2c0.1,0.3,0.2,0.5-0.1,0.7c-0.1,0-0.3,0-0.4,0c-0.3-0.1-0.6-0.1-0.8-0.2
		c-0.2-0.1-0.4-0.2-0.4-0.4C4.8,16.8,5.2,17,5.4,16.9z"/>
	<path class="st66" d="M6.7,13.3c0-0.3,0.1-0.6,0.4-0.7c0.3,0,0.5,0.1,0.4,0.4c0,0,0,0,0,0C7.3,13.2,7.1,13.5,6.7,13.3z"/>
	<path class="st67" d="M6,13.9c0.1-0.1,0.3-0.1,0.4-0.2c0.2,0.2,0.1,0.3,0,0.5c-0.1,0.1-0.3,0.3-0.4,0.4c-0.3-0.1-0.2-0.4-0.2-0.6
		c0,0,0-0.1,0-0.1C5.9,13.9,5.9,13.9,6,13.9z"/>
	<path class="st68" d="M5.1,17.6c0.3,0,0.6-0.1,0.9,0.2c0.1,0,0.1,0.1,0.1,0.1c0,0,0,0.1-0.1,0.1c-0.3-0.1-0.6-0.1-0.9-0.2
		C5.2,17.7,5.2,17.7,5.1,17.6z"/>
	<path class="st69" d="M17.9,10c-1.6-0.4-3-1.3-4.3-2.3c0-0.1,0-0.2,0-0.3c0.1-0.1,0.1-0.1,0.2,0c1.3,0.9,2.7,1.6,4.1,2.2
		C18,9.8,18,9.9,17.9,10z"/>
	<path class="st70" d="M13.8,7.4l-0.1,0l-0.1,0c-0.1-0.2-0.3-0.4-0.4-0.6c0.2-0.2,0.4-0.3,0.6-0.1C14,6.9,13.9,7.2,13.8,7.4z"/>
	<path class="st71" d="M19.4,21.3c-0.1,0-0.2,0-0.3,0c-0.3,0.2-0.3,0.6-0.3,1c-0.1,0.6-0.4,0.3-0.7,0.1c-0.1-0.2-0.3-0.4-0.2-0.6
		c0-0.5-0.3-0.4-0.6-0.5C16.9,21,17,20.4,16.8,20c-0.1-0.4-0.3-0.8-0.3-1.2c0-0.2-0.1-0.4-0.1-0.6c-0.1-0.7,0.1-1.1,0.8-1.3
		c0.5-0.1,0.9-0.5,1.4-0.7c0.4,0,0.7,0,1.1,0.1c0.3,0.2,0.7,0.2,1.1,0.5c0.1,0.2,0,0.3-0.2,0.4c-0.1,0-0.1,0-0.1,0.1c0,0,0,0,0.1,0
		c0.3,0,0.4-0.2,0.4-0.5c0-0.4,0.4-0.5,0.6-0.7c0.2-0.2,0.4-0.4,0.7-0.4c0.1,0,0.2-0.1,0.3-0.2c0.1-0.1,0.2-0.1,0.2-0.2
		c0,0,0.1-0.1,0.1-0.1c-0.1-0.1-0.1,0-0.1,0.1c-0.2,0.1-0.3,0.3-0.6,0.3c-0.5-0.3-0.6-0.8-0.6-1.3c0-0.1,0.1-0.2,0.2-0.3
		c0.6-1.1,0.9-2.2,0.8-3.5c0-0.3-0.1-0.6,0.2-0.7c0.3,0,0.7,0,1,0c0.1,0.1,0.1,0.1,0.2,0.2c0.5,0.2,1.2-0.3,1.6,0.4
		c-0.2,0.3-0.5,0.2-0.7,0.2c0.7,0.2,1.3-0.5,2-0.3c0.4,0.2,0.8,0.4,1.3,0.7c0.7,0.4,1.2,0.9,1.6,1.4c0.1,0.5-0.3,0.9-0.4,1.4l0,0
		c-0.2,0.2-0.3,0.6-0.6,0.7c-0.3,0.1-0.7-0.1-1,0.2c-0.1,0.2-0.3,0.3-0.5,0.5c-0.4,0.5-0.6,0.9-0.1,1.4c0.2,0.3,0.5,0.7,0.2,1.1
		c0,0.2-0.1,0.4-0.1,0.7c-0.6-0.4,0-1.3-0.9-1.5c0.2,1-1,1.9-0.3,2.9c-0.3,0.2-0.5,0.2-0.8,0.1c-2-0.3-3.8,0-5.3,1.5
		C19.7,21.4,19.6,21.3,19.4,21.3z"/>
	<path class="st72" d="M22.7,9.6c0.2,1.6,0.1,3.1-0.9,4.5c-0.1-0.1-0.1-0.1-0.2-0.2c-0.1-0.1-0.1-0.3-0.1-0.4c0-0.1,0-0.2,0.1-0.3
		c0.6-1.1,0.6-2.2,0.7-3.4c0.1-0.6-0.3-1.1-0.4-1.7c0-0.1,0.1-0.2,0.2-0.2C22.4,8.4,22.5,9,22.7,9.6z"/>
	<path class="st73" d="M22.1,9.8c0.6,1.4,0.1,2.5-0.6,3.7c-0.2-0.2-0.2-0.4-0.3-0.6c0-0.5,0.2-0.9,0.2-1.3c0-0.5-0.1-0.8-0.5-1
		c-0.1-0.1-0.1-0.1-0.1-0.2c0-0.1,0-0.1,0-0.1C21.3,10.1,21.7,10,22.1,9.8z"/>
	<path class="st14" d="M32.9,10.1c0,0.1-0.2,0.3,0,0.4c-0.9,0.5-1.8,0.8-2.6,1.5c-0.1,0-0.2-0.1-0.3-0.3
		C30.8,10.9,31.8,10.4,32.9,10.1z"/>
	<path class="st74" d="M23.7,9.8c0-0.1,0-0.1,0-0.2c1,0,2.1-0.2,3,0.4c-0.7,0.5-1.5,0.5-2.4,0.4c0.3-0.3,0.8,0,1.1-0.4
		C24.9,9.7,24.2,10.1,23.7,9.8z"/>
	<path class="st75" d="M17.9,10c0-0.1,0-0.2,0-0.4c0.8,0,1.6-0.1,2.2-0.8c0.1,0.4,0.2,0.7,0.3,1C19.5,9.5,18.7,10.4,17.9,10z"/>
	<path class="st76" d="M20.3,12.4c0.1-0.8-0.3-1.6,0.2-2.4c0,0.1,0,0.1,0.1,0.2c0.4,0.3,0.5,0.8,0.5,1.2c0,0.3,0,0.7-0.1,1
		c0,0.1-0.1,0.2-0.2,0.2C20.4,12.7,20.3,12.6,20.3,12.4z"/>
	<path class="st74" d="M29.5,12.3c-0.5-0.5-1-1-1.5-1.6c0.8,0.1,1.3,0.7,1.7,1.3C29.8,12.2,29.7,12.2,29.5,12.3z"/>
	<path class="st77" d="M29.5,12.3c0.1-0.1,0.1-0.2,0.2-0.3c0.1,0,0.1,0,0.2,0c0.2,0.2,0.1,0.3,0,0.5c-0.2,0.4-0.2,0.8-0.7,1
		C28.7,13,29.5,12.7,29.5,12.3z"/>
	<path class="st78" d="M21.6,6.5c-0.2,0.3-0.4,0.5-0.8,0.3c0,0-0.1-0.1-0.1-0.2C21,6.4,21.3,6.3,21.6,6.5z"/>
	<path class="st79" d="M22,7.9C21.9,8,21.8,8,21.8,8.1c-0.3-0.2-0.6-0.4-0.6-0.9C21.6,7.2,21.8,7.6,22,7.9z"/>
	<path class="st80" d="M20.7,11.6c-0.1-0.4,0.1-0.9-0.2-1.3c0.1,0,0.3,0,0.4,0c0,0.1,0,0.1,0,0.2c0.2,0.2,0.2,0.5,0.2,0.7
		c0,0.1-0.1,0.2-0.1,0.3C20.9,11.6,20.8,11.6,20.7,11.6z"/>
	<path class="st81" d="M20.9,9.6c-0.1-0.1-0.2-0.2-0.1-0.2c0-0.1,0.1-0.2,0.2-0.2c0.1,0,0.3,0.1,0.2,0.2C21.2,9.5,21,9.6,20.9,9.6z"
		/>
	<path class="st82" d="M29.9,12.5c0-0.2,0-0.3,0-0.5c0.1-0.1,0.1-0.1,0.2-0.2c0.1,0.1,0.2,0.2,0.3,0.3
		C30.2,12.2,30.1,12.3,29.9,12.5z"/>
	<path class="st83" d="M43.2,20.5c0.1,0.5-0.1,0.9-0.2,1.4c-0.1,0.4-0.1,0.8-0.5,1c-0.2,0.5,0.3,0.3,0.5,0.4c0.1,0,0.2,0.1,0.2,0.1
		c0.2-0.1,0.4-0.1,0.6-0.2c0,0.2,0,0.4,0,0.6c-0.3,0-0.6,0.2-0.8,0.4c-0.4-0.1-0.9-0.2-1.3-0.3c-0.3,0.1-0.6,0.2-0.9,0
		c-1.1-0.2-2.1,0-3.2,0c-0.3,0.1-0.5,0.2-0.7-0.1c0-0.1,0.1-0.2,0.2-0.2c-0.8-0.4-1.4-1-1.7-1.9c0-0.1-0.2-0.3-0.3-0.3
		c-1.1,0-2.2-0.4-3.3,0.1c-0.1,0.2-0.3,0.3-0.5,0.2c-0.2-0.1-0.1-0.4-0.3-0.5c0-0.2-0.1-0.4-0.1-0.6c-0.2-0.2-0.3-0.4-0.2-0.7
		c0.2-0.2,0.3-0.2,0.5-0.2c0.1,0,0.2,0.1,0.3,0.1c0.4,0.3,0.8,0.1,1.1,0c1.2-0.1,2.4,0,3.6,0c0.4,0,0.9,0,1.3,0.1c0.3,0,0.6,0,0.9,0
		c0.8,0.2,1.6,0.1,2.4,0.1C41.8,20.1,42.5,20,43.2,20.5z"/>
	<path class="st67" d="M21.9,23.2c-0.5-0.2-1.1-0.4-1.6-0.5c-0.2-0.1-0.2-0.3-0.2-0.5c0-0.2-0.1-0.5-0.1-0.7
		c0.1-0.5,0.5-0.7,0.8-0.9c0.3,0,0.5-0.1,0.8-0.3c0.7-0.3,1.2-0.5,2.1-0.2c0.9,0.3,1.9,0.3,2.8,0.6c1.4,0.4,1.6,0.9,0.8,2.2
		c-0.4,0.2-0.9,0.1-1.2,0.6c-0.4,0.1-0.7,0.2-0.9,0.6l0,0c-0.2,0.4-0.2,0.9-0.5,1.2c-0.2,0.3-0.5,0.6-0.8,0.1
		c-0.4-0.4-0.3-1.1-0.7-1.5C22.7,23.6,22.4,23.3,21.9,23.2z"/>
	<path class="st16" d="M20.2,22.1c0,0.2,0,0.4,0,0.6c-1.5,0.2-0.5-0.9-0.8-1.4c1-1.2,2.4-1.6,3.9-1.9c0.9-0.2,1.8,0.1,2.7,0.2
		c0.8,0.3,1.7,0.6,2.2,1.4c-0.1,0.2-0.2,0.5,0.2,0.4c0.4,1,0.4,1-1.3,1.4c0-0.3,0-0.7,0.1-0.9c0.3-0.8-0.2-0.8-0.8-1
		c-1.1-0.4-2.4-0.2-3.5-0.8c-0.3-0.1-1.1,0-1.5,0.5c-0.2-0.2-0.4,0-0.6,0c-0.3,0.3-0.6,0.6-0.9,0.9C20,21.7,20,22,20.2,22.1z"/>
	<path class="st8" d="M23.7,25.3c0.3,0.2,0.5,0.1,0.7-0.2c0.2-0.4,0.3-0.8,0.6-1c0,0.1,0,0.1,0,0.2c0.1,0.2,0.2,0.4,0.1,0.7
		c-0.4,0.4-0.5,0.9-0.4,1.5c0.1,1-0.2,2,0.2,2.9c0.1,0.5,0.2,1-0.1,1.5c-0.2,0.7,0.3,1.4,0.2,2.1C25,32.9,25,33,25,33
		c0,0.1,0,0.1,0,0.1c-0.2,0.2-0.4,0.3-0.7,0.2c-0.4-0.4-0.5-0.1-0.6,0.3c-0.2,0.5-0.4,1.1-1,1.3c-0.3,0.1-0.5,0.1-0.5-0.3
		c0.8-0.9,1.3-1.8,1.5-3c0-0.6-0.2-1.3,0.1-1.9c0.3-1,0.2-2.1,0-3.2C23.7,26.1,23.7,25.7,23.7,25.3z"/>
	<path class="st31" d="M27.5,14.4c0.1-1,0.7-0.4,1.1-0.2c0.1,0.1,0.2,0.2,0.2,0.4c-0.1,0.4-0.2,0.8,0,1.2c0.4,0.6,0.5,1.3,1.1,1.7
		c0.1,0.1,0.1,0.2,0.1,0.3c0,0-0.1,0.1-0.1,0.1c-0.4,0.4-0.8,0.4-1.3,0.2c-0.4-0.5-1-0.9-1-1.6c0.3-0.4-0.1-0.6-0.3-0.9
		C27.2,15.1,27.3,14.7,27.5,14.4z"/>
	<path class="st84" d="M29.3,37.4c-0.1,0-0.1-0.1-0.2-0.1c-0.1-0.2,0.1-0.4,0.3-0.5c0.6,0.1,1.3,0.2,1.9,0.3c0.5,0.1,1,0.1,1.5,0
		c0.3-0.2,0.8,0.1,1.1-0.3c0.2-0.2,0.4-0.2,0.7-0.1c0.8-0.2,1.5-0.7,2.3-1c0.2,0.1,0.3,0.3,0.5,0.4c-0.9,0.4-1.9,0.8-2.8,1.1
		c-1.3,0.7-2.6,0.4-3.9,0.2c-0.2,0-0.4,0-0.6-0.1C29.7,37.5,29.5,37.6,29.3,37.4z"/>
	<path class="st85" d="M29.3,36.9c-0.1,0.2-0.2,0.3-0.3,0.5c-0.3,0.1-0.5,0.2-0.7-0.2c-0.3-0.1-0.5-0.3-0.8-0.4
		c-0.1-0.1-0.2-0.2-0.2-0.3c-0.2-0.3-0.4-0.2-0.6-0.2c-0.2-0.3-0.6-0.4-0.9-0.6c-0.2-0.3-0.1-0.5,0.1-0.6c0.2-0.2,0.4,0,0.5,0.2
		c0.1,0.1,0.3,0.2,0.4,0.2c0.1,0,0.2,0.1,0.2,0.2C27.9,36,28.5,36.7,29.3,36.9z"/>
	<path class="st86" d="M26.5,35.2c-0.5-0.2-0.7,0-0.7,0.5c-0.7-0.5-0.9-1.3-1.3-2c0.1-0.2,0.3-0.5,0.5-0.7c0-0.1,0-0.1,0-0.2
		C25.5,33.7,26,34.4,26.5,35.2z"/>
	<path class="st87" d="M29.5,30.7c0-0.2-0.2-0.4,0.1-0.4c0.4-0.1,0.8,0.1,0.9,0.4c0.2,0.4,0.2,0.9-0.1,1.2c-0.3,0.4-0.7,0.6-1.2,0.3
		c0.1-0.4,0.6-0.1,0.7-0.4C29.8,31.4,29.8,31,29.5,30.7z"/>
	<path class="st88" d="M27.7,16.3c0,0.7,0.8,1,0.9,1.7c-0.5,0.1-0.8-0.5-1.3-0.5c0.1-0.4-0.2-0.7-0.4-1c-0.2-0.1-0.2-0.2-0.2-0.4
		c0.3-0.3,0.5,0,0.7,0.1C27.6,16.2,27.7,16.2,27.7,16.3z"/>
	<path class="st89" d="M24.6,29.4c-0.2-1.1-0.1-2.2,0-3.2c0.1-0.1,0.1-0.1,0.2,0c0.3,0.5,0,1,0,1.5c0,0.2-0.3,0.8,0.4,0.6
		c0.2,0.3,0.1,0.7,0.1,1C25.1,29.6,24.8,29.6,24.6,29.4z"/>
	<path class="st90" d="M31.6,25.6c-0.1,0.3,0.4,0.4,0.4,0.6c-0.6,0.2-1.2-0.3-1.7-0.2l0,0c0.2-0.3-1-0.9,0.2-0.9
		C31,25,31.3,25.3,31.6,25.6z"/>
	<path class="st91" d="M31,21.2c0.1,0.1,0.1,0.3,0.2,0.4c0.5,0.3,0.8,0.9,0.9,1.5c0,0.1,0,0.2,0,0.3c-0.1,0.2-0.3,0.3-0.5,0.3
		c-0.4-0.3-0.5-0.7-0.6-1.1C31,22.1,30.8,21.7,31,21.2z"/>
	<path class="st92" d="M35.3,24.7c-0.8,0.1-1.6,0.1-2.4-0.2c0.2-0.3,0.5-0.3,0.8-0.4c0.2-0.1,0.4-0.2,0.6-0.2
		c0.3-0.1,0.5-0.1,0.8,0.1C35,24.3,35.3,24.4,35.3,24.7z"/>
	<path class="st93" d="M31.6,25.6c-0.4,0.1-0.8-0.1-1.1-0.4c-0.1-0.1-0.3-0.3-0.4-0.4c0.6-0.3,1.1,0,1.7,0.2c0.1,0,0.2,0,0.3,0
		c0.1,0.4-0.3,0.3-0.4,0.4C31.6,25.4,31.6,25.5,31.6,25.6z"/>
	<path class="st94" d="M40.3,28.4c0.4,0.3,0.2,0.6,0,0.9c-0.2,0.1-0.2,0.4-0.5,0.3c-0.3-0.1-0.1-0.4-0.1-0.7
		C39.6,28.4,39.9,28.4,40.3,28.4z"/>
	<path class="st31" d="M30.8,19.7c0-0.2-0.7-1.8-0.9-1.9c0,0,0,0,0,0c0.6-0.3,1,0.1,1.2,0.5c0.3,0.5,0.3,1.1-0.2,1.5
		C30.9,19.8,30.8,19.7,30.8,19.7z"/>
	<path class="st92" d="M37,23.7c0.2,0.2,0.5,0.1,0.7,0.2c-0.7,0.2-1.3,0.4-2,0.6c-0.1-0.1-0.1-0.3-0.1-0.5
		C36.1,23.6,36.5,23.4,37,23.7z"/>
	<path class="st95" d="M31.7,23.6c0.1,0,0.3-0.1,0.4-0.1c0.3,0.1,0.5,0.3,0.8,0.5C33,24,33,24.1,33,24.2c0,0.2-0.2,0.2-0.3,0.3
		c-0.4-0.1-1,0-1.1-0.6C31.5,23.8,31.5,23.7,31.7,23.6z"/>
	<path class="st96" d="M31.6,25.3c0.1-0.1,0.3-0.3,0.4-0.4c0.1,0.1,0.1,0.1,0.2,0.2c0.2,0.2,0.5,0,0.6,0.2
		C32.5,26.2,32.1,25.7,31.6,25.3z"/>
	<path class="st97" d="M29.5,30.7c0.8,0.1,0.7,0.5,0.4,1.1c-0.1-0.1-0.3-0.1-0.4-0.2c0-0.2,0-0.3-0.2-0.5
		C29,30.9,29.3,30.8,29.5,30.7z"/>
	<path class="st98" d="M24.6,29.4c0.2,0,0.4,0,0.6,0c0.1,0,0.1,0.1,0.1,0.1c0,0,0,0.1-0.1,0.1c0,0.4,0.1,0.8-0.4,1.1
		C24.7,30.3,24.7,29.9,24.6,29.4z"/>
	<path class="st99" d="M34.4,36.9c-0.2,0-0.4,0-0.7,0.1c-0.4,0-0.8,0-1.2,0C33.2,37,33.8,36.4,34.4,36.9z"/>
	<path class="st100" d="M40.9,23.9c0.3,0,0.6,0,0.9,0c-0.4,0.5-1,0.4-1.7,0.4C40.5,24.1,40.7,24,40.9,23.9z"/>
	<path class="st67" d="M28.4,21.4c-0.2,0.2-0.5,0.6-0.7,0.2c-0.2-0.3,0.1-0.6,0.5-0.6C28.4,21.1,28.4,21.3,28.4,21.4z"/>
	<path class="st101" d="M31.8,24.9c-0.6-0.1-1.1-0.1-1.7-0.2C30.8,24.1,31.3,24.4,31.8,24.9z"/>
	<path class="st102" d="M31.7,23.6c0,0.1,0,0.2,0,0.3c-0.3-0.4-1.1-0.6-0.6-1.3C31.2,22.9,31.4,23.2,31.7,23.6z"/>
	<path class="st103" d="M25.9,33.9c0.1-0.5,0.3-0.7,0.7-0.8C26.6,33.6,26.3,33.8,25.9,33.9z"/>
	<path class="st104" d="M25,24.9c0-0.2,0-0.4,0-0.6c0.1,0,0.3,0,0.4,0l0,0c-0.2,0.3,0.4,0.9-0.4,0.9C24.9,25.1,24.9,25,25,24.9
		C24.9,24.9,24.9,24.9,25,24.9z"/>
	<path class="st105" d="M34.6,28.4c0.1-0.3,0.3-0.6,0.6-0.3c0.3,0.3,0.1,0.6-0.3,0.7C34.7,28.7,34.6,28.6,34.6,28.4z"/>
	<path class="st106" d="M35.7,24.1c0,0.1,0,0.2,0,0.4c-0.1,0.1-0.3,0.2-0.4,0.3c-0.1-0.2-0.5-0.3-0.2-0.6
		C35.3,23.9,35.5,23.9,35.7,24.1z"/>
	<path class="st107" d="M25.2,29.6c0-0.1,0-0.1,0-0.2c0-0.4,0-0.7,0-1.1c0,0,0-0.1,0-0.1c0,0,0.1-0.1,0.1-0.1
		C25.4,28.7,25.6,29.2,25.2,29.6z"/>
	<path class="st108" d="M34.6,28.4c0.1,0.1,0.2,0.2,0.3,0.4c-0.1,0.2-0.1,0.6-0.4,0.3C34.2,28.8,34.4,28.6,34.6,28.4z"/>
	<path class="st109" d="M25,24.9c0,0.1,0,0.2,0,0.2c-0.1,0.4-0.1,0.7-0.2,1.1c-0.1,0-0.1,0-0.2,0C24.5,25.7,24.6,25.2,25,24.9z"/>
	<path class="st110" d="M43.5,26.8c-0.3,0.1-0.5,0.1-0.6-0.1c0-0.1,0-0.3,0-0.3C43.2,26.4,43.4,26.5,43.5,26.8z"/>
	<path class="st111" d="M27.1,35.6c-0.1,0-0.2,0-0.2-0.2c0-0.2,0.1-0.4,0.4-0.4c0.1,0,0.1,0.1,0.2,0.2
		C27.4,35.4,27.2,35.5,27.1,35.6z"/>
	<path class="st112" d="M32.7,37.2c-0.5,0.3-1,0.3-1.5,0C31.7,37.2,32.2,37.2,32.7,37.2z"/>
	<path class="st113" d="M38.5,27.1c-0.1,0.1-0.1,0.1-0.2,0.2c-0.2-0.1-0.4-0.2-0.3-0.4c0-0.1,0.1-0.2,0.2-0.2
		C38.5,26.6,38.5,26.9,38.5,27.1z"/>
	<path class="st8" d="M25,24.1c0.1-0.6,0.5-0.6,0.9-0.6C25.6,23.6,25.3,23.9,25,24.1z"/>
	<path class="st104" d="M25.4,24.3c0.4-0.4,0.6,0,1,0.1C26,24.6,25.7,24.4,25.4,24.3C25.4,24.3,25.4,24.3,25.4,24.3z"/>
	<path class="st114" d="M38,33.4c0.1,0.1,0.2,0.3,0.2,0.3c-0.1,0.1-0.2,0.2-0.3,0.2c0,0-0.2-0.1-0.2-0.2
		C37.8,33.6,37.9,33.5,38,33.4z"/>
	<path class="st106" d="M32.7,24.5c0.1-0.1,0.2-0.1,0.3-0.2c0.3-0.2,0.6-0.2,0.8,0.1c-0.3,0.3-0.6,0.1-0.9,0.2
		C32.9,24.5,32.8,24.5,32.7,24.5C32.8,24.5,32.7,24.5,32.7,24.5z"/>
	<path class="st115" d="M30.3,26c0.1,0.2,0.3,0.4,0,0.6c-0.2,0.1-0.3,0-0.3-0.1C29.9,26.1,30.1,26.1,30.3,26
		C30.3,26,30.3,26,30.3,26z"/>
	<path class="st71" d="M27.4,19.5c0-0.1-0.1-0.2-0.1-0.2c0.1-0.1,0.2-0.2,0.4-0.2c0.1,0,0.2,0.1,0.1,0.2
		C27.6,19.4,27.5,19.4,27.4,19.5z"/>
	<path class="st116" d="M32.9,25.3c-0.2,0-0.5,0-0.6-0.2c0.3,0,0.6-0.1,0.8,0C33.3,25.3,33,25.3,32.9,25.3z"/>
	<path class="st117" d="M38.5,27.5c0,0.1,0,0.2,0.2,0.2C38.5,28,38.3,28,38,27.9C38.1,27.6,38.3,27.6,38.5,27.5z"/>
	<path class="st118" d="M30.8,20c-0.1,0.2,0.1,0.4,0.1,0.6c-0.6-0.2-0.4-0.5-0.2-0.9c0,0,0,0,0,0C30.9,19.8,30.9,19.8,30.8,20
		C30.9,19.9,30.8,20,30.8,20z"/>
	<path class="st119" d="M29.3,31.2c0.1,0,0.3-0.3,0.4,0c0.1,0.2,0,0.4-0.2,0.5C29.3,31.5,29.3,31.4,29.3,31.2z"/>
	<path class="st120" d="M42.6,29.5c-0.1-0.1-0.1-0.2-0.1-0.3c0-0.1,0.1-0.1,0.2-0.2c0.1,0.1,0.2,0.1,0.2,0.2
		C42.8,29.4,42.7,29.4,42.6,29.5z"/>
	<path class="st121" d="M12.5,36.3c1.5,0.6,3.1,0.7,4.7,0.6c0.4,0.2,0.9,0.1,1.3,0.2c-0.3-0.3-1,0.4-1.1-0.4c0.3-0.1,0.6-0.1,0.8,0
		c0.5-0.2,1-0.3,1.5-0.5c-0.1,0.4,0.4,0.3,0.5,0.6c-0.6,0.7-1.7,0.4-2.4,0.9c-0.7,0.1-1.4,0.1-2.2,0c-0.3-0.1-0.6-0.1-0.9-0.2
		c-0.5,0.2-0.9-0.2-1.3-0.2c-0.1,0-0.1,0-0.2,0c-0.2,0.1-0.4,0-0.5-0.1c-0.2-0.2-0.5-0.3-0.6-0.6C12.2,36.3,12.3,36.2,12.5,36.3z"/>
	<path class="st122" d="M20.3,36.8c-0.4,0-0.6-0.1-0.5-0.6c0.8-0.5,1.7-1,2.4-1.6c0.1,0.2,0.3,0.2,0.5,0.3
		C22.1,35.8,21.4,36.6,20.3,36.8z"/>
	<path class="st123" d="M34,37.8c0.2,0.3,0.6,0.3,0.8,0.8c-0.7-0.3-1.4-0.2-1.9,0.1c-0.2,0.1-0.3,0.4-0.5,0.1
		c-0.3-0.3,0.1-0.4,0.3-0.5c0.1-0.1,0.1-0.2,0.2-0.4C33.1,37.4,33.6,37.8,34,37.8z"/>
	<path class="st124" d="M34,37.8c-0.4,0.1-0.9-0.2-1.3,0.2c-0.8,0.1-1.5,0.3-2.1-0.4c1.3,0,2.6,0,3.9-0.2
		C34.3,37.6,34.2,37.7,34,37.8z"/>
	<path class="st125" d="M15.7,37.6c0.7,0,1.4,0,2.2,0c0.1,0.1,0.3,0.3,0.4,0.4c-0.3,0.2-0.6,0.2-0.9,0
		C16.9,37.5,16.2,38.1,15.7,37.6z"/>
	<path class="st126" d="M14.7,38.7c0.3-0.3,0.6-0.2,0.8-0.1c0.2,0.1,0.6,0,0.5,0.4c-0.2,0.4-0.4-0.1-0.6-0.1
		C15.2,38.9,14.9,39,14.7,38.7z"/>
	<path class="st127" d="M28,37.4c0.2,0.2,0.3,0.3,0.6,0.6c-0.7,0.1-1-0.2-1.4-0.5C27.5,37.1,27.7,37.5,28,37.4L28,37.4z"/>
	<path class="st128" d="M12.9,37c0.1,0.1,0.3,0.2,0.4,0.3c0,0.1,0,0.3,0,0.4c-0.3-0.1-0.6-0.1-0.9-0.2C12.4,37,12.5,36.9,12.9,37z"
		/>
	<path class="st129" d="M25,33.1c0,0.3,0,0.6-0.5,0.7c-0.2-0.1-0.2-0.3-0.2-0.4C24.5,33.2,24.8,33.2,25,33.1z"/>
	<path class="st44" d="M13.6,37.2c0.5-0.1,0.8,0.3,1.3,0.2C14.3,37.8,13.9,37.5,13.6,37.2z"/>
	<path class="st124" d="M29.3,37.4c0.2,0,0.5-0.1,0.7,0.2C29.7,37.9,29.3,38.2,29.3,37.4z"/>
	<path class="st130" d="M17.4,38c0.3,0,0.6,0,0.9,0C18,38.4,17.7,38.4,17.4,38z"/>
	<path class="st131" d="M26.7,36.3c0.4-0.4,0.6-0.3,0.6,0.2C27.1,36.4,26.8,36.6,26.7,36.3z"/>
	<path class="st124" d="M27.6,36.8c0.3,0,0.6,0,0.8,0.4c-0.1,0.1-0.3,0.1-0.4,0.2c0,0,0,0,0,0C27.8,37.2,27.7,37,27.6,36.8z"/>
	<path class="st132" d="M21.1,37.2c0.1,0.2,0,0.2-0.1,0.2c-0.1,0-0.2-0.1-0.2-0.1c-0.1-0.1,0-0.2,0.1-0.2
		C21,37.1,21.1,37.1,21.1,37.2z"/>
	<path class="st7" d="M17,19.9c0.4,0.4,0,0.9,0.4,1.3c0.3,0.7-0.3,1-0.7,1.3c-0.1,0-0.1,0-0.2,0c-0.1,0.1-0.2,0.2-0.3,0.3
		c-0.3,0.3-0.5,0.8-1,0.9c-0.2,0.1-0.5-0.1-0.7,0.1c-1,0-1.7-0.8-2.7-0.7c-0.3-0.1-0.5-0.1-0.8-0.1c-0.7-0.1-1.4,0.1-2-0.2
		C9,22.8,9,22.7,9,22.6c0.6,0,1.2,0,1.9,0c-0.4-0.8-1.1-1.3-1-2.2c0.1-0.1,0.4-0.3,0-0.4c-0.6-0.1-1.2-0.2-1.7-0.3
		c-0.4-0.5-0.3-0.8,0.4-0.8c0.5,0,1.1,0,1.6,0c0.2,0,0.4,0,0.7,0c0.5,0.2,1,0.1,1.5,0c1-0.3,1.9,0.2,2.8,0.1c0.2,0,0.3,0,0.5,0
		c0.2,0,0.4,0,0.6,0.1c0.1,0,0.2,0.1,0.2,0.1c0.1,0.1,0.1,0.2,0.1,0.2c0,0.2,0.1,0.3,0.3,0.3C16.9,19.8,17,19.9,17,19.9z"/>
	<path class="st133" d="M16.8,22.5c0.2-0.4,0.7-0.7,0.7-1.3c1.1-0.3,0.5,0.7,0.9,1.1c0.2,0.3,0.1,0.5-0.1,0.7c-0.1,0-0.2,0-0.3,0
		c-0.2,0.2-0.4,0.3-0.8,0.6C17.1,23.1,17.6,22.5,16.8,22.5z"/>
	<path class="st31" d="M6.9,23.8c-0.2,0-0.4,0-0.6,0c0,0,0,0,0,0c-0.1-0.1-0.1-0.2,0-0.3C7,22.8,8,23,9,22.8c0.2,0,0.3,0,0.5,0.1
		c-0.2,0.5,0.5,0.3,0.4,0.7c-0.5,0.5-1.2,0-1.7,0.5l0,0C7.7,24.3,7.3,23.7,6.9,23.8z"/>
	<path class="st134" d="M8.2,24c0.3-0.9,1-0.1,1.6-0.6c0-0.1-0.9,0-0.3-0.4c0.4-0.3,0.8-0.1,1.2-0.1c0.3,0.6-0.2,0.7-0.5,1
		C9.5,23.9,8.8,24.2,8.2,24z"/>
	<path class="st135" d="M12.5,36.3c-0.1,0.1-0.2,0.1-0.2,0.2c-0.2,0.2-0.3,0-0.4-0.1c-0.4,0-0.7-0.3-1.1-0.5
		c-0.2-0.1-0.4-0.3-0.7-0.4c0.1-0.1,0.1-0.3,0.2-0.4C11,35.5,11.8,35.9,12.5,36.3z"/>
	<path class="st136" d="M16.4,25.6c0.2,0.4-0.1,0.5-0.4,0.6c-0.3,0.1-0.5-0.2-0.6-0.5c-0.2-0.4-0.1-0.8,0.3-1c0,0,0.1,0.1,0.1,0.1
		C16,25,16.1,25.3,16.4,25.6z"/>
	<path class="st137" d="M10.1,23.8c0.1-0.4,0.4-0.6,0.6-0.8c0.1-0.2,0.3-0.1,0.4-0.1c0.2,0.1,0.6-0.1,0.7,0.2
		c-0.5,0-0.8,0.1-0.7,0.7c-0.3,0.3-0.7,0.4-1.1,0.2C10.1,24,10.1,23.9,10.1,23.8z"/>
	<path class="st138" d="M19.1,28c0-0.6-0.3-1.1,0.1-1.5c0.1-0.1,0.3-0.3,0.4-0.2c0.2,0.1,0.1,0.3,0.1,0.5
		C19.5,27.1,19.3,27.5,19.1,28z"/>
	<path class="st139" d="M18.1,23c0.1-0.2,0.1-0.4,0.2-0.6c0.7,0.2,0.3-0.4,0.4-0.6c0.1-0.2-0.2-0.7,0.4-0.5c0,0.7-0.3,1.3-0.6,1.9
		C18.3,23.3,18.1,23.4,18.1,23z"/>
	<path class="st133" d="M15.7,24.7c-0.1-0.1-0.1-0.3-0.2-0.4c-0.1-0.2,0-0.4,0.2-0.5c0.1,0,0.2,0,0.3,0c0.6,0.3,0.5,0.8,0.4,1.3
		C15.9,25.3,15.9,24.9,15.7,24.7L15.7,24.7z"/>
	<path class="st140" d="M22.8,32.8c-0.2-0.4-0.4-0.8-0.6-1.3C23.2,31.5,22.9,32.2,22.8,32.8z"/>
	<path class="st141" d="M15.9,23.8c-0.1,0-0.1,0-0.2,0c-0.2,0-0.4,0-0.5-0.2c0.4-0.2,0.5-0.8,1.1-0.8c0.1-0.1,0.1-0.1,0.2,0
		C16.5,23.2,16.2,23.5,15.9,23.8z"/>
	<path class="st134" d="M10.1,24c0.4-0.1,0.7-0.1,1.1-0.2c0.1,0.1,0.5,0.2,0.1,0.4c-0.4,0.2-0.8,0-1.2,0
		C10.1,24.2,10.1,24.2,10.1,24C10.1,24.1,10.1,24.1,10.1,24z"/>
	<path class="st8" d="M21.9,23.2c0.8-0.5,0.9,0.2,1.1,0.6C22.5,23.9,22.2,23.5,21.9,23.2z"/>
	<path class="st142" d="M14.3,25c-0.1,0.2-0.2,0.4-0.4,0.4c-0.2,0-0.3-0.2-0.3-0.4c0-0.2,0.1-0.3,0.3-0.3
		C14.1,24.7,14.2,24.8,14.3,25z"/>
	<path class="st143" d="M15.2,23.6c0.2,0,0.4,0,0.5,0.2c-0.1,0.1-0.1,0.3-0.2,0.4c-0.4,0-0.6-0.3-0.8-0.4
		C14.7,23.5,15,23.7,15.2,23.6z"/>
	<path class="st144" d="M8.8,27.6c0.5,0,0.8,0.2,0.9,0.7C9.1,28.5,9.1,27.9,8.8,27.6z"/>
	<path class="st145" d="M6.9,23.8c0.5-0.5,0.8,0.3,1.3,0.2C7.7,24.5,7.3,24.2,6.9,23.8z"/>
	<path class="st146" d="M23.7,29.7c0,0.6-0.1,1.3-0.1,1.9C23.4,30.9,23.3,30.3,23.7,29.7z"/>
	<path class="st147" d="M18.7,27.5c0,0.2-0.2,0.3-0.4,0.4c-0.2,0.1-0.3-0.1-0.3-0.3c0-0.2,0.1-0.4,0.3-0.5
		C18.5,27.1,18.7,27.2,18.7,27.5z"/>
	<path class="st148" d="M19.4,24.9c-0.1,0.2,0.1,0.5-0.3,0.6c-0.1,0-0.3-0.1-0.3-0.2c-0.1-0.4,0.3-0.4,0.5-0.5
		C19.4,24.7,19.4,24.7,19.4,24.9C19.4,24.8,19.4,24.9,19.4,24.9z"/>
	<path class="st122" d="M17.4,36.8c0.4,0.3,0.8,0,1.2,0.3c-0.5,0-1,0.3-1.5-0.2c0,0,0-0.1,0-0.1C17.3,36.6,17.4,36.7,17.4,36.8z"/>
	<path class="st149" d="M15.7,24.7c0.2,0.1,0.4,0.3,0.6,0.4c0,0.1,0,0.3,0,0.4C15.8,25.5,15.7,25.2,15.7,24.7z"/>
	<path class="st138" d="M18.8,26.2c0,0.2-0.1,0.4-0.3,0.4c-0.2,0-0.3-0.1-0.3-0.2c0-0.1,0.2-0.2,0.3-0.3C18.6,26,18.7,26,18.8,26.2z
		"/>
	<path class="st150" d="M8.4,32.5c-0.2-0.1-0.2-0.3-0.2-0.4c0.2-0.2,0.4-0.5,0.5-0.2C8.8,32,8.6,32.3,8.4,32.5z"/>
	<path class="st151" d="M18.1,23c0.1,0.2,0.3,0.2,0.4,0.2c0,0.2-0.1,0.4-0.4,0.4c-0.3-0.1-0.2-0.4-0.3-0.6C17.9,23,18,23,18.1,23z"
		/>
	<path class="st39" d="M5.8,25.7c-0.1-0.1-0.2-0.2-0.2-0.3c0-0.1,0.1-0.3,0.2-0.2c0.1,0,0.1,0.2,0.1,0.2C6,25.6,5.9,25.6,5.8,25.7z"
		/>
	<path class="st152" d="M17.4,36.8c-0.1,0-0.1,0-0.2-0.1c0.3-0.4,0.7-0.3,1-0.1C18,36.7,17.7,36.8,17.4,36.8z"/>
	<path class="st153" d="M19.4,24.9c0-0.1,0-0.1-0.1-0.2c0-0.2,0-0.4,0.2-0.4c0.1,0,0.2,0.1,0.2,0.2C19.8,24.8,19.6,24.8,19.4,24.9z"
		/>
	<path class="st154" d="M9.6,26.4c0.1,0.1,0.2,0.1,0.2,0.2c0,0.1-0.1,0.2-0.2,0.2c-0.1,0-0.1-0.1-0.2-0.2
		C9.4,26.5,9.5,26.5,9.6,26.4z"/>
	<path class="st155" d="M16.6,22.8c-0.1,0-0.1,0-0.2,0c0-0.1,0.1-0.2,0.2-0.2C16.6,22.6,16.6,22.7,16.6,22.8z"/>
	<path class="st156" d="M4.9,23c-0.1-0.1-0.1-0.3-0.2-0.4c0.2-0.2,0.5-0.2,0.8-0.4C5.6,22.1,5.8,22,5.9,22c0.1,0,0.1,0,0.2,0.1
		c0.3,0.2,0.8,0.3,0.7,0.8c-0.1,0.4-0.6,0.4-1,0.5c-0.2,0-0.4-0.1-0.6-0.1C5.2,23.2,5,23.1,4.9,23z"/>
	<path class="st157" d="M5.4,23c0.1,0.1,0.3,0.1,0.4,0.2c0.1,0.1,0.3,0.2,0.3,0.4c-0.2,0.2-0.5,0.3-0.7,0.4c-0.1,0-0.1,0.1-0.2,0.1
		c-0.1-0.2-0.2-0.3-0.2-0.5C5,23.4,5.2,23.2,5.4,23z"/>
	<path class="st158" d="M5.5,22.3c-0.2,0.3-0.5,0.1-0.8,0.2c-0.1-0.2-0.2-0.4-0.2-0.6c0.1,0,0.2,0,0.2,0C5.2,21.7,5.4,21.9,5.5,22.3
		z"/>
	<path class="st159" d="M5.4,23c0,0.3,0,0.6-0.4,0.6c-0.3-0.2-0.1-0.4,0-0.6C5.1,23,5.2,23,5.4,23z"/>
	<path class="st160" d="M5.4,24c0.1-0.3,0.3-0.4,0.6-0.4c0.1-0.1,0.2-0.1,0.3,0c0,0.1,0,0.1,0,0.2C5.9,23.8,5.7,24.2,5.4,24z"/>
	<path class="st161" d="M6.3,23.6c-0.1,0-0.2,0-0.3,0c-0.1-0.1-0.1-0.3-0.2-0.4c0.3-0.1,0.6-0.2,1-0.3c-0.2-0.4-0.7-0.5-1-0.8
		C5.4,22,5.1,21.8,5,21.4c0-0.2,0-0.3,0-0.5c0.6,0.2,1,0.7,1.4,1C7.2,22.6,8,22.9,9,22.6c0,0.1,0,0.1,0,0.2c0.1,0,0.1,0.1,0.1,0.1
		c0,0-0.1,0.1-0.1,0.1C8.1,23,7.1,23.2,6.3,23.6z"/>
	<path class="st162" d="M5,21.4c0.3,0.2,0.7,0.4,0.8,0.7c-0.1,0.1-0.2,0.2-0.3,0.2c-0.3-0.2-0.5-0.5-0.8-0.5
		C4.8,21.7,4.9,21.6,5,21.4z"/>
	<path class="st45" d="M11.8,36.4c0.1,0,0.3,0.1,0.4,0.1c0.2,0.2,0.4,0.3,0.7,0.5c-0.2,0.1-0.4,0.2-0.4,0.4
		C12.2,37.1,11.9,36.8,11.8,36.4z"/>
	<path class="st163" d="M42.4,16.5c0.1,0.4,0.2,0.7,0.2,1.1c-0.1,0.1-0.1,0.1-0.2,0.1c-0.1,0-0.2,0-0.2-0.1c-0.4-0.9-0.6-2-1.5-2.6
		c-0.2,0.1-0.3,0-0.4-0.2c0.5-0.9,1-1.9,0.8-3c0.1,0.1,0.3,0.3,0.4,0.4c0,0.3,0.1,0.7,0,0.9c-0.3,0.7-0.3,1.3,0.5,1.7
		c0.2,0.3-0.8-0.1-0.2,0.4C42.1,15.5,42.3,16,42.4,16.5z"/>
	<path class="st164" d="M42.4,16.5c-0.3-0.4-0.6-0.8-0.8-1.2c-0.3-0.5,0.1-0.5,0.4-0.5c0.6,0,0.7,0.7,1.2,0.9c-0.1,0-0.2,0-0.4,0
		C42.4,15.8,42.6,16.3,42.4,16.5z"/>
	<path class="st165" d="M39,16.7c-0.1,0.8-0.8,1-1.4,1.3c-0.4,0.3-1,0.3-1.2,0.8c-0.2,0.2-0.4,0.2-0.7,0.3c-0.4,0.1-0.9,0-1.3,0
		c-0.5,0-1,0-1.5,0c-0.3,0-0.5-0.1-0.7-0.3c0.3-0.6,0.7-0.3,1.1-0.2c1.7-0.2,3.4-0.6,4.8-1.7C38.4,16.8,38.7,16.7,39,16.7z"/>
	<path class="st166" d="M33.4,18.7c-0.4,0.1-0.8-0.1-1.1,0.2c-0.2,0.2-0.5,0.3-0.6,0.6c0,0.1-0.1,0.2-0.1,0.3c0,0.1-0.1,0.2-0.2,0.2
		c-0.2,0-0.4,0-0.6,0c0-0.1,0-0.1,0-0.2c0.5-1.2,0.4-1.5-0.8-2c0-0.1,0-0.1,0-0.2c-0.1-0.2-0.1-0.3,0-0.5
		C31,17.7,32.2,18.3,33.4,18.7z"/>
	<path class="st167" d="M29.9,17.1c0,0.2,0,0.3,0,0.5c-1-0.1-0.8-1.2-1.3-1.8c-0.1-0.4-0.1-0.9,0-1.3c0-0.1,0-0.3,0-0.4
		c0.2-0.2,0.1-0.8,0.7-0.7C29,14.8,29,16,29.9,17.1z"/>
	<path class="st168" d="M40.3,14.8c0.1,0.1,0.3,0.1,0.4,0.2c-0.4,0.8-0.8,1.5-1.7,1.7C39.2,15.9,39.9,15.5,40.3,14.8z"/>
	<path class="st169" d="M31.4,19.5c0.1-0.5,0.2-0.9,0.9-0.7c0.2,0,0.4,0,0.6,0.1c0.1,0,0.1,0.1,0,0.2c1,0.1,2-0.2,3,0.2
		c0,0.1,0,0.2,0,0.3c0,0.2-0.2,0.3-0.3,0.3c-0.2,0-0.4,0-0.5,0c-0.8-0.1-1.6,0-2.4,0C32.2,19.8,31.8,19.9,31.4,19.5z"/>
	<path class="st170" d="M35.9,19.3c-1.2,0-2.4,0-3.7,0c0.2-0.4,0.4-0.2,0.6-0.2c0.5-0.2,0.9-0.1,1.4-0.1c0.5,0,0.9,0.1,1.4-0.1
		c0.2,0,0.4,0,0.6-0.1C36.4,19.1,36.2,19.3,35.9,19.3z"/>
	<path class="st171" d="M43.2,20.5c-0.8,0-1.6-0.1-2.3-0.1c-0.1-0.1-0.1-0.2-0.1-0.3c0-0.1,0.1-0.2,0.3-0.2c0.5,0,1-0.1,1.5,0
		C42.7,20.2,43.2,20.1,43.2,20.5z"/>
	<path class="st172" d="M42.6,19.9c-0.6,0-1.1,0.1-1.7,0.1c-0.7,0.3-1.5,0.2-2.3,0.1c-0.1-0.1-0.2-0.2-0.1-0.3
		C39.9,19.8,41.2,19.6,42.6,19.9z"/>
	<path class="st173" d="M35.8,19.8c0.1-0.1,0.1-0.1,0.2-0.2c0.5,0,1-0.2,1.5,0.1c0.1,0.1,0.1,0.2,0,0.3c-0.3,0.1-0.7,0-1,0
		C36.2,19.9,35.8,20.3,35.8,19.8z"/>
	<path class="st174" d="M42.4,22.8c0.2-0.3,0.4-0.6,0.6-0.9c0.1,0.1,0.2,0.2,0.3,0.2c0.1,0.1,0.1,0.2,0.1,0.3
		c-0.1,0.2-0.1,0.4-0.3,0.5c-0.1,0.1-0.3,0.2-0.5,0.2C42.4,23,42.3,22.9,42.4,22.8z"/>
	<path class="st58" d="M42.9,18.2c0.1,0,0.3,0,0.4,0c0,0.2,0.1,0.5-0.1,0.7c-0.2,0.1-0.4-0.1-0.5-0.3C42.8,18.6,42.7,18.3,42.9,18.2
		z"/>
	<path class="st175" d="M42.9,18.2c0,0.2,0,0.4-0.2,0.4c0-0.1,0-0.1,0-0.2c-0.1-0.3-0.4-0.5-0.2-0.8c0.1,0,0.2,0,0.3,0
		C42.9,17.7,42.8,18,42.9,18.2z"/>
	<path class="st176" d="M42.4,17.6c0.1,0.3,0.1,0.6,0.2,0.8c-0.3-0.2-0.6-0.4-0.4-0.9C42.3,17.6,42.3,17.6,42.4,17.6z"/>
	<path class="st177" d="M42.6,23c0.1-0.1,0.3-0.2,0.4-0.3c0.1,0,0.2,0.1,0.2,0.2c0,0.1,0,0.3,0,0.4c-0.1,0-0.2,0-0.2,0
		C42.7,23.5,42.6,23.3,42.6,23z"/>
	<path class="st178" d="M43.3,22.3c0-0.1,0-0.1,0-0.2c0.2,0,0.2-0.4,0.4-0.2c0.1,0.2,0.1,0.5-0.2,0.6C43.4,22.5,43.3,22.4,43.3,22.3
		z"/>
	<path class="st179" d="M37.5,19.9c0-0.1,0-0.1,0-0.2c0.4,0,0.7,0,1.1,0c0,0.1,0,0.1,0,0.2c-0.2,0.3-0.5,0.1-0.8,0.1
		C37.6,20.1,37.5,20,37.5,19.9z"/>
	<path class="st180" d="M43.3,22.3c0.1,0.1,0.1,0.1,0.2,0.2c0,0.2,0,0.3-0.2,0.4c-0.1-0.1-0.2-0.2-0.2-0.2
		C43.1,22.6,43.2,22.5,43.3,22.3z"/>
	<path class="st181" d="M18.7,16.3c-0.5,0.2-0.9,0.5-1.4,0.7c-0.7,0.2-0.8,0.6-0.7,1.2c-0.1,0.1-0.2,0.1-0.3,0.1
		c-0.3,0-0.4-0.2-0.6-0.4c-0.2-0.3-0.5-0.4-0.7-0.6c-1.4-0.4-2.8-0.8-3.9-1.9c0.1-0.1,0.2-0.2,0.3-0.3c1.6,1,3.2,2.1,5.3,1.6
		c1-0.2,1.7-0.9,2.4-1.6c0.5-0.1,1-0.4,1.5,0C20.3,16.1,19.4,16,18.7,16.3z"/>
	<path class="st182" d="M20.6,15.2c-0.5-0.2-1,0.4-1.5,0c0.5-0.6,0.8-1.3,1.1-2c0.1,0,0.2,0.1,0.3,0.2c0.1,0.1,0.2,0.2,0.2,0.3
		c0,0.2,0,0.3-0.1,0.5c0,0.3,0.4,0.3,0.3,0.6C20.9,15.1,20.8,15.2,20.6,15.2z"/>
	<path class="st183" d="M20.4,13.5c-0.1-0.1-0.2-0.2-0.2-0.3c0-0.3,0-0.5,0.1-0.8c0.1,0.1,0.1,0.1,0.2,0.2
		C20.7,12.9,20.7,13.2,20.4,13.5z"/>
	<path class="st184" d="M6.5,17.8c-0.2-0.2-0.1-0.4,0-0.6c0.9,0.3,1.9,0,2.8,0.4c1.2-0.2,2.3-0.1,3.5,0.3c-0.1,0.1-0.1,0.2-0.2,0.3
		c-0.4,0.4-0.8,0.1-1.3,0.1C10,18.2,8.8,18.1,7.5,18C7.2,17.9,6.8,18,6.5,17.8z"/>
	<path class="st185" d="M12.7,17.9c-1.2-0.1-2.3-0.2-3.5-0.3c0-0.1,0-0.2,0-0.4c0.8-0.1,1.6,0.3,2.4,0.1c0.5-0.2,0.8,0.3,1.3,0.2
		C13.2,17.9,12.8,17.8,12.7,17.9z"/>
	<path class="st186" d="M12,18.7c-0.1-0.1-0.2-0.1-0.2-0.2c0.3-0.3,0.7,0,1.1-0.2c0.7,0.1,1.5,0.1,2.2,0.2c0.1,0.1,0.1,0.2,0.1,0.3
		c-0.2,0.3-0.4,0.3-0.7,0.3c-0.4-0.2-0.8-0.2-1.2-0.2C12.8,18.8,12.4,19,12,18.7z"/>
	<path class="st187" d="M15.1,18.7c0-0.1,0-0.1,0-0.2c0-0.1,0-0.3,0-0.4l0,0c0.3-0.2,0.1-0.4,0-0.6c0.3,0.1,0.8-0.2,0.9,0.4
		c0,0.1,0.1,0.1,0.1,0.2c0,0.1,0,0.1,0,0.1c-0.2,0.2-0.4,0.5-0.6,0.6C15.3,18.7,15.2,18.7,15.1,18.7z"/>
	<path class="st16" d="M6.5,14.2c0-0.2,0-0.3,0-0.5c0.1-0.1,0.2-0.3,0.2-0.4C7,13.2,7.2,13.1,7.5,13C7.3,13.6,6.8,13.8,6.5,14.2z"/>
	<path class="st188" d="M12.9,18.3c-0.3,0.3-0.7,0.1-1.1,0.2c-0.3,0-0.7,0-1,0c0-0.4,0.2-0.3,0.4-0.2c0.4,0,0.9,0,1.3,0
		C12.6,18.2,12.7,18.2,12.9,18.3z"/>
	<path class="st189" d="M12.9,17.5c-0.5,0.1-0.9-0.1-1.3-0.2c0.1-0.2-0.1-0.6,0.3-0.4C12.2,17.2,12.6,17.3,12.9,17.5z"/>
	<path class="st190" d="M15.1,18c-0.3,0-0.6,0-1,0C14.5,17.7,14.8,17.8,15.1,18C15.1,18,15.1,18,15.1,18z"/>
	<path class="st15" d="M9.9,20c0.1-0.2,0.2-0.4,0.4-0.4c0.2,0,0.2,0.2,0.2,0.3c0,0.3-0.3,0.4-0.6,0.5C9.9,20.3,9.9,20.1,9.9,20z"/>
	<path class="st191" d="M7.3,19.8c0.3,0,0.6,0,0.9,0C7.9,20,7.6,20.3,7.3,19.8z"/>
	<path class="st192" d="M15.1,18.7c0.1,0,0.1,0,0.2,0c0.2,0.2,0.2,0.4,0,0.6c-1.1,0.2-2.1-0.3-3.2-0.2C12,19.1,12,19,12,19
		c0-0.1,0-0.1,0.1-0.1c0-0.1,0-0.2,0-0.2c0.4,0,0.9,0,1.3,0c0.3,0.2,0.8,0,1.1,0.2C14.7,18.8,14.9,18.9,15.1,18.7z"/>
	<path class="st193" d="M11.2,18.2c-0.1,0.1-0.3,0.1-0.4,0.2c-1.1-0.1-2.2-0.2-3.2-0.2c-0.1-0.1-0.1-0.2,0-0.3
		C8.7,18,10,17.9,11.2,18.2z"/>
	<path class="st194" d="M7.5,17.8c0,0.1,0,0.2,0,0.3C7,18.1,6.5,18.1,6,18c0-0.1,0-0.1,0-0.2c0.1,0,0.3,0,0.4,0
		C6.8,17.8,7.2,17.8,7.5,17.8z"/>
	<path class="st15" d="M12,18.9c0,0.1,0,0.1,0.1,0.2c-0.4,0-0.9,0.3-1.3-0.2C11.2,18.9,11.6,18.9,12,18.9z"/>
	<path class="st195" d="M6,13.9c-0.1,0-0.1,0-0.2,0C5.9,13.8,5.9,13.8,6,13.9z"/>
	<path class="st196" d="M20.6,15.2c0.1-0.1,0.2-0.2,0.3-0.4c0-0.2,0.1-0.4,0.3-0.6c0.1-0.1,0.2-0.2,0.4-0.1c0.2,0.4,0.4,0.9,0.6,1.3
		c0.1,0,0.1,0,0.2,0.1c0,0,0,0.1-0.1,0.1c-0.2,0.1-0.4,0.3-0.6,0.4c-0.7,0.1-1.3,0.5-2.1,0.2c-0.3,0-0.6,0.2-0.9,0
		C19.3,15.9,20,15.6,20.6,15.2z"/>
	<path class="st197" d="M21.5,14.1c-0.1,0.1-0.1,0.2-0.2,0.2c-0.4,0.2-0.6,0.1-0.8-0.2c0.1-0.1,0.1-0.3,0.2-0.4
		c-0.1-0.2-0.1-0.4,0-0.7c0.3-0.5,0-1,0.3-1.5c0-0.1,0-0.1,0-0.2c0.2-0.2,0-0.7,0.4-0.6c0.3,0,0.2,0.5,0.3,0.7c0.1,0.5-0.3,1,0,1.4
		c0,0.2,0,0.4,0,0.7c0,0.1,0,0.1,0,0.2c0.1,0.1,0.1,0.2,0.2,0.2c0,0.1,0,0.1,0,0.2C21.7,14.1,21.6,14.1,21.5,14.1z"/>
	<path class="st198" d="M19.6,16.3c0.7-0.3,1.4-0.3,2.1-0.2c-0.1,0.4-0.6,0.4-0.8,0.6c0,0.1-0.1,0.1-0.2,0.1
		C20.3,16.6,19.6,17.1,19.6,16.3z"/>
	<path class="st199" d="M27.6,16.3c-0.3,0.2-0.4-0.3-0.6-0.2c-0.5-0.5,0-0.9,0.2-1.3c0.2-0.1,0.2-0.4,0.4-0.4c0,0.4,0,0.9,0,1.3
		C27.7,15.9,27.7,16.1,27.6,16.3z"/>
	<path class="st200" d="M27.1,14.8c0,0.4-0.4,0.8-0.2,1.3c0,0.1,0,0.3,0,0.4C26.2,15.9,26.5,15.3,27.1,14.8z"/>
	<path class="st201" d="M23.7,9.8c0.6,0,1.1,0,1.7,0c0,0,0.1,0,0.1,0.1c0,0,0,0.1,0,0.1c-0.6,0-1.2,0-1.8,0c0,0,0-0.1,0-0.1
		C23.6,9.9,23.6,9.9,23.7,9.8z"/>
	<path class="st202" d="M20.7,16.8c0.1,0,0.1-0.1,0.2-0.1c0.2,0.5,0.1,0.7-0.6,0.7c-0.1-0.1-0.1-0.3,0-0.4
		C20.4,16.9,20.5,16.8,20.7,16.8z"/>
	<path class="st203" d="M22.6,15.1c0.1-0.2,0.3-0.4,0.4-0.6c0.1,0.1,0.2,0.1,0.2,0.2c0,0.4-0.4,0.6-0.6,0.8
		C22.5,15.3,22.5,15.2,22.6,15.1z"/>
	<path class="st204" d="M16.4,19.5c0-0.1,0-0.1,0-0.2c0-0.3-0.1-0.6,0.4-0.7c0.1,0.4,0.2,0.8,0.3,1.3c-0.1,0-0.2,0-0.3,0
		C16.5,19.9,16.5,19.7,16.4,19.5z"/>
	<path class="st205" d="M16.8,18.7c-0.1,0.2-0.3,0.4-0.4,0.7c0,0,0,0,0,0c-0.3-0.3-0.3-0.7,0-1c0.1,0,0.2,0,0.3,0
		C16.8,18.3,16.8,18.5,16.8,18.7z"/>
	<path class="st132" d="M20.2,16.9c0,0.1,0,0.3,0,0.4c-0.2,0-0.5,0-0.5-0.3C19.8,16.8,20.1,17,20.2,16.9z"/>
	<path class="st203" d="M22.8,14c-0.1,0.1-0.2,0.2-0.3,0.2c-0.1,0-0.2,0-0.1-0.2c0.1-0.1,0.2-0.2,0.3-0.3
		C22.7,13.9,22.7,13.9,22.8,14z"/>
	<path class="st206" d="M22.6,15.1c0,0.1,0,0.2,0,0.4c0,0-0.1,0-0.1,0l-0.1,0c-0.1,0.1-0.1,0.1-0.2,0c0,0-0.1,0-0.1,0
		C22.2,15.2,22.4,15.1,22.6,15.1z"/>
	<path class="st207" d="M22.2,15.4c0.1,0,0.1,0,0.2,0c-0.1,0.1-0.1,0.1-0.2,0.2C22.2,15.6,22.2,15.5,22.2,15.4z"/>
	<path class="st208" d="M21.7,14c-0.1,0-0.2-0.1-0.2-0.2C21.6,13.8,21.7,13.9,21.7,14z"/>
	<path class="st209" d="M21.5,12.8c-0.4,0-0.3-0.3-0.3-0.6c0.1-0.4,0.1-0.9,0.1-1.5c-0.2,0.3-0.3,0.4-0.4,0.5c0-0.3,0-0.6,0-0.9
		c0.6-0.1,0.9,0.2,0.9,0.8C21.7,11.8,21.7,12.3,21.5,12.8z"/>
	<path class="st210" d="M20.9,11.6c-0.1,0.5,0.2,1-0.2,1.5c-0.2-0.1-0.1-0.3-0.1-0.4c0-0.4,0-0.7,0.1-1.1
		C20.8,11.6,20.8,11.6,20.9,11.6z"/>
	<path class="st211" d="M20.6,12.6c0,0.1,0,0.3,0.1,0.4c0,0.2-0.1,0.4-0.1,0.6c-0.1-0.1-0.1-0.1-0.2-0.2c0-0.3,0-0.6,0-0.9
		C20.5,12.6,20.6,12.6,20.6,12.6z"/>
	<path class="st48" d="M35.7,24.1c-0.2,0-0.4,0-0.6,0c-0.3,0-0.6,0-0.8,0c-0.3,0.1-0.6,0-0.8-0.1c-0.2-0.1-0.3-0.2-0.4-0.4
		c-0.2-0.2-0.4-0.4-0.6-0.6c-0.3-0.5-0.6-1-0.7-1.5c0-0.3,0-0.7,0.5-0.6c0.3,0.1,0.7,0.1,1.1,0.1c1.2,0,2.7-0.4,3.1,1.5
		c0.1,0.3,0.5,0.6,0.9,0.9c0.6,0.3-0.1,0.2-0.2,0.3C36.6,23.8,36.2,23.9,35.7,24.1z"/>
	<path class="st212" d="M35.8,19.8c0.1,0.2,0.4,0.1,0.6,0.2c0.1,0,0.1,0.1,0.1,0.1c0,0,0,0.1-0.1,0.1c-1.4,0-2.7,0-4.1,0.1
		c-0.3,0.1-0.6,0-0.8-0.3c0,0,0,0,0,0c0-0.1,0-0.1,0-0.2c1.3-0.2,2.6-0.2,3.8,0C35.4,19.7,35.6,19.8,35.8,19.8z"/>
	<path class="st213" d="M31.6,21.5c0.3,0.5,0.6,1,0.9,1.5c0,0.1-0.1,0.2-0.3,0.3c-0.1,0-0.2,0-0.3-0.1c-0.3-0.5-0.5-1-0.8-1.5
		C31.4,21.7,31.6,21.6,31.6,21.5z"/>
	<path class="st214" d="M37.7,20c0.3,0,0.6,0,0.9-0.1c0.8,0,1.6,0,2.4,0.1c0,0.1,0,0.1,0,0.2c-0.8,0.2-1.6,0.2-2.4,0
		c-0.3,0-0.5,0-0.8,0C37.6,20.1,37.6,20.1,37.7,20C37.6,20,37.7,20,37.7,20z"/>
	<path class="st215" d="M42.6,23c0.1,0.1,0.3,0.3,0.4,0.4c-0.5,0.3-0.8,0.1-1-0.3c-0.1-0.2,0.1-0.3,0.4-0.4
		C42.5,22.8,42.6,22.9,42.6,23z"/>
	<path class="st216" d="M38.5,20.2c0.8,0,1.6,0,2.4,0c0,0.1,0,0.1,0,0.2C40.1,20.3,39.3,20.6,38.5,20.2z"/>
	<path class="st216" d="M37.7,20c0,0.1,0,0.1,0,0.2c-0.4,0-0.9,0-1.3,0c0-0.1,0-0.1,0-0.2c0.4,0,0.7,0,1.1,0
		C37.5,19.9,37.6,20,37.7,20z"/>
	<path class="st166" d="M31.4,20c0.3,0.1,0.6,0.2,0.8,0.3C31.9,20.5,31.6,20.5,31.4,20z"/>
	<path class="st217" d="M20.2,22.1c-0.1,0-0.3,0.1-0.4,0c-0.1-0.2-0.1-0.5,0.2-0.7C20.3,21.6,20.2,21.9,20.2,22.1z"/>
	<path class="st16" d="M25,20.9c-0.4,0.2-0.8,0.2-1.2,0C24.2,20.8,24.6,20.8,25,20.9z"/>
	<path class="st218" d="M20.9,20.6c0.2-0.3,0.4-0.3,0.6,0C21.3,20.7,21.1,20.9,20.9,20.6z"/>
	<path class="st219" d="M27.6,16.3c0-0.2,0-0.4,0-0.6c0.2,0,0.4,0.1,0.5,0.3c0,0.2-0.2,0.3-0.3,0.3C27.7,16.3,27.6,16.3,27.6,16.3z"
		/>
	<path class="st220" d="M28.6,14.6c0,0.4,0,0.9,0,1.3C28.3,15.4,28.3,15,28.6,14.6z"/>
	<path class="st221" d="M32.1,23.2c0.1,0,0.1,0,0.2,0c0.5,0,0.6,0.4,0.9,0.7c0,0.2,0,0.3-0.2,0.2c-0.4,0-0.8,0-0.9-0.6
		C32.1,23.4,32.1,23.3,32.1,23.2z"/>
	<path class="st222" d="M32.9,24.1c0.1-0.1,0.2-0.1,0.2-0.2c0,0,0-0.1,0-0.1c0.1,0,0.1,0,0.2,0.1c0.3,0.1,0.6,0.2,0.9,0.2
		c-0.1,0.2-0.3,0.2-0.5,0.2c-0.3,0-0.5,0-0.8-0.1C33,24.2,32.9,24.1,32.9,24.1z"/>
	<path class="st223" d="M15.3,19.3c0-0.2,0-0.4,0-0.6c0.2-0.3,0.2-0.6,0.6-0.6c0.5,0.5,0.4,0.9-0.2,1.3
		C15.6,19.3,15.4,19.3,15.3,19.3z"/>
	<path class="st224" d="M15.7,19.3c0.2-0.4,0.5-0.8,0.2-1.3c0-0.1,0-0.2,0-0.2c0.1,0.2,0.3,0.3,0.4,0.5c0,0.3,0,0.7,0,1
		C16.1,19.3,15.9,19.3,15.7,19.3z"/>
	<path class="st225" d="M9,22.9c0-0.1,0-0.1,0-0.2c0.7,0.1,1.5-0.2,2.2,0.2c-0.1,0-0.3,0-0.4,0.1c-0.4,0-0.9,0-1.3,0
		C9.3,23,9.2,23,9,22.9z"/>
	<path class="st226" d="M16.4,19.5c0.2,0.1,0.3,0.2,0.4,0.4c-0.1,0.2-0.2,0.2-0.4,0.1C16.1,19.9,16.3,19.7,16.4,19.5z"/>
	<path class="st227" d="M34.4,19.1c-0.5,0-1,0-1.5,0c0-0.1,0-0.1,0-0.2c0.5,0,1,0,1.5,0C34.5,19,34.5,19,34.4,19.1
		C34.5,19.1,34.5,19.1,34.4,19.1z"/>
	<path class="st228" d="M34.4,19.1c0-0.1,0-0.1,0-0.2c0.4,0,0.9,0,1.3,0C35.3,19.2,34.9,19,34.4,19.1z"/>
	<path class="st229" d="M35.3,19.7c-1.3,0-2.6,0-3.8,0c0-0.1,0-0.2,0-0.2C32.7,19.7,34,19.2,35.3,19.7z"/>
	<path class="st230" d="M20.5,14.1c0.2,0.2,0.5,0.2,0.8,0.2c-0.1,0.2-0.3,0.3-0.4,0.5C20.9,14.5,19.9,14.8,20.5,14.1z"/>
	<path class="st176" d="M14.5,18.9c-0.4,0-0.8,0.1-1.1-0.2C13.7,18.7,14.1,18.6,14.5,18.9z"/>
	<path class="st231" d="M33.2,23.9c-0.5,0-0.5-0.6-0.9-0.7c0.1-0.1,0.2-0.2,0.3-0.2c0.2,0.2,0.4,0.4,0.6,0.5
		C33.3,23.6,33.3,23.7,33.2,23.9L33.2,23.9z"/>
	<path class="st232" d="M33.1,23.8c0-0.1,0-0.2,0-0.3c0.2,0,0.2,0.2,0.2,0.3C33.3,23.8,33.2,23.8,33.1,23.8z"/>
</g>
</svg>
