<svg width="24" height="24" viewBox="0 0 24 24" fill="none" xmlns="http://www.w3.org/2000/svg">
<g clip-path="url(#clip0_190_1617)">
<path d="M23 16H17C16.7348 16 16.4804 15.8946 16.2929 15.7071C16.1054 15.5196 16 15.2652 16 15C16 14.7348 16.1054 14.4804 16.2929 14.2929C16.4804 14.1054 16.7348 14 17 14H23C23.2652 14 23.5196 14.1054 23.7071 14.2929C23.8946 14.4804 24 14.7348 24 15C24 15.2652 23.8946 15.5196 23.7071 15.7071C23.5196 15.8946 23.2652 16 23 16Z" fill="#4D5663"/>
<path d="M23 20H16C15.7348 20 15.4804 19.8946 15.2929 19.7071C15.1054 19.5196 15 19.2652 15 19C15 18.7348 15.1054 18.4804 15.2929 18.2929C15.4804 18.1054 15.7348 18 16 18H23C23.2652 18 23.5196 18.1054 23.7071 18.2929C23.8946 18.4804 24 18.7348 24 19C24 19.2652 23.8946 19.5196 23.7071 19.7071C23.5196 19.8946 23.2652 20 23 20Z" fill="#4D5663"/>
<path d="M23 24H18C17.7348 24 17.4804 23.8946 17.2929 23.7071C17.1054 23.5196 17 23.2652 17 23C17 22.7348 17.1054 22.4804 17.2929 22.2929C17.4804 22.1054 17.7348 22 18 22H23C23.2652 22 23.5196 22.1054 23.7071 22.2929C23.8946 22.4804 24 22.7348 24 23C24 23.2652 23.8946 23.5196 23.7071 23.7071C23.5196 23.8946 23.2652 24 23 24Z" fill="#4D5663"/>
<path d="M21.637 0.228995C21.5358 0.14533 21.419 0.0824285 21.2935 0.0438828C21.1679 0.00533704 21.036 -0.00809777 20.9052 0.00434565C20.7745 0.0167891 20.6475 0.054867 20.5314 0.116405C20.4154 0.177942 20.3126 0.261734 20.229 0.362995L12.1 10.215C11.7503 10.0743 11.377 10.0013 11 10C4.318 10 0 15.1 0 23C0 23.2652 0.105357 23.5196 0.292893 23.7071C0.48043 23.8946 0.734784 24 1 24H13.258C13.4335 24 13.606 23.9538 13.758 23.866C13.91 23.7782 14.0362 23.652 14.124 23.5C14.2118 23.348 14.258 23.1755 14.258 23C14.258 22.8245 14.2118 22.652 14.124 22.5C13.4002 21.2539 12.9872 19.8518 12.9198 18.4123C12.8525 16.9728 13.1328 15.5383 13.737 14.23C13.8842 13.835 13.9728 13.4206 14 13C13.996 12.4849 13.8582 11.9797 13.6 11.534L21.769 1.634C21.9373 1.42995 22.0178 1.16756 21.9931 0.90424C21.9684 0.640924 21.8403 0.39813 21.637 0.228995ZM9.822 22C9.75142 21.3621 9.74004 20.719 9.788 20.079C9.80895 19.8146 9.724 19.5527 9.55185 19.3509C9.37969 19.1491 9.13442 19.0239 8.87 19.003C8.60558 18.982 8.34367 19.067 8.14188 19.2391C7.94009 19.4113 7.81495 19.6566 7.794 19.921C7.74075 20.6132 7.74643 21.3087 7.811 22H6.018C6.03833 21.3891 6.10283 20.7805 6.211 20.179C6.25847 19.918 6.20033 19.6489 6.04937 19.4308C5.8984 19.2127 5.66697 19.0635 5.406 19.016C5.14503 18.9685 4.87588 19.0267 4.65778 19.1776C4.43967 19.3286 4.29047 19.56 4.243 19.821C4.11434 20.5407 4.0398 21.2691 4.02 22H2.028C2.242 18.22 3.704 14.451 7.084 12.829C7.24996 13.8171 7.70898 14.7326 8.40154 15.4567C9.09409 16.1809 9.98823 16.6802 10.968 16.89C10.9301 17.2588 10.9107 17.6293 10.91 18C10.9107 19.3691 11.1681 20.7258 11.669 22H9.822Z" fill="#4D5663"/>
</g>
<defs>
<clipPath id="clip0_190_1617">
<rect width="24" height="24" fill="white"/>
</clipPath>
</defs>
</svg>
