<svg id="Group_208" data-name="Group 208" xmlns="http://www.w3.org/2000/svg" width="34" height="34" viewBox="0 0 34 34">
  <circle id="Ellipse_6" data-name="Ellipse 6" cx="17" cy="17" r="17" fill="#333"/>
  <path id="Path_1" data-name="Path 1" d="M23.414,12.432l2.767-2.9L23.71,7.174,21.026,9.987a8.121,8.121,0,0,0-8.856-.073L9.329,7.2,6.971,9.674l2.77,2.644a8.121,8.121,0,0,0-.076,8.762L6.745,24.14,9.216,26.5l2.837-2.972a8.121,8.121,0,0,0,8.872.069l3.011,2.874L26.295,24l-2.946-2.812a8.122,8.122,0,0,0,.065-8.755Zm-6.873-.607a4.933,4.933,0,1,0,1.888.375A4.935,4.935,0,0,0,16.541,11.825Z" transform="translate(0.422 0.448)" fill="#fff" fill-rule="evenodd"/>
</svg>
