<svg width="32" height="32" viewBox="0 0 32 32" fill="none" xmlns="http://www.w3.org/2000/svg">
<rect width="32" height="32" rx="8" fill="#2E3440"/>
<g clip-path="url(#clip0_190_1460)">
<path d="M21.8165 15.113L16.3165 10.613C16.2272 10.54 16.1154 10.5001 16 10.5001C15.8846 10.5001 15.7728 10.54 15.6835 10.613L10.1835 15.113C10.0832 15.1977 10.0202 15.3184 10.0081 15.4491C9.99597 15.5798 10.0358 15.7101 10.1189 15.8117C10.202 15.9133 10.3217 15.9782 10.4523 15.9923C10.5828 16.0064 10.7136 15.9685 10.8165 15.887L11.5 15.328V21C11.5 21.1326 11.5527 21.2598 11.6465 21.3536C11.7402 21.4473 11.8674 21.5 12 21.5H15V19H17V21.5H20C20.1326 21.5 20.2598 21.4473 20.3536 21.3536C20.4473 21.2598 20.5 21.1326 20.5 21V15.328L21.1835 15.887C21.2342 15.9298 21.2929 15.962 21.3561 15.9819C21.4194 16.0017 21.486 16.0088 21.552 16.0027C21.618 15.9966 21.6822 15.9774 21.7407 15.9463C21.7992 15.9152 21.851 15.8727 21.893 15.8214C21.935 15.7701 21.9663 15.7109 21.9852 15.6473C22.0041 15.5838 22.0102 15.5171 22.003 15.4512C21.9959 15.3853 21.9758 15.3214 21.9437 15.2634C21.9117 15.2053 21.8685 15.1542 21.8165 15.113ZM17 17H15V15H17V17Z" fill="#6B7685"/>
</g>
<defs>
<clipPath id="clip0_190_1460">
<rect width="12" height="12" fill="white" transform="translate(10 10)"/>
</clipPath>
</defs>
</svg>
