<?xml version="1.0" encoding="UTF-8"?>
<svg xmlns="http://www.w3.org/2000/svg" xmlns:xlink="http://www.w3.org/1999/xlink" width="444pt" height="504pt" viewBox="0 0 444 504" version="1.1">
<g id="surface1">
<path style=" stroke:none;fill-rule:nonzero;fill:rgb(85.899353%,71.398926%,45.899963%);fill-opacity:1;" d="M 434.25 30 C 434.25 30 406.5 41.25 363.75 41.25 C 289.5 41.25 222 0 222 0 C 222 0 154.5 41.25 80.25 41.25 C 37.5 41.25 9.75 30 9.75 30 C 9.75 30 0 88.5 0 132.75 C 0 390.75 222 504 222 504 C 222 504 444 390.75 444 132.75 C 444 88.5 434.25 30 434.25 30 Z M 323.066406 404.5625 C 280.738281 450.976563 237.949219 478.152344 222 487.441406 C 206.050781 478.152344 163.261719 450.976563 120.933594 404.5625 C 50.28125 327.097656 14.457031 235.644531 14.457031 132.75 C 14.457031 104.125 18.738281 68.859375 21.570313 48.660156 C 34.851563 52.011719 54.996094 55.707031 80.25 55.707031 C 143.953125 55.707031 201.835938 27.589844 222 16.621094 C 242.164063 27.589844 300.046875 55.707031 363.75 55.707031 C 389.003906 55.707031 409.148438 52.011719 422.429688 48.660156 C 425.261719 68.859375 429.542969 104.125 429.542969 132.75 C 429.542969 235.644531 393.722656 327.097656 323.066406 404.5625 "/>
<path style=" stroke:none;fill-rule:nonzero;fill:rgb(100%,100%,100%);fill-opacity:1;" d="M 80.25 55.707031 C 54.996094 55.707031 34.851563 52.011719 21.570313 48.660156 C 18.738281 68.859375 14.457031 104.125 14.457031 132.75 C 14.457031 235.644531 50.28125 327.097656 120.933594 404.5625 C 163.261719 450.976563 206.050781 478.152344 222 487.441406 C 237.949219 478.152344 280.738281 450.976563 323.066406 404.5625 C 393.722656 327.097656 429.542969 235.644531 429.542969 132.75 C 429.542969 104.125 425.261719 68.859375 422.429688 48.660156 C 409.148438 52.011719 389.003906 55.707031 363.75 55.707031 C 300.046875 55.707031 242.164063 27.589844 222 16.621094 C 201.835938 27.589844 143.953125 55.707031 80.25 55.707031 "/>
<path style=" stroke:none;fill-rule:nonzero;fill:rgb(11.399841%,17.599487%,32.199097%);fill-opacity:1;" d="M 335.679688 73.589844 C 287.191406 68.109375 244.78125 50.03125 222 38.628906 C 194.90625 52.191406 140.089844 75.265625 80.25 75.265625 C 64.242188 75.265625 50.242188 73.84375 38.285156 71.960938 C 36.097656 90.589844 34.015625 113.332031 34.015625 132.75 C 34.015625 199.875 50.09375 261.898438 81.902344 318.054688 L 335.679688 73.589844 "/>
<path style=" stroke:none;fill-rule:nonzero;fill:rgb(72.198486%,19.599915%,21.199036%);fill-opacity:1;" d="M 405.710938 71.960938 C 393.757813 73.84375 379.757813 75.265625 363.75 75.265625 C 358.019531 75.265625 352.359375 74.996094 346.738281 74.601563 L 86.25 325.523438 C 97.386719 344.175781 110.273438 362.167969 124.933594 379.460938 L 408.875 105.046875 C 408.0625 93.597656 406.914063 82.164063 405.710938 71.960938 "/>
<path style=" stroke:none;fill-rule:nonzero;fill:rgb(83.099365%,63.899231%,38.798523%);fill-opacity:1;" d="M 135.027344 337.140625 L 142.132813 333.605469 C 144.230469 337.445313 145.023438 341.039063 144.503906 344.386719 C 143.988281 347.730469 142.238281 350.84375 139.257813 353.726563 C 135.566406 357.289063 131.316406 358.964844 126.507813 358.734375 C 121.695313 358.511719 117.175781 356.210938 112.949219 351.839844 C 108.484375 347.21875 106.207031 342.472656 106.121094 337.605469 C 106.035156 332.738281 107.941406 328.425781 111.832031 324.664063 C 115.230469 321.382813 118.960938 319.71875 123.023438 319.671875 C 125.4375 319.640625 128.03125 320.433594 130.8125 322.042969 L 126.542969 328.738281 C 124.820313 327.613281 123.039063 327.140625 121.1875 327.3125 C 119.339844 327.484375 117.671875 328.296875 116.179688 329.734375 C 114.121094 331.726563 113.164063 334.078125 113.3125 336.796875 C 113.457031 339.511719 115.132813 342.527344 118.328125 345.839844 C 121.722656 349.351563 124.773438 351.238281 127.476563 351.511719 C 130.179688 351.777344 132.546875 350.9375 134.566406 348.984375 C 136.054688 347.542969 136.882813 345.832031 137.039063 343.847656 C 137.195313 341.859375 136.527344 339.625 135.027344 337.140625 "/>
<path style=" stroke:none;fill-rule:nonzero;fill:rgb(83.099365%,63.899231%,38.798523%);fill-opacity:1;" d="M 156.445313 336.195313 L 151.296875 330.871094 L 156.625 325.722656 L 161.769531 331.050781 L 156.445313 336.195313 "/>
<path style=" stroke:none;fill-rule:nonzero;fill:rgb(83.099365%,63.899231%,38.798523%);fill-opacity:1;" d="M 141.742188 296.671875 L 151.996094 286.761719 C 154.308594 284.527344 156.242188 283.003906 157.796875 282.183594 C 159.890625 281.085938 162.109375 280.589844 164.457031 280.691406 C 166.804688 280.796875 169.140625 281.441406 171.460938 282.628906 C 173.78125 283.820313 176.203125 285.714844 178.71875 288.316406 C 180.925781 290.605469 182.546875 292.851563 183.578125 295.054688 C 184.835938 297.746094 185.425781 300.34375 185.347656 302.839844 C 185.289063 304.726563 184.691406 306.734375 183.546875 308.863281 C 182.6875 310.453125 181.222656 312.25 179.148438 314.25 L 168.59375 324.453125 Z M 151.894531 295.949219 L 169.679688 314.351563 L 173.867188 310.304688 C 175.433594 308.789063 176.480469 307.609375 177.007813 306.757813 C 177.695313 305.652344 178.078125 304.539063 178.152344 303.414063 C 178.226563 302.289063 177.851563 300.925781 177.027344 299.3125 C 176.203125 297.703125 174.757813 295.820313 172.679688 293.675781 C 170.605469 291.527344 168.820313 290.0625 167.328125 289.277344 C 165.839844 288.496094 164.441406 288.109375 163.136719 288.125 C 161.832031 288.140625 160.546875 288.542969 159.277344 289.328125 C 158.324219 289.90625 156.703125 291.304688 154.414063 293.515625 L 151.894531 295.949219 "/>
<path style=" stroke:none;fill-rule:nonzero;fill:rgb(83.099365%,63.899231%,38.798523%);fill-opacity:1;" d="M 197.953125 296.082031 L 192.804688 290.757813 L 198.128906 285.609375 L 203.277344 290.9375 L 197.953125 296.082031 "/>
<path style=" stroke:none;fill-rule:nonzero;fill:rgb(83.099365%,63.899231%,38.798523%);fill-opacity:1;" d="M 222.351563 272.496094 L 195.722656 244.941406 L 201.332031 239.519531 L 223.4375 262.394531 L 237.386719 248.914063 L 241.910156 253.597656 L 222.351563 272.496094 "/>
<path style=" stroke:none;fill-rule:nonzero;fill:rgb(83.099365%,63.899231%,38.798523%);fill-opacity:1;" d="M 247.027344 248.652344 L 220.179688 220.867188 L 225.785156 215.445313 L 252.640625 243.230469 L 247.027344 248.652344 "/>
<path style=" stroke:none;fill-rule:nonzero;fill:rgb(83.099365%,63.899231%,38.798523%);fill-opacity:1;" d="M 259.394531 236.699219 L 232.542969 208.917969 L 238.003906 203.644531 L 267.304688 211.207031 L 249.371094 192.65625 L 254.585938 187.617188 L 281.4375 215.398438 L 275.808594 220.839844 L 247.097656 213.546875 L 264.605469 231.664063 L 259.394531 236.699219 "/>
<path style=" stroke:none;fill-rule:nonzero;fill:rgb(83.099365%,63.899231%,38.798523%);fill-opacity:1;" d="M 313.734375 184.183594 L 307.636719 190.082031 L 299.109375 186.117188 L 288.003906 196.847656 L 291.808594 205.375 L 285.859375 211.125 L 269.828125 172.886719 L 275.761719 167.152344 Z M 292.785156 183.175781 L 278.992188 176.5625 L 285.203125 190.5 Z M 292.785156 183.175781 "/>
<path style=" stroke:none;fill-rule:nonzero;fill:rgb(83.099365%,63.899231%,38.798523%);fill-opacity:1;" d="M 318.042969 180.019531 L 291.191406 152.234375 L 303 140.824219 C 305.972656 137.957031 308.367188 136.117188 310.195313 135.320313 C 312.023438 134.515625 313.957031 134.363281 316 134.859375 C 318.039063 135.355469 319.855469 136.421875 321.445313 138.0625 C 323.457031 140.148438 324.511719 142.460938 324.597656 145.003906 C 324.6875 147.546875 323.679688 150.171875 321.582031 152.882813 C 323.480469 152.421875 325.230469 152.230469 326.839844 152.3125 C 328.445313 152.394531 330.964844 152.871094 334.390625 153.738281 L 343.023438 155.878906 L 336.3125 162.363281 L 326.417969 160.234375 C 322.886719 159.46875 320.585938 159.058594 319.511719 159.007813 C 318.4375 158.960938 317.503906 159.117188 316.707031 159.484375 C 315.910156 159.851563 314.871094 160.652344 313.582031 161.898438 L 312.445313 163 L 323.652344 174.597656 Z M 308.160156 158.5625 L 312.3125 154.554688 C 315 151.953125 316.570313 150.214844 317.019531 149.339844 C 317.46875 148.464844 317.617188 147.566406 317.457031 146.644531 C 317.300781 145.722656 316.816406 144.84375 316.015625 144.007813 C 315.109375 143.074219 314.128906 142.5625 313.074219 142.46875 C 312.019531 142.378906 310.964844 142.691406 309.90625 143.421875 C 309.394531 143.796875 307.996094 145.085938 305.726563 147.28125 L 301.34375 151.515625 L 308.160156 158.5625 "/>
<path style=" stroke:none;fill-rule:nonzero;fill:rgb(83.099365%,63.899231%,38.798523%);fill-opacity:1;" d="M 347.390625 151.65625 L 320.535156 123.871094 L 341.140625 103.964844 L 345.683594 108.660156 L 330.691406 123.152344 L 336.644531 129.3125 L 350.59375 115.832031 L 355.117188 120.511719 L 341.167969 133.992188 L 348.476563 141.554688 L 363.996094 126.550781 L 368.519531 131.230469 L 347.390625 151.65625 "/>
<path style=" stroke:none;fill-rule:nonzero;fill:rgb(83.099365%,63.899231%,38.798523%);fill-opacity:1;" d="M 364.457031 117.636719 L 369.398438 111.828125 C 371.5 113.34375 373.464844 114.046875 375.300781 113.9375 C 377.136719 113.824219 378.90625 112.945313 380.609375 111.296875 C 382.417969 109.550781 383.40625 107.851563 383.585938 106.199219 C 383.765625 104.550781 383.359375 103.214844 382.371094 102.191406 C 381.734375 101.535156 381 101.160156 380.171875 101.074219 C 379.339844 100.984375 378.277344 101.234375 376.988281 101.820313 C 376.113281 102.230469 374.222656 103.269531 371.324219 104.945313 C 367.601563 107.109375 364.601563 108.234375 362.339844 108.316406 C 359.15625 108.4375 356.503906 107.398438 354.378906 105.199219 C 353.011719 103.785156 352.132813 102.074219 351.742188 100.066406 C 351.355469 98.058594 351.605469 96.003906 352.492188 93.902344 C 353.378906 91.796875 354.890625 89.714844 357.027344 87.648438 C 360.511719 84.28125 363.875 82.507813 367.117188 82.332031 C 370.355469 82.160156 373.253906 83.304688 375.808594 85.769531 L 370.4375 91.4375 C 368.816406 90.242188 367.308594 89.714844 365.914063 89.851563 C 364.523438 89.988281 363.035156 90.820313 361.457031 92.347656 C 359.828125 93.921875 358.875 95.492188 358.601563 97.050781 C 358.421875 98.058594 358.679688 98.917969 359.375 99.640625 C 360.011719 100.296875 360.832031 100.589844 361.839844 100.519531 C 363.121094 100.429688 365.4375 99.386719 368.789063 97.394531 C 372.140625 95.402344 374.800781 94.117188 376.773438 93.542969 C 378.75 92.964844 380.679688 92.917969 382.574219 93.398438 C 384.46875 93.878906 386.261719 94.996094 387.960938 96.753906 C 389.5 98.34375 390.496094 100.261719 390.953125 102.507813 C 391.414063 104.75 391.164063 106.992188 390.199219 109.230469 C 389.234375 111.472656 387.546875 113.757813 385.132813 116.089844 C 381.621094 119.484375 378.136719 121.277344 374.6875 121.472656 C 371.234375 121.671875 367.824219 120.390625 364.457031 117.636719 "/>
<path style=" stroke:none;fill-rule:nonzero;fill:rgb(100%,100%,100%);fill-opacity:1;" d="M 130.972656 386.433594 C 132.117188 387.730469 133.253906 389.03125 134.421875 390.320313 C 168.394531 427.828125 202.773438 452.3125 222 464.527344 C 241.226563 452.3125 275.605469 427.828125 309.578125 390.320313 C 376.203125 316.78125 409.984375 230.121094 409.984375 132.75 C 409.984375 127.734375 409.839844 122.488281 409.597656 117.15625 L 130.972656 386.433594 "/>
<path style=" stroke:none;fill-rule:nonzero;fill:rgb(77.598572%,70.599365%,58.799744%);fill-opacity:1;" d="M 413.070313 62.0625 C 399.945313 64.617188 383.207031 66.761719 363.75 66.761719 C 302.597656 66.761719 246.695313 41.890625 222 29.113281 C 197.304688 41.890625 141.402344 66.761719 80.25 66.761719 C 60.792969 66.761719 44.050781 64.617188 30.929688 62.0625 C 28.367188 82.1875 25.511719 109.730469 25.511719 132.75 C 25.511719 232.519531 60.179688 321.257813 128.546875 396.507813 C 165.859375 437.574219 203.574219 463.253906 222 474.550781 C 240.429688 463.253906 278.140625 437.574219 315.449219 396.507813 C 383.820313 321.257813 418.488281 232.519531 418.488281 132.75 C 418.488281 109.730469 415.636719 82.1875 413.070313 62.0625 Z M 38.285156 71.960938 C 50.242188 73.84375 64.242188 75.265625 80.25 75.265625 C 140.089844 75.265625 194.90625 52.191406 222 38.628906 C 244.78125 50.03125 287.191406 68.109375 335.679688 73.589844 L 81.902344 318.054688 C 50.09375 261.898438 34.015625 199.875 34.015625 132.75 C 34.015625 113.332031 36.097656 90.589844 38.285156 71.960938 Z M 124.933594 379.460938 C 110.273438 362.167969 97.386719 344.175781 86.25 325.523438 L 346.738281 74.601563 C 352.359375 74.996094 358.019531 75.265625 363.75 75.265625 C 379.757813 75.265625 393.757813 73.84375 405.710938 71.960938 C 406.914063 82.164063 408.0625 93.597656 408.875 105.046875 Z M 309.578125 390.320313 C 275.605469 427.828125 241.226563 452.3125 222 464.527344 C 202.773438 452.3125 168.394531 427.828125 134.421875 390.320313 C 133.253906 389.03125 132.117188 387.730469 130.972656 386.433594 L 409.597656 117.15625 C 409.839844 122.488281 409.984375 127.734375 409.984375 132.75 C 409.984375 230.121094 376.203125 316.78125 309.578125 390.320313 "/>
<path style=" stroke:none;fill-rule:nonzero;fill:rgb(77.999878%,65.499878%,37.998962%);fill-opacity:1;" d="M 213.9375 160.4375 L 180.5 127.253906 L 192.652344 115.097656 L 172.5 94.945313 L 160.269531 107.175781 L 127.488281 74.636719 L 94.828125 107.296875 L 82.472656 94.945313 L 62.320313 115.097656 L 74.671875 127.453125 L 41.6875 160.4375 L 74.546875 193.550781 L 62.320313 205.777344 L 82.472656 225.933594 L 94.625 213.777344 L 127.488281 246.886719 L 160.472656 213.902344 L 172.5 225.933594 L 192.652344 205.777344 L 180.625 193.75 Z M 76.796875 160.507813 C 93.296875 144.007813 111.054688 126.246094 127.554688 109.75 C 144.128906 126.199219 162.023438 143.960938 178.691406 160.507813 C 162.070313 177.128906 144.175781 195.023438 127.554688 211.644531 C 111.011719 194.976563 93.25 177.078125 76.796875 160.507813 "/>
<path style=" stroke:none;fill-rule:nonzero;fill:rgb(100%,100%,100%);fill-opacity:1;" d="M 91.410156 145.890625 L 91.410156 150.039063 L 94.988281 150.039063 L 94.988281 147.4375 L 98.5625 147.4375 L 98.5625 151.988281 L 95.964844 151.988281 L 95.964844 156.539063 L 99.863281 156.539063 L 99.863281 159.464844 L 105.714844 159.464844 L 105.714844 156.539063 L 111.5625 156.539063 L 111.5625 159.464844 L 115.785156 159.464844 L 115.785156 151.015625 L 113.1875 151.015625 L 113.1875 144.511719 L 119.039063 144.511719 L 119.039063 147.4375 L 123.261719 147.4375 L 123.261719 144.511719 L 131.710938 144.511719 L 131.710938 147.4375 L 135.9375 147.4375 L 135.9375 144.511719 L 141.785156 144.511719 L 141.785156 151.015625 L 139.1875 151.015625 L 139.1875 159.464844 L 143.410156 159.464844 L 143.410156 156.539063 L 149.261719 156.539063 L 149.261719 159.464844 L 155.109375 159.464844 L 155.109375 156.539063 L 159.011719 156.539063 L 159.011719 151.988281 L 156.410156 151.988281 L 156.410156 147.4375 L 159.984375 147.4375 L 159.984375 150.039063 L 163.5625 150.039063 L 163.5625 145.488281 C 151.496094 133.511719 139.199219 121.3125 127.554688 109.75 C 115.046875 122.257813 101.816406 135.488281 88.957031 148.347656 C 89.777344 147.527344 90.589844 146.714844 91.410156 145.890625 "/>
<path style=" stroke:none;fill-rule:nonzero;fill:rgb(32.899475%,47.499084%,70.599365%);fill-opacity:1;" d="M 131.992188 202.214844 C 130.386719 201.582031 128.871094 200.980469 127.488281 200.980469 C 125.976563 200.980469 124.132813 201.675781 122.351563 202.351563 C 121.316406 202.738281 120.316406 203.105469 119.339844 203.367188 C 122.097656 206.148438 124.851563 208.921875 127.554688 211.644531 C 130.246094 208.949219 132.996094 206.203125 135.746094 203.449219 C 134.445313 203.160156 133.203125 202.691406 131.992188 202.214844 "/>
<path style=" stroke:none;fill-rule:nonzero;fill:rgb(32.899475%,47.499084%,70.599365%);fill-opacity:1;" d="M 115.125 198.007813 C 116.023438 198.632813 116.414063 198.867188 116.925781 198.867188 C 117.765625 198.867188 119.222656 198.320313 120.628906 197.789063 C 122.71875 197 125.089844 196.105469 127.488281 196.105469 C 129.800781 196.105469 131.917969 196.945313 133.785156 197.683594 C 135.328125 198.289063 136.785156 198.867188 138.046875 198.867188 C 139.09375 198.867188 139.621094 198.484375 140.503906 197.847656 C 141.054688 197.445313 141.738281 196.976563 142.578125 196.617188 C 144.605469 194.59375 146.628906 192.570313 148.664063 190.535156 C 148.558594 190.488281 148.441406 190.4375 148.335938 190.390625 C 147.078125 189.820313 145.894531 189.28125 145.035156 189.28125 C 144.523438 189.28125 144.210938 189.480469 143.367188 190.089844 C 142.230469 190.914063 140.675781 192.042969 138.046875 192.042969 C 135.859375 192.042969 133.894531 191.269531 131.992188 190.515625 C 130.386719 189.878906 128.871094 189.28125 127.488281 189.28125 C 125.976563 189.28125 124.132813 189.976563 122.351563 190.652344 C 120.449219 191.367188 118.65625 192.042969 116.925781 192.042969 C 114.835938 192.042969 113.394531 191.042969 112.34375 190.308594 C 111.367188 189.632813 110.820313 189.28125 109.9375 189.28125 C 108.890625 189.28125 107.644531 189.789063 106.40625 190.335938 C 108.496094 192.445313 110.574219 194.535156 112.65625 196.636719 C 113.660156 197.027344 114.472656 197.554688 115.125 198.007813 "/>
<path style=" stroke:none;fill-rule:nonzero;fill:rgb(32.899475%,47.499084%,70.599365%);fill-opacity:1;" d="M 103.890625 186.117188 C 105.675781 185.3125 107.699219 184.40625 109.9375 184.40625 C 112.390625 184.40625 113.972656 185.503906 115.125 186.308594 C 116.023438 186.933594 116.414063 187.167969 116.925781 187.167969 C 117.765625 187.167969 119.222656 186.621094 120.628906 186.089844 C 122.71875 185.300781 125.089844 184.40625 127.488281 184.40625 C 129.800781 184.40625 131.917969 185.242188 133.785156 185.980469 C 135.328125 186.59375 136.785156 187.167969 138.046875 187.167969 C 139.09375 187.167969 139.621094 186.785156 140.503906 186.144531 C 141.511719 185.410156 142.898438 184.40625 145.035156 184.40625 C 146.945313 184.40625 148.675781 185.191406 150.351563 185.949219 C 151.058594 186.269531 151.742188 186.578125 152.390625 186.808594 C 154.464844 184.734375 156.542969 182.65625 158.613281 180.585938 L 96.730469 180.585938 C 98.722656 182.597656 100.722656 184.609375 102.722656 186.621094 C 103.101563 186.464844 103.496094 186.292969 103.890625 186.117188 "/>
<path style=" stroke:none;fill-rule:nonzero;fill:rgb(72.198486%,19.599915%,21.199036%);fill-opacity:1;" d="M 76.796875 160.507813 C 83.289063 167.046875 89.988281 173.792969 96.730469 180.585938 L 158.613281 180.585938 C 165.398438 173.800781 172.144531 167.054688 178.691406 160.507813 C 173.738281 155.585938 168.667969 150.554688 163.5625 145.488281 L 163.5625 150.039063 L 159.984375 150.039063 L 159.984375 147.4375 L 156.410156 147.4375 L 156.410156 151.988281 L 159.011719 151.988281 L 159.011719 156.539063 L 155.109375 156.539063 L 155.109375 159.464844 L 149.261719 159.464844 L 149.261719 156.539063 L 143.410156 156.539063 L 143.410156 159.464844 L 139.1875 159.464844 L 139.1875 151.015625 L 141.785156 151.015625 L 141.785156 144.511719 L 135.9375 144.511719 L 135.9375 147.4375 L 131.710938 147.4375 L 131.710938 144.511719 L 123.261719 144.511719 L 123.261719 147.4375 L 119.039063 147.4375 L 119.039063 144.511719 L 113.1875 144.511719 L 113.1875 151.015625 L 115.785156 151.015625 L 115.785156 159.464844 L 111.5625 159.464844 L 111.5625 156.539063 L 105.714844 156.539063 L 105.714844 159.464844 L 99.863281 159.464844 L 99.863281 156.539063 L 95.964844 156.539063 L 95.964844 151.988281 L 98.5625 151.988281 L 98.5625 147.4375 L 94.988281 147.4375 L 94.988281 150.039063 L 91.410156 150.039063 L 91.410156 145.890625 C 86.476563 150.824219 81.582031 155.722656 76.796875 160.507813 "/>
<path style=" stroke:none;fill-rule:nonzero;fill:rgb(89.399719%,85.099792%,49.798584%);fill-opacity:1;" d="M 128.625 138.417969 L 134.3125 138.417969 L 134.3125 136.550781 L 136.261719 136.550781 L 136.261719 134.355469 L 134.3125 134.355469 L 134.3125 132.488281 L 132.441406 132.488281 L 132.441406 124.851563 L 130.332031 124.851563 L 130.332031 120.785156 L 128.464844 120.785156 L 128.464844 118.917969 L 130.332031 118.917969 L 130.332031 116.96875 L 124.644531 116.96875 L 124.644531 118.917969 L 126.511719 118.917969 L 126.511719 120.785156 L 124.644531 120.785156 L 124.644531 124.851563 L 122.53125 124.851563 L 122.53125 132.488281 L 120.660156 132.488281 L 120.660156 134.355469 L 118.714844 134.355469 L 118.714844 136.550781 L 120.660156 136.550781 L 120.660156 138.417969 L 128.625 138.417969 "/>
<path style=" stroke:none;fill-rule:nonzero;fill:rgb(96.099854%,92.498779%,59.599304%);fill-opacity:1;" d="M 126.578125 122.722656 C 126.578125 123.785156 126.578125 126.785156 126.578125 126.785156 C 126.578125 126.785156 124.492188 126.785156 124.464844 126.785156 C 124.464844 128.941406 124.464844 134.421875 124.464844 134.421875 C 124.464844 134.421875 122.71875 134.421875 122.597656 134.421875 C 122.597656 134.539063 122.597656 136.472656 122.597656 136.484375 C 124.28125 136.484375 130.691406 136.484375 132.378906 136.484375 C 132.378906 136.359375 132.378906 134.4375 132.378906 134.421875 C 132.257813 134.421875 130.507813 134.421875 130.507813 134.421875 C 130.507813 134.421875 130.507813 128.941406 130.507813 126.785156 C 130.480469 126.785156 128.394531 126.785156 128.394531 126.785156 C 128.394531 126.785156 128.394531 123.785156 128.394531 122.722656 C 128.304688 122.722656 126.695313 122.722656 126.578125 122.722656 "/>
<path style=" stroke:none;fill-rule:nonzero;fill:rgb(70.999146%,67.498779%,27.799988%);fill-opacity:1;" d="M 128.542969 136.46875 L 128.542969 140.285156 L 126.433594 140.285156 L 126.433594 136.46875 L 128.542969 136.46875 "/>
<path style=" stroke:none;fill-rule:nonzero;fill:rgb(100%,100%,100%);fill-opacity:1;" d="M 150.351563 185.949219 C 148.675781 185.191406 146.945313 184.40625 145.035156 184.40625 C 142.898438 184.40625 141.511719 185.410156 140.503906 186.144531 C 139.621094 186.785156 139.09375 187.167969 138.046875 187.167969 C 136.785156 187.167969 135.328125 186.59375 133.785156 185.980469 C 131.917969 185.242188 129.800781 184.40625 127.488281 184.40625 C 125.089844 184.40625 122.71875 185.300781 120.628906 186.089844 C 119.222656 186.621094 117.765625 187.167969 116.925781 187.167969 C 116.414063 187.167969 116.023438 186.933594 115.125 186.308594 C 113.972656 185.503906 112.390625 184.40625 109.9375 184.40625 C 107.699219 184.40625 105.675781 185.3125 103.890625 186.117188 C 103.496094 186.292969 103.101563 186.464844 102.722656 186.621094 C 103.949219 187.863281 105.175781 189.097656 106.40625 190.335938 C 107.644531 189.789063 108.890625 189.28125 109.9375 189.28125 C 110.820313 189.28125 111.367188 189.632813 112.34375 190.308594 C 113.394531 191.042969 114.835938 192.042969 116.925781 192.042969 C 118.65625 192.042969 120.449219 191.367188 122.351563 190.652344 C 124.132813 189.976563 125.976563 189.28125 127.488281 189.28125 C 128.871094 189.28125 130.386719 189.878906 131.992188 190.515625 C 133.894531 191.269531 135.859375 192.042969 138.046875 192.042969 C 140.675781 192.042969 142.230469 190.914063 143.367188 190.089844 C 144.210938 189.480469 144.523438 189.28125 145.035156 189.28125 C 145.894531 189.28125 147.078125 189.820313 148.335938 190.390625 C 148.441406 190.4375 148.558594 190.488281 148.664063 190.535156 C 149.90625 189.292969 151.148438 188.050781 152.390625 186.808594 C 151.742188 186.578125 151.058594 186.269531 150.351563 185.949219 "/>
<path style=" stroke:none;fill-rule:nonzero;fill:rgb(100%,100%,100%);fill-opacity:1;" d="M 140.503906 197.847656 C 139.621094 198.484375 139.09375 198.867188 138.046875 198.867188 C 136.785156 198.867188 135.328125 198.289063 133.785156 197.683594 C 131.917969 196.945313 129.800781 196.105469 127.488281 196.105469 C 125.089844 196.105469 122.71875 197 120.628906 197.789063 C 119.222656 198.320313 117.765625 198.867188 116.925781 198.867188 C 116.414063 198.867188 116.023438 198.632813 115.125 198.007813 C 114.472656 197.554688 113.660156 197.027344 112.65625 196.636719 C 114.894531 198.890625 117.125 201.136719 119.339844 203.367188 C 120.316406 203.105469 121.316406 202.738281 122.351563 202.351563 C 124.132813 201.675781 125.976563 200.980469 127.488281 200.980469 C 128.871094 200.980469 130.386719 201.582031 131.992188 202.214844 C 133.203125 202.691406 134.445313 203.160156 135.746094 203.449219 C 138.011719 201.1875 140.289063 198.910156 142.578125 196.617188 C 141.738281 196.976563 141.054688 197.445313 140.503906 197.847656 "/>
<path style=" stroke:none;fill-rule:nonzero;fill:rgb(13.699341%,12.199402%,12.5%);fill-opacity:1;" d="M 128.703125 99.296875 L 128.703125 87.960938 L 132.363281 87.960938 L 132.363281 85.523438 L 128.703125 85.523438 L 128.703125 81.867188 L 126.269531 81.867188 L 126.269531 85.523438 L 122.613281 85.523438 L 122.613281 87.960938 L 126.269531 87.960938 L 126.269531 99.296875 L 128.703125 99.296875 "/>
<path style=" stroke:none;fill-rule:nonzero;fill:rgb(13.699341%,12.199402%,12.5%);fill-opacity:1;" d="M 128.703125 221.578125 L 128.703125 232.914063 L 132.363281 232.914063 L 132.363281 235.355469 L 128.703125 235.355469 L 128.703125 239.011719 L 126.269531 239.011719 L 126.269531 235.355469 L 122.613281 235.355469 L 122.613281 232.914063 L 126.269531 232.914063 L 126.269531 221.578125 L 128.703125 221.578125 "/>
<path style=" stroke:none;fill-rule:nonzero;fill:rgb(13.699341%,12.199402%,12.5%);fill-opacity:1;" d="M 66.34375 159.21875 L 55.011719 159.21875 L 55.011719 155.5625 L 52.574219 155.5625 L 52.574219 159.21875 L 48.917969 159.21875 L 48.917969 161.65625 L 52.574219 161.65625 L 52.574219 165.3125 L 55.011719 165.3125 L 55.011719 161.65625 L 66.34375 161.65625 L 66.34375 159.21875 "/>
<path style=" stroke:none;fill-rule:nonzero;fill:rgb(13.699341%,12.199402%,12.5%);fill-opacity:1;" d="M 188.628906 159.21875 L 199.964844 159.21875 L 199.964844 155.5625 L 202.398438 155.5625 L 202.398438 159.21875 L 206.058594 159.21875 L 206.058594 161.65625 L 202.398438 161.65625 L 202.398438 165.3125 L 199.964844 165.3125 L 199.964844 161.65625 L 188.628906 161.65625 L 188.628906 159.21875 "/>
<path style=" stroke:none;fill-rule:nonzero;fill:rgb(76.499939%,65.098572%,46.299744%);fill-opacity:1;" d="M 311.226563 346.519531 C 316.828125 376.375 297.101563 405.21875 267.246094 410.820313 C 237.394531 416.421875 208.550781 396.695313 202.945313 366.84375 C 197.34375 336.988281 217.074219 308.144531 246.933594 302.546875 C 276.777344 296.945313 305.625 316.671875 311.226563 346.519531 "/>
<path style=" stroke:none;fill-rule:nonzero;fill:rgb(49.398804%,37.998962%,22.698975%);fill-opacity:1;" d="M 280.523438 344.726563 C 274.425781 349.589844 267.335938 353.257813 259.5 355.355469 C 258.382813 354.285156 257.238281 353.238281 256.054688 352.25 C 256.054688 352.246094 256.054688 352.246094 256.054688 352.242188 C 255.710938 351.957031 255.351563 351.691406 255 351.40625 C 249.136719 346.703125 242.519531 343.0625 235.453125 340.664063 C 235.460938 340.65625 235.464844 340.644531 235.472656 340.636719 C 235.253906 340.5625 235.035156 340.507813 234.816406 340.441406 C 234.59375 340.363281 234.371094 340.304688 234.144531 340.234375 C 233.480469 340.03125 232.8125 339.8125 232.136719 339.617188 C 232.132813 339.628906 232.132813 339.632813 232.132813 339.636719 C 224.53125 337.527344 216.480469 336.855469 208.320313 337.882813 C 211.890625 328.671875 218.003906 320.605469 225.984375 314.683594 C 248.148438 313.589844 268.949219 325.492188 280.523438 344.726563 "/>
<path style=" stroke:none;fill-rule:nonzero;fill:rgb(49.398804%,37.998962%,22.698975%);fill-opacity:1;" d="M 283.097656 342.550781 C 271.800781 324.074219 252.382813 312.109375 231.160156 311.289063 C 236.09375 308.46875 241.535156 306.367188 247.425781 305.257813 C 266.789063 301.625 285.691406 309.222656 297.441406 323.425781 C 293.917969 330.71875 289.042969 337.226563 283.097656 342.550781 "/>
<path style=" stroke:none;fill-rule:nonzero;fill:rgb(49.398804%,37.998962%,22.698975%);fill-opacity:1;" d="M 232.464844 402.824219 C 230.019531 397.765625 228.171875 392.3125 227.078125 386.507813 C 224.195313 371.148438 226.984375 356.132813 233.800781 343.636719 C 240.421875 345.8125 246.640625 349.15625 252.183594 353.476563 C 251.621094 355.542969 251.175781 357.65625 250.808594 359.792969 C 250.78125 359.964844 250.738281 360.125 250.710938 360.296875 C 250.714844 360.296875 250.714844 360.296875 250.71875 360.292969 C 249.675781 366.628906 249.558594 373.222656 250.382813 379.898438 C 250.382813 379.898438 250.378906 379.898438 250.378906 379.898438 C 250.523438 381.070313 250.675781 382.238281 250.882813 383.414063 C 250.929688 383.675781 250.945313 383.929688 250.992188 384.191406 C 252.703125 393.289063 256.117188 401.605469 260.804688 408.871094 C 250.71875 409.59375 240.953125 407.359375 232.464844 402.824219 "/>
<path style=" stroke:none;fill-rule:nonzero;fill:rgb(49.398804%,37.998962%,22.698975%);fill-opacity:1;" d="M 230.503906 342.652344 C 223.601563 355.667969 220.839844 371.214844 223.824219 387.121094 C 224.65625 391.570313 225.933594 395.816406 227.535156 399.859375 C 216.476563 392.292969 208.304688 380.523438 205.644531 366.347656 C 204.03125 357.757813 204.65625 349.261719 207.058594 341.425781 C 215.078125 340.179688 223.015625 340.664063 230.503906 342.652344 "/>
<path style=" stroke:none;fill-rule:nonzero;fill:rgb(49.398804%,37.998962%,22.698975%);fill-opacity:1;" d="M 273.605469 383.492188 C 287.921875 380.808594 300.144531 373.261719 309.058594 362.769531 C 306.464844 384.914063 289.765625 403.8125 266.730469 408.132813 C 265.992188 408.273438 265.246094 408.324219 264.511719 408.433594 C 259.628906 401.292969 256.085938 393.011719 254.324219 383.914063 C 260.601563 384.769531 267.074219 384.71875 273.605469 383.492188 "/>
<path style=" stroke:none;fill-rule:nonzero;fill:rgb(49.398804%,37.998962%,22.698975%);fill-opacity:1;" d="M 273 380.238281 C 266.492188 381.457031 260.050781 381.4375 253.816406 380.472656 C 252.839844 373.414063 252.984375 366.449219 254.207031 359.816406 C 254.777344 359.726563 255.351563 359.683594 255.921875 359.574219 C 256.773438 359.421875 257.597656 359.210938 258.433594 359.015625 C 258.4375 359.015625 258.4375 359.015625 258.4375 359.019531 C 258.484375 359.007813 258.539063 358.992188 258.585938 358.980469 C 259.6875 358.726563 260.777344 358.433594 261.851563 358.117188 C 261.953125 358.085938 262.054688 358.0625 262.152344 358.035156 C 262.152344 358.035156 262.152344 358.03125 262.152344 358.027344 C 270.6875 355.464844 278.34375 351.144531 284.8125 345.480469 C 284.816406 345.480469 284.8125 345.476563 284.816406 345.476563 C 290.910156 340.140625 295.886719 333.605469 299.621094 326.320313 C 303.933594 332.335938 307.0625 339.3125 308.515625 347.042969 C 309.136719 350.339844 309.394531 353.617188 309.386719 356.855469 C 300.796875 368.726563 288.144531 377.394531 273 380.238281 "/>
</g>
</svg>
