<?xml version="1.0" encoding="utf-8"?>
<!-- Generator: Adobe Illustrator 26.1.0, SVG Export Plug-In . SVG Version: 6.00 Build 0)  -->
<svg version="1.1" id="layer" xmlns="http://www.w3.org/2000/svg" xmlns:xlink="http://www.w3.org/1999/xlink" x="0px" y="0px"
	 viewBox="0 0 652 652" style="enable-background:new 0 0 652 652;" xml:space="preserve">
<style type="text/css">
	.st0{fill:#004071;}
	.st1{fill:#EC1C24;}
	.st2{fill:#C4A361;}
	.st3{fill:#FFFFFF;}
</style>
<path id="XMLID_185_" class="st0" d="M326.6,0C146.9,0,0.6,146.2,0.6,326c0,179.7,146.3,326,326,326s326-146.3,326-326
	C652.6,146.2,506.4,0,326.6,0"/>
<path id="XMLID_174_" class="st0" d="M326.3,380.1c-38.9,0-70.4,30-70.4,66.9c0,13,3.9,25.2,10.7,35.5c18.5,7.2,38.7,11.1,59.7,11.1
	c21.1,0,41.2-3.9,59.7-11.1c6.8-10.3,10.7-22.4,10.7-35.5C396.9,410.1,365.3,380.1,326.3,380.1"/>
<path id="XMLID_218_" class="st1" d="M387.9,330.4c20.5,33.9,46.8,63.1,77.7,88c-13.3,20.2-30.9,37.4-51.5,50.2
	c0.8-4.4,1.2-8.9,1.2-13.4c0-45.9-39.8-83.1-88.8-83.1s-88.8,37.2-88.8,83.1c0,4.6,0.4,9.1,1.2,13.4c-20.6-12.8-38.2-30-51.5-50.2
	c30.8-24.9,57.1-54.1,77.6-88H387.9 M384.1,323.9c-26.1-45.6-41.5-99.6-42.6-162.7c-5-0.4-10-0.7-15.1-0.7c-5.2,0-10.2,0.3-15.3,0.8
	c-1.2,63-16.6,117-42.6,162.6H384.1"/>
<path id="XMLID_217_" class="st2" d="M332.3,466.8l0.3,0.7c-1.2,2.3-3.1,5.2-5.6,7.2l-0.5,0.3l-0.5-0.3c-2.5-2-4.4-4.8-5.6-7.2
	l0.3-0.7c2-1.2,3.4-3.1,3.9-5.3l2-1.6l2,1.6C328.9,463.8,330.4,465.7,332.3,466.8 M337.9,429.5c0-6.8-8.9-28-11.6-28l-0.7,0.3
	c-3.3,2.6-11,21.4-11,27.8c0,5.1,10.2,18.4,10.2,25.7l1.4,1.3l1.3-1.3l0,0C327.8,447.9,337.9,434.6,337.9,429.5 M320.6,454.6
	c-4.8-12.6-13.2-19.6-21.8-19.6c-6.5,0-11.9,5.2-11.9,11.9c0,6.5,5.3,11.7,11.9,11.7c2,0,4-0.9,5-2.1c1.7-2,1.3-3.9,1.2-4.2
	l-0.8-0.4h-0.7c-2.2,0-3.9-1.8-3.9-3.9c0-2.2,1.8-3.9,3.9-3.9c3.9,0,10.7,3.8,14.5,11.7l0,0l0,0l1.3,0.8l1.4-1.4L320.6,454.6
	 M353.5,435c-8.6,0-17,6.9-21.8,19.6l-0.1,0.7l1.4,1.4l1.3-0.8l0,0l0,0l0,0c3.7-8,10.6-11.7,14.3-11.7c2.2,0,3.9,1.8,3.9,3.9
	c0,2.2-1.8,3.9-3.9,3.9H348l-0.8,0.4c-0.1,0.4-0.5,2.3,1.2,4.2c1,1,3,2.1,5,2.1c6.5,0,11.9-5.2,11.9-11.7
	C365.3,440.2,360,435,353.5,435"/>
<path id="XMLID_220_" class="st3" d="M326.2,23.3c-80.8,0-156.9,31.4-214,88.7c-57.1,57.1-88.7,133.1-88.7,214s31.6,156.9,88.7,214
	s133.1,88.7,214,88.7s156.9-31.4,214-88.7s88.7-133.1,88.7-214s-31.4-156.9-88.7-214C483.1,54.8,407.1,23.3,326.2,23.3 M326.2,35.3
	c160.5,0,290.7,130.1,290.7,290.7S486.7,616.7,326.2,616.7C165.6,616.7,35.4,486.5,35.4,326S165.6,35.3,326.2,35.3 M408.1,147.9
	c-4.7-2.2-9.5-4.2-14.3-6l28.7-69.1c4.8,1.8,9.6,3.8,14.3,5.9L408.1,147.9 M325.2,69v24.8h27.8c6.8,0,12.4-5.6,12.4-12.4
	c0-6.8-5.6-12.4-12.4-12.4H325.2 M325.2,129.5L325.2,129.5c-5.1,0-10.2,0.3-15.1,0.7V55.7h43c14.1,0,27.5,11.5,27.5,25.6
	c0,11.7-9.3,21.6-20.5,24.6l19.6,31.3c-6.3-1.8-12.6-3.3-19-4.4l-16.4-25.8h-18.9v22.6 M144.8,142.3l18.3,16.7l20.3-22.4
	c4.6-5.1,4.2-12.9-0.8-17.5c-5.1-4.6-12.9-4.2-17.5,0.8L144.8,142.3 M189.8,183.3c-3.7,3.5-7.3,7-10.7,10.8l-54.4-49.6l31.2-34.3
	c9.5-10.4,26.5-11.7,36.9-2.2c10.4,9.5,10.4,26.3,0.9,36.8l-21,23.2L189.8,183.3 M473.6,120.5c11.2-2.6,31.8,17.9,35.7,31.7
	c3.3-2.5,10.6-7.8,10.6-7.8c-8.7-24.8-43.4-49.6-59.9-34c-9.8,9.3-4.2,23.5,4.3,32.3l8.2,8.7c8.5,8.9,15.8,17.7,9,23.3
	c-7.2,6-27.4-9-39.6-34.7l-10.8,8.2c2.6,6.8,8.5,16.6,16.3,24.9c9,9.4,18.6,15.5,27.4,17.2c6.8,1.3,13.7,0.3,18.1-3.9
	c11.2-10.4,7.2-25.6-10.6-44.2l-7.3-7.7C467.2,126.1,470.4,121.3,473.6,120.5 M239,116.6c7.3-3,14.7-5.6,22.3-7.8l-21.1-24.1
	L239,116.6 M243.5,68.1l57.4,63c-5.9,0.8-11.7,1.7-17.5,3l-13-15c-11,2.9-21.6,6.7-31.9,11.1l-0.8,19.8c-5.3,2.6-10.4,5.5-15.5,8.6
	l5.6-84.9C233,71.7,238.2,69.8,243.5,68.1 M349.9,162.2c80.8,11.5,143,80.8,143,164.8c0,26.9-6.4,52.3-17.7,74.8
	C401.8,346.7,357.2,269.3,349.9,162.2 M414.1,468.7c0.8-4.4,1.2-8.9,1.2-13.6c0-45.9-39.8-83.1-88.8-83.1s-88.8,37.2-88.8,83.1
	c0,4.6,0.4,9.1,1.2,13.6c-20.6-12.8-38.2-30-51.5-50.3c30.8-24.9,57.1-54.1,77.6-88h123.2c20.5,33.9,46.8,63.1,77.7,88
	C452.3,438.7,434.7,455.7,414.1,468.7 M386.2,482.5c-18.5,7.2-38.7,11.1-59.7,11.1c-21.1,0-41.2-3.9-59.7-11.1
	c-6.8-10.3-10.7-22.4-10.7-35.5c0-36.9,31.6-66.9,70.4-66.9s70.4,30,70.4,66.9C396.9,460.1,393,472.2,386.2,482.5 M159.8,327
	c0-84,62.2-153.5,143-164.8c-7.3,107.1-51.9,184.6-125.3,239.7C166.3,379.3,159.8,353.9,159.8,327 M326.3,160.5
	c5.1,0,10.2,0.3,15.1,0.8c1.2,63.1,16.6,117,42.6,162.6H268.6c26.1-45.6,41.5-99.6,42.6-162.6C316.2,160.8,321.3,160.5,326.3,160.5
	 M326.3,148.5c-98.5,0-178.5,80.1-178.5,178.5s80.1,178.5,178.5,178.5S504.9,425.5,504.9,327S424.8,148.5,326.3,148.5 M181.2,498.3
	l-9.6,4.6l6.7,5.7L181.2,498.3 M177.7,525.5l-3.7-2.7l3-9.9l-9.5-8.1l-9.4,4.6l-3.1-3l27.9-13.2l3.4,2.9L177.7,525.5 M186.3,531.6
	l15.6-23.7l3.4,2.2l-15.6,23.7L186.3,531.6 M217.5,517.8l4.8,26.5l0,0l9.9-18.8l3.5,1.8l-12.9,24.8l-3.5-1.4l-4.8-26.7l0,0
	l-10.2,18.9l-3.5-2l13-24.9L217.5,517.8 M265.7,538.6l-1.3,3.8l-9.3-3.3l-8,22.8l-3.8-1.3l8-22.8l-9.3-3.1l1.3-3.8L265.7,538.6
	 M327.1,559.4l12.8,0.3l-0.1,7.4c-0.1,5.1-5.6,8.2-12.6,8.1c-7.4-0.1-15.1-5.3-15-14.9c0.1-8,6.7-14.3,15.5-14.2
	c6.7,0.1,10.2,3.7,11.7,5.2l-2.9,2.9c-1.3-1.3-3.5-3.9-8.5-4c-7.4-0.1-11.7,4.7-11.9,10.4c-0.1,5.5,4.2,10.4,11.2,10.6
	c4.8,0.1,8.3-2.1,8.3-4.4v-3.1l-8.7-0.1L327.1,559.4 M370.7,542.5l0.5,4l-18.6,2.7l1,7.3l9.4-1.3l0.5,4l-9.4,1.3l1.2,8.5l19.3-2.7
	l0.5,4l-23.3,3.4l-3.9-27.6L370.7,542.5 M385.3,542.9l2.3,8l11.9-3.7c2.9-0.9,4-2.9,3.3-5.5c-0.9-3-3.4-3-5.6-2.3L385.3,542.9
	 M396,535.4c4.3-1.3,9-0.4,10.7,5.1c1.7,5.9-1.6,8.7-3.8,9.6l8.7,9.4l-4.2,1.6l-8.6-9.5l-10,3l3.4,11.2l-3.9,1l-8.1-26.7L396,535.4
	 M457.4,509.3l2.1,10.4l7.2-5.1L457.4,509.3 M482.6,519.4l-3.5,2.7l-8.6-5.2l-10.2,7.2l2,10.2l-3.7,2.2l-5.9-30l3.7-2.6L482.6,519.4
	 M473.8,490l19,20.5l-3,2.6L471,492.8L473.8,490 M484.9,479.1l26.9,1.8l0,0L496,466.7l2.7-3l20.7,18.6l-2.3,3l-27.1-1.8l0,0
	l15.9,14.3l-2.9,2.9L482.2,482L484.9,479.1 M437.6,516.5l13.2,24.6l-3.5,2l-9.5-17.3l0,0l-0.7,19.6l-16.2-11l0,0l8.5,17.9l-3.7,1.6
	l-12.1-25.2l3.7-1.8l16.4,11.1l0.5-19.8L437.6,516.5 M167.1,480.5L167.1,480.5v0.1l-2.9,1.7l-0.1,0.1v-0.1
	c-1.8-6.1-8.6-14.1-13.3-14.1h-0.5l-2.2,1.7c-0.5,1-0.5,2.9,1.6,5.7l2.6,3.5c3.9,5.2,5.7,9.6,5.2,12.9l-2.9,4.4l-3.8,1l-3.1-0.5
	c-3.3-1-6.9-3.9-9.9-8.1c-3-4-4.7-8.1-5.3-10.7l0,0h0.1l3-2.7v0.1c3.4,10.3,10.2,17.5,14.2,17.5l1.8-0.5l1.7-2.5
	c0.5-2.5-1.7-5.7-4-8.9l-3-4c-2.1-2.7-3.1-5.9-2.7-8.3l2.3-3.9l3.9-1.3C156.2,463.7,164.9,472,167.1,480.5 M279.9,558.4l0.9-4
	l9.9,2.2l-0.9,4L279.9,558.4"/>
</svg>
