<svg xmlns="http://www.w3.org/2000/svg" width="20" height="20" viewBox="0 0 20 20">
  <g id="vuesax_bold_card-pos" data-name="vuesax/bold/card-pos" transform="translate(-428 -508)">
    <g id="card-pos" transform="translate(428 508)">
      <path id="Vector" d="M16.667.625a.63.63,0,0,1-.625.625H.625A.63.63,0,0,1,0,.625.63.63,0,0,1,.625,0H16.042A.63.63,0,0,1,16.667.625Z" transform="translate(1.667 17.083)" fill="#fff"/>
      <path id="Vector-2" data-name="Vector" d="M11.052,2.092,2.1,11.042a.86.86,0,0,1-1.225,0H.869a2.983,2.983,0,0,1,0-4.208L6.827.875a2.978,2.978,0,0,1,4.217,0A.858.858,0,0,1,11.052,2.092Z" transform="translate(1.773 1.675)" fill="#fff"/>
      <path id="Vector-3" data-name="Vector" d="M12.973,2.8,10.431.256a.86.86,0,0,0-1.225,0L.256,9.206a.86.86,0,0,0,0,1.225L2.8,12.981a2.993,2.993,0,0,0,4.217,0l5.95-5.958A2.965,2.965,0,0,0,12.973,2.8ZM6.256,10.323,5.248,11.34a.542.542,0,1,1-.767-.767L5.5,9.556a.554.554,0,0,1,.758,0A.548.548,0,0,1,6.256,10.323ZM9.565,7.015,7.531,9.056a.565.565,0,0,1-.767,0,.548.548,0,0,1,0-.767L8.806,6.248a.554.554,0,0,1,.758,0A.548.548,0,0,1,9.565,7.015Z" transform="translate(4.377 4.277)" fill="#fff"/>
      <path id="Vector-4" data-name="Vector" d="M0,0H20V20H0Z" fill="none" opacity="0"/>
    </g>
  </g>
</svg>
