<svg xmlns="http://www.w3.org/2000/svg" width="20" height="20" viewBox="0 0 20 20">
  <g id="vuesax_bold_wallet-money" data-name="vuesax/bold/wallet-money" transform="translate(-108 -380)">
    <g id="wallet-money" transform="translate(108 380)">
      <path id="Vector" d="M15.808,10.483a3.9,3.9,0,0,1-4.142,3.683h-7.5A4.168,4.168,0,0,1,0,10V4.167A3.878,3.878,0,0,1,3.492.05,4.435,4.435,0,0,1,4.167,0h7.5a3.811,3.811,0,0,1,.625.042,3.833,3.833,0,0,1,3.517,3.642.409.409,0,0,1-.417.442H14.1a2.869,2.869,0,0,0-2.075.858,2.932,2.932,0,0,0-.875,2.35,3.038,3.038,0,0,0,3.05,2.708h1.192A.409.409,0,0,1,15.808,10.483Z" transform="translate(1.667 2.917)" fill="#fff"/>
      <path id="Vector-2" data-name="Vector" d="M0,0H20V20H0Z" transform="translate(20 20) rotate(180)" fill="none" opacity="0"/>
      <path id="Vector-3" data-name="Vector" d="M4.274.85V2.567a.856.856,0,0,1-.833.85H1.808a1.777,1.777,0,0,1-1.8-1.558A1.674,1.674,0,0,1,.508.5a1.661,1.661,0,0,1,1.2-.5H3.441A.856.856,0,0,1,4.274.85Z" transform="translate(14.059 8.292)" fill="#fff"/>
    </g>
  </g>
</svg>
