<svg width="14" height="14" viewBox="0 0 14 14" fill="none" xmlns="http://www.w3.org/2000/svg">
<path d="M9.40007 9.79999C10.0628 9.79999 10.6001 9.26274 10.6001 8.59999C10.6001 7.93725 10.0628 7.39999 9.40007 7.39999C8.73733 7.39999 8.20007 7.93725 8.20007 8.59999C8.20007 9.26274 8.73733 9.79999 9.40007 9.79999Z" stroke="white" stroke-width="1.3" stroke-linecap="round" stroke-linejoin="round"/>
<path d="M1 2.6V11.4C1 11.8243 1.16857 12.2313 1.46863 12.5314C1.76869 12.8314 2.17565 13 2.6 13H13V4.2H2.6C2.17565 4.2 1.76869 4.03143 1.46863 3.73137C1.16857 3.43131 1 3.02435 1 2.6V2.6ZM1 2.6C1 2.17565 1.16857 1.76869 1.46863 1.46863C1.76869 1.16857 2.17565 1 2.6 1H9.8V2.6" stroke="white" stroke-width="1.3" stroke-linecap="round" stroke-linejoin="round"/>
</svg>
