<svg width="24" height="24" viewBox="0 0 24 24" fill="none" xmlns="http://www.w3.org/2000/svg">
<g clip-path="url(#clip0_190_1221)">
<path d="M2.64698 8.64603C2.23588 9.13461 2.00739 9.7509 2.00064 10.3894C1.99389 11.0279 2.2093 11.6489 2.60998 12.146L5.99998 17V21C5.99998 21.5305 6.21069 22.0392 6.58577 22.4142C6.96084 22.7893 7.46955 23 7.99998 23H18C18.5304 23 19.0391 22.7893 19.4142 22.4142C19.7893 22.0392 20 21.5305 20 21V16L21.052 5.86303C21.1496 5.32997 21.1411 4.7829 21.0272 4.2531C20.9132 3.72329 20.696 3.22115 20.3878 2.77536C20.0797 2.32958 19.6867 1.9489 19.2313 1.65508C18.7759 1.36127 18.2671 1.16009 17.734 1.06303C17.4897 1.01959 17.242 0.998503 16.994 1.00003H9.16298C8.50374 0.98615 7.85022 1.12488 7.25348 1.40538C6.65673 1.68589 6.13293 2.10057 5.72298 2.61703C5.37571 3.07478 5.12725 3.59964 4.99333 4.15839C4.85941 4.71713 4.84295 5.29759 4.94498 5.86303L6.04498 11.921" stroke="#EC3434" stroke-width="2" stroke-linecap="round" stroke-linejoin="round"/>
<path d="M10 19H16" stroke="#EC3434" stroke-width="2" stroke-linecap="round" stroke-linejoin="round"/>
</g>
<defs>
<clipPath id="clip0_190_1221">
<rect width="24" height="24" fill="white"/>
</clipPath>
</defs>
</svg>
