<svg width="24" height="24" viewBox="0 0 24 24" fill="none" xmlns="http://www.w3.org/2000/svg">
<path d="M23 20V4" stroke="#E86820" stroke-width="2" stroke-linecap="round" stroke-linejoin="round"/>
<path d="M17 1H5C3.89543 1 3 1.89543 3 3V21C3 22.1046 3.89543 23 5 23H17C18.1046 23 19 22.1046 19 21V3C19 1.89543 18.1046 1 17 1Z" stroke="#E86820" stroke-width="2" stroke-linecap="round" stroke-linejoin="round"/>
<path d="M14.3609 9.63101C14.1311 9.40528 13.8545 9.23279 13.5506 9.12573C13.2468 9.01866 12.9231 8.97963 12.6026 9.01139C12.282 9.04315 11.9723 9.14493 11.6953 9.30954C11.4184 9.47415 11.181 9.69757 10.9999 9.96401C10.8188 9.69757 10.5815 9.47415 10.3045 9.30954C10.0276 9.14493 9.71791 9.04315 9.39732 9.01139C9.07674 8.97963 8.75309 9.01866 8.44925 9.12573C8.14541 9.23279 7.86879 9.40528 7.63894 9.63101C7.4366 9.8299 7.2759 10.0671 7.1662 10.3287C7.0565 10.5904 7 10.8713 7 11.155C7 11.4387 7.0565 11.7196 7.1662 11.9813C7.2759 12.2429 7.4366 12.4801 7.63894 12.679L10.9999 16L14.3609 12.679C14.5633 12.4801 14.724 12.2429 14.8337 11.9813C14.9434 11.7196 14.9999 11.4387 14.9999 11.155C14.9999 10.8713 14.9434 10.5904 14.8337 10.3287C14.724 10.0671 14.5633 9.8299 14.3609 9.63101V9.63101Z" stroke="#E86820" stroke-width="2" stroke-linecap="round" stroke-linejoin="round"/>
</svg>
