<svg width="24" height="24" viewBox="0 0 24 24" fill="none" xmlns="http://www.w3.org/2000/svg">
<g clip-path="url(#clip0_190_1237)">
<path d="M20.9419 10.933C20.1209 10.2848 19.1929 9.78493 18.1999 9.45599C16.1335 8.87752 13.9272 9.07089 11.9929 9.99999" stroke="#19B0F0" stroke-width="2" stroke-linecap="round" stroke-linejoin="round"/>
<path d="M7.368 2.28198C7.34202 3.32759 7.4994 4.36968 7.833 5.36098C8.61002 7.36136 10.0888 9.0104 11.993 9.99998" stroke="#19B0F0" stroke-width="2" stroke-linecap="round" stroke-linejoin="round"/>
<path d="M20.477 13C20.9614 11.6419 21.1123 10.1873 20.9172 8.7586C20.722 7.32995 20.1865 5.9691 19.3556 4.79064C18.5247 3.61218 17.4229 2.6506 16.1428 1.98687C14.8627 1.32314 13.4419 0.976685 12 0.976685C10.5581 0.976685 9.13727 1.32314 7.8572 1.98687C6.57713 2.6506 5.47527 3.61218 4.64439 4.79064C3.81352 5.9691 3.27796 7.32995 3.08281 8.7586C2.88766 10.1873 3.03863 11.6419 3.523 13" stroke="#19B0F0" stroke-width="2" stroke-linecap="round" stroke-linejoin="round"/>
<path d="M10.4509 13C11.1255 12.0911 11.6465 11.0776 11.9929 10" stroke="#19B0F0" stroke-width="2" stroke-linecap="round" stroke-linejoin="round"/>
<path d="M1 23C2.05994 23 3.10599 22.7588 4.0589 22.2946C5.0118 21.8305 5.84658 21.1556 6.5 20.321C7.1534 21.1556 7.98817 21.8306 8.94108 22.2947C9.89399 22.7589 10.94 23.0001 12 23.0001C13.06 23.0001 14.106 22.7589 15.0589 22.2947C16.0118 21.8306 16.8466 21.1556 17.5 20.321C18.1534 21.1556 18.9882 21.8305 19.9411 22.2946C20.894 22.7588 21.9401 23 23 23" stroke="#19B0F0" stroke-width="2" stroke-linecap="round" stroke-linejoin="round"/>
<path d="M1 18C2.05994 18 3.10599 17.7588 4.0589 17.2946C5.0118 16.8305 5.84658 16.1556 6.5 15.321C7.1534 16.1556 7.98817 16.8306 8.94108 17.2947C9.89399 17.7589 10.94 18.0001 12 18.0001C13.06 18.0001 14.106 17.7589 15.0589 17.2947C16.0118 16.8306 16.8466 16.1556 17.5 15.321C18.1534 16.1556 18.9882 16.8305 19.9411 17.2946C20.894 17.7588 21.9401 18 23 18" stroke="#19B0F0" stroke-width="2" stroke-linecap="round" stroke-linejoin="round"/>
</g>
<defs>
<clipPath id="clip0_190_1237">
<rect width="24" height="24" fill="white"/>
</clipPath>
</defs>
</svg>
