<svg width="24" height="24" viewBox="0 0 24 24" fill="none" xmlns="http://www.w3.org/2000/svg">
<path d="M5 23C7.20914 23 9 21.2091 9 19C9 16.7909 7.20914 15 5 15C2.79086 15 1 16.7909 1 19C1 21.2091 2.79086 23 5 23Z" stroke="#EDE51B" stroke-width="2" stroke-linecap="round" stroke-linejoin="round"/>
<path d="M19 23C21.2091 23 23 21.2091 23 19C23 16.7909 21.2091 15 19 15C16.7909 15 15 16.7909 15 19C15 21.2091 16.7909 23 19 23Z" stroke="#EDE51B" stroke-width="2" stroke-linecap="round" stroke-linejoin="round"/>
<path d="M17 5C18.1046 5 19 4.10457 19 3C19 1.89543 18.1046 1 17 1C15.8954 1 15 1.89543 15 3C15 4.10457 15.8954 5 17 5Z" stroke="#EDE51B" stroke-width="2" stroke-linecap="round" stroke-linejoin="round"/>
<path d="M12.0001 20V15L8.92209 12.692C8.8075 12.606 8.71272 12.4964 8.64416 12.3706C8.5756 12.2448 8.53487 12.1058 8.52473 11.9629C8.51458 11.82 8.53526 11.6766 8.58535 11.5424C8.63545 11.4082 8.7138 11.2863 8.81509 11.185L12.2931 7.70697C12.4806 7.5195 12.7349 7.41418 13.0001 7.41418C13.2653 7.41418 13.5196 7.5195 13.7071 7.70697L17.0001 11H20.0001" stroke="#EDE51B" stroke-width="2" stroke-linecap="round" stroke-linejoin="round"/>
</svg>
