<svg width="24" height="24" viewBox="0 0 24 24" fill="none" xmlns="http://www.w3.org/2000/svg">
<path d="M4.30005 19.849C5.34594 18.827 6.17674 17.6061 6.74348 16.2581C7.31023 14.9101 7.60147 13.4623 7.60005 12C7.60147 10.5377 7.31023 9.08991 6.74348 7.74191C6.17674 6.39391 5.34594 5.17297 4.30005 4.151" stroke="#B0E123" stroke-width="2" stroke-linecap="round" stroke-linejoin="round"/>
<path d="M19.7001 19.849C18.655 18.8261 17.8247 17.6049 17.2578 16.2569C16.6909 14.9089 16.3989 13.4613 16.3989 11.999C16.3989 10.5367 16.6909 9.08904 17.2578 7.74104C17.8247 6.39305 18.655 5.17183 19.7001 4.14899" stroke="#B0E123" stroke-width="2" stroke-linecap="round" stroke-linejoin="round"/>
<path d="M12 23C18.0751 23 23 18.0751 23 12C23 5.92487 18.0751 1 12 1C5.92487 1 1 5.92487 1 12C1 18.0751 5.92487 23 12 23Z" stroke="#B0E123" stroke-width="2" stroke-linecap="round" stroke-linejoin="round"/>
</svg>
