<svg width="24" height="24" viewBox="0 0 24 24" fill="none" xmlns="http://www.w3.org/2000/svg">
<path d="M8.14844 2.2388L12 5.12725L15.8516 2.2388" stroke="#00D57D" stroke-width="2" stroke-linecap="round" stroke-linejoin="round"/>
<path d="M1.52661 12.6462L5.46316 9.87799L3.90629 5.31813" stroke="#00D57D" stroke-width="2" stroke-linecap="round" stroke-linejoin="round"/>
<path d="M9.37776 22.1602L7.96026 17.5602L3.14648 17.6318" stroke="#00D57D" stroke-width="2" stroke-linecap="round" stroke-linejoin="round"/>
<path d="M20.8533 17.6317L16.0396 17.5592L14.6221 22.1591" stroke="#00D57D" stroke-width="2" stroke-linecap="round" stroke-linejoin="round"/>
<path d="M20.0935 5.31813L18.5366 9.87609L22.4732 12.6443" stroke="#00D57D" stroke-width="2" stroke-linecap="round" stroke-linejoin="round"/>
<path d="M13.9091 14.8637L15.3247 11.203L12 8.49496L8.67529 11.203L10.0909 14.8637H13.9091Z" stroke="#00D57D" stroke-width="2" stroke-linecap="round" stroke-linejoin="round"/>
<path d="M12 22.5C17.799 22.5 22.5 17.799 22.5 12C22.5 6.20101 17.799 1.5 12 1.5C6.20101 1.5 1.5 6.20101 1.5 12C1.5 17.799 6.20101 22.5 12 22.5Z" stroke="#00D57D" stroke-width="2" stroke-linecap="round" stroke-linejoin="round"/>
</svg>
