<?xml version="1.0" encoding="UTF-8"?>
<!DOCTYPE svg PUBLIC "-//W3C//DTD SVG 1.1//EN" "http://www.w3.org/Graphics/SVG/1.1/DTD/svg11.dtd">
<svg xmlns="http://www.w3.org/2000/svg" version="1.1" width="200px" height="200px" style="shape-rendering:geometricPrecision; text-rendering:geometricPrecision; image-rendering:optimizeQuality; fill-rule:evenodd; clip-rule:evenodd" xmlns:xlink="http://www.w3.org/1999/xlink">
<g><path style="opacity:0.998" fill="#9a9350" d="M 89.5,23.5 C 129.077,21.5292 157.577,38.1959 175,73.5C 189.002,117.507 176.835,152.007 138.5,177C 102.735,193.343 70.2348,188.51 41,162.5C 17.8918,136.288 12.2251,106.621 24,73.5C 37.3496,45.5898 59.1829,28.9231 89.5,23.5 Z"/></g>
<g><path style="opacity:1" fill="#fefefe" d="M 84.5,48.5 C 88.8333,48.5 93.1667,48.5 97.5,48.5C 97.6666,61.8375 97.4999,75.1708 97,88.5C 96.3333,89.1667 95.6667,89.8333 95,90.5C 88.3186,83.9856 81.8186,77.3189 75.5,70.5C 78.1167,62.9768 81.1167,55.6435 84.5,48.5 Z"/></g>
<g><path style="opacity:1" fill="#fefefe" d="M 101.5,48.5 C 105.846,48.3343 110.179,48.501 114.5,49C 117.983,55.9465 120.983,63.1132 123.5,70.5C 117.181,77.3189 110.681,83.9856 104,90.5C 103.333,89.8333 102.667,89.1667 102,88.5C 101.5,75.1708 101.333,61.8375 101.5,48.5 Z"/></g>
<g><path style="opacity:1" fill="#fefefe" d="M 73.5,76.5 C 81.1316,83.6308 88.6316,90.9642 96,98.5C 97.58,107.424 97.9133,116.424 97,125.5C 96.586,125.957 96.086,126.291 95.5,126.5C 85.5168,117.684 75.6835,108.684 66,99.5C 68.17,91.8215 70.67,84.1548 73.5,76.5 Z"/></g>
<g><path style="opacity:1" fill="#fefefe" d="M 124.5,76.5 C 128.226,83.8441 131.059,91.5108 133,99.5C 123.317,108.684 113.483,117.684 103.5,126.5C 102.914,126.291 102.414,125.957 102,125.5C 101.087,116.424 101.42,107.424 103,98.5C 110.369,91.2982 117.536,83.9649 124.5,76.5 Z"/></g>
<g><path style="opacity:1" fill="#fefefe" d="M 63.5,104.5 C 75.5163,114.683 86.683,125.683 97,137.5C 97.4986,141.152 97.6653,144.818 97.5,148.5C 81.8298,148.667 66.1631,148.5 50.5,148C 50,147.5 49.5,147 49,146.5C 49.0154,143.43 49.6821,140.43 51,137.5C 55.4681,126.593 59.6348,115.593 63.5,104.5 Z"/></g>
<g><path style="opacity:1" fill="#fefefe" d="M 134.5,104.5 C 140.952,118.024 146.119,132.024 150,146.5C 149.5,147 149,147.5 148.5,148C 132.837,148.5 117.17,148.667 101.5,148.5C 100.931,143.223 101.765,138.223 104,133.5C 114.365,123.967 124.532,114.3 134.5,104.5 Z"/></g>
</svg>
