<?xml version="1.0" encoding="utf-8"?>
<!-- Generator: Adobe Illustrator 25.0.0, SVG Export Plug-In . SVG Version: 6.00 Build 0)  -->
<svg version="1.1" id="Layer_1" xmlns="http://www.w3.org/2000/svg" xmlns:xlink="http://www.w3.org/1999/xlink" x="0px" y="0px"
	 viewBox="0 0 651 608" style="enable-background:new 0 0 651 608;" xml:space="preserve">
<style type="text/css">
	.st0{fill:#00AB55;}
	.st1{fill:#FFFFFF;}
	.st2{fill:#E8E8E8;}
	.st3{opacity:8.000000e-02;fill:#FFFFFF;}
</style>
<circle class="st0" cx="341" cy="306.4" r="259"/>
<path class="st1" d="M481,247.3l-19.4,145.9c-0.1,0.4-0.2,0.8-0.4,1.1l-0.3,1.8c-0.3,1.5-1.3,2.8-2.7,3.3l-6.1,2.3
	c-1.4,0.5-2.9,0.3-4.1-0.5l-108.5-78.6c-1.2-0.9-2.9-1.1-4.3-0.5l-33.9,14.6c-3.1,1.3-3.6,5.5-0.9,7.5l98.4,73.7
	c2.7,2.1,2.1,6.3-1,7.5l-8.6,3.3c-1.4,0.5-3,0.3-4.1-0.6l-107.3-79.4c-1.2-0.9-2.9-1.1-4.3-0.5L239,363.4c-3,1.3-3.5,5.5-0.9,7.5
	l98.9,74.1c2.6,2,2.2,6.1-0.8,7.5l-13,5.9c-1.5,0.7-3.1,0.5-4.4-0.5l-110.9-83l-4.2-3.1l-1.8-1.5c0,0-0.1,0-0.1-0.1
	c-0.4-0.5-0.7-1.1-0.9-1.8c0,0,0,0,0,0c-0.1-0.4-0.1-0.9-0.1-1.3l0.5-8.4c0.1-1.6,1.1-3.1,2.6-3.7l60.5-25.8l62.3-29
	c0.9-0.4,1.5-1.2,1.6-2.2l4.1-40.4c0.2-2.1-1.9-3.6-3.8-2.8l-117.6,52.2c-1.9,0.8-3.9-0.6-3.8-2.6l0.6-13.9c0-1,0.7-2,1.6-2.4
	L334,233.4c0.9-0.4,1.5-1.2,1.6-2.2l3.8-41.2c0.2-2.1-1.9-3.6-3.8-2.7l-117.9,52.6c-1.9,0.9-4-0.6-3.8-2.7l1.5-17.9
	c0.1-1,0.7-1.9,1.6-2.3l134.2-59.9c0,0,0.1,0,0.1,0c0.3-0.3,0.6-0.5,1-0.7l6.3-2.2c0.8-0.3,1.8-0.1,2.4,0.5l6.5,5.5
	c0.7,0.5,1,1.4,0.9,2.2l-15.8,135.1c-0.1,0.9,0.3,1.8,1,2.3l32.6,25c1.5,1.2,3.8,0.2,4-1.7l17.1-128.4c0.3-1.9,2.5-2.9,4.1-1.6
	l11.2,8.8c0.7,0.5,1.1,1.4,1,2.3l-18,134.4c-0.1,0.9,0.2,1.8,1,2.4l33.4,25.1c1.6,1.2,3.8,0.2,4-1.7l17.1-128.6
	c0.2-1.9,2.5-2.9,4-1.7l14.8,10.9C480.8,245.5,481.2,246.4,481,247.3z"/>
</svg>
